<?xml version="1.0" encoding="utf-8"?>
<!-- Generator: Adobe Illustrator 23.1.1, SVG Export Plug-In . SVG Version: 6.00 Build 0)  -->
<svg version="1.1" id="Layer_1" xmlns="http://www.w3.org/2000/svg" xmlns:xlink="http://www.w3.org/1999/xlink" x="0px" y="0px"
	 viewBox="0 0 1280 500" style="enable-background:new 0 0 1280 500;" xml:space="preserve">
<style type="text/css">
	.st0{clip-path:url(#SVGID_2_);fill:#001121;}
	.st1{clip-path:url(#SVGID_4_);}
	.st2{fill:url(#SVGID_5_);}
	.st3{clip-path:url(#SVGID_7_);}
	.st4{fill:url(#SVGID_8_);}
	.st5{clip-path:url(#SVGID_10_);}
	.st6{fill:url(#SVGID_11_);}
	.st7{clip-path:url(#SVGID_13_);}
	.st8{fill:url(#SVGID_14_);}
	.st9{clip-path:url(#SVGID_16_);}
	.st10{fill:url(#SVGID_17_);}
	.st11{clip-path:url(#SVGID_19_);}
	.st12{fill:url(#SVGID_20_);}
	.st13{clip-path:url(#SVGID_22_);fill:none;stroke:#EA227A;stroke-width:1;stroke-miterlimit:10.0001;}
	.st14{clip-path:url(#SVGID_24_);fill:#FFFFFF;}
	.st15{clip-path:url(#SVGID_26_);fill:#FFFFFF;}
	.st16{clip-path:url(#SVGID_28_);fill:#EA227A;}
	.st17{clip-path:url(#SVGID_30_);fill:#EA227A;}
	.st18{clip-path:url(#SVGID_32_);fill:none;stroke:#EA227A;stroke-width:3;stroke-miterlimit:10;}
	.st19{clip-path:url(#SVGID_34_);fill:none;stroke:#FFFFFF;stroke-width:2;stroke-miterlimit:10;}
	.st20{clip-path:url(#SVGID_36_);fill:none;stroke:#EA227A;stroke-width:1;stroke-miterlimit:9.9999;}
</style>
<g id="BACKGROUND">
</g>
<g id="OBJECTS">
	<g>
		<g>
			<defs>
				<rect id="SVGID_1_" x="-1.6" width="1282.8" height="501.8"/>
			</defs>
			<clipPath id="SVGID_2_">
				<use xlink:href="#SVGID_1_"  style="overflow:visible;"/>
			</clipPath>
			<rect x="-25.6" y="-298.6" class="st0" width="1322.7" height="812.6"/>
		</g>
		<g>
			<defs>
				<rect id="SVGID_3_" x="-1.6" width="1282.8" height="501.8"/>
			</defs>
			<clipPath id="SVGID_4_">
				<use xlink:href="#SVGID_3_"  style="overflow:visible;"/>
			</clipPath>
			<g class="st1">
				
					<linearGradient id="SVGID_5_" gradientUnits="userSpaceOnUse" x1="1057.3292" y1="956.28" x2="-299.9889" y2="364.7477" gradientTransform="matrix(1 0 0 -1 0 502)">
					<stop  offset="0" style="stop-color:#000000;stop-opacity:0"/>
					<stop  offset="0.2069" style="stop-color:#040404;stop-opacity:0.2069"/>
					<stop  offset="0.4104" style="stop-color:#101010;stop-opacity:0.4104"/>
					<stop  offset="0.6126" style="stop-color:#242424;stop-opacity:0.6126"/>
					<stop  offset="0.8127" style="stop-color:#3F3F3F;stop-opacity:0.8127"/>
					<stop  offset="1" style="stop-color:#606060"/>
				</linearGradient>
				<path class="st2" d="M-34-191.9v355.8c49.2,7,100.1,4.3,148.8-6c82-17.5,158.5-55.6,228.8-101.2C441.5-7,532.1-87.1,644-120.6
					c54.7-16.4,113.1-21,165.4-44c15.7-6.9,31-16.2,44.6-27.4L-34-191.9z"/>
			</g>
		</g>
		<g>
			<defs>
				<rect id="SVGID_6_" x="-1.6" width="1282.8" height="501.8"/>
			</defs>
			<clipPath id="SVGID_7_">
				<use xlink:href="#SVGID_6_"  style="overflow:visible;"/>
			</clipPath>
			<g class="st3">
				<g>
					
						<linearGradient id="SVGID_8_" gradientUnits="userSpaceOnUse" x1="561.6354" y1="809.3111" x2="202.3618" y2="177.7174" gradientTransform="matrix(1 0 0 -1 0 502)">
						<stop  offset="0" style="stop-color:#000000;stop-opacity:0"/>
						<stop  offset="0.1486" style="stop-color:#272727;stop-opacity:0.1486"/>
						<stop  offset="0.3013" style="stop-color:#474747;stop-opacity:0.3013"/>
						<stop  offset="0.4597" style="stop-color:#606060;stop-opacity:0.4597"/>
						<stop  offset="0.6243" style="stop-color:#727272;stop-opacity:0.6243"/>
						<stop  offset="0.7989" style="stop-color:#7D7D7D;stop-opacity:0.7989"/>
						<stop  offset="1" style="stop-color:#808080"/>
					</linearGradient>
					<path class="st4" d="M-22.4,196.4c30.2,8,60.8,13.1,92,13.8c29.9,0.6,59.9-3,89-9.8c29.9-7,58.3-17.7,86.6-29.4
						c25.6-10.6,50.6-22.8,74.7-36.5c48.8-27.9,93.9-62,134.9-100.4c5.3-4.9,10.4-9.9,15.6-14.9c5.8-5.7,12-10.6,18.4-15.6
						c2.8-2.3,5.7-4.6,8.5-6.8c2.6-2.1,4-4.2,6-6.9c2.5-3.4,6.5-6.1,9.8-8.8c3.2-2.7,6.4-5.4,9.5-8.1c24-20.4,48.2-40.7,72.7-60.6
						c12.3-10,25.6-18.5,39.2-26.6c13.6-8,27.3-16,41.1-23.4c27.8-14.9,58.2-24.2,88.2-33.5c7.6-2.3,15.1-4.7,22.6-7.1
						c0.8-0.2,0.4-1.5-0.3-1.2c-30,9.6-60.5,18.1-89.5,30.4c-13.6,5.7-26.5,12.9-39.2,20.4c-13.2,7.8-26.8,15.1-39.7,23.4
						s-24.5,17.8-36.4,27.5c-11.9,9.8-23.8,19.7-35.6,29.6c-12.2,10.3-24.4,20.6-36.6,31c-2.4,2.1-5.1,4-6.9,6.5
						c-1.1,1.5-2,3.3-3.4,4.7s-3.3,2.6-4.9,3.9c-6.3,5-12.8,9.9-18.9,15.1c-5.4,4.7-10.4,10.1-15.6,15.1
						c-5.2,4.9-10.4,9.8-15.7,14.6c-10.5,9.5-21.3,18.7-32.4,27.7c-22,17.8-45,34.2-68.9,49.2c-23.8,14.9-48.5,28.3-73.9,40
						c-27.3,12.6-55.3,24.1-84.1,32.7c-29.4,8.8-59.7,14.7-90.4,16.4c-31.4,1.7-62.8-1.2-93.5-7.8c-7.6-1.6-15.1-3.5-22.7-5.5
						C-22.9,194.9-23.2,196.2-22.4,196.4L-22.4,196.4z"/>
				</g>
			</g>
		</g>
		<g>
			<defs>
				<rect id="SVGID_9_" x="-1.6" width="1282.8" height="501.8"/>
			</defs>
			<clipPath id="SVGID_10_">
				<use xlink:href="#SVGID_9_"  style="overflow:visible;"/>
			</clipPath>
			<g class="st5">
				<g>
					
						<linearGradient id="SVGID_11_" gradientUnits="userSpaceOnUse" x1="1326.9546" y1="569.6002" x2="956.1183" y2="-82.3205" gradientTransform="matrix(1 0 0 -1 0 502)">
						<stop  offset="0" style="stop-color:#000000;stop-opacity:0"/>
						<stop  offset="0.1486" style="stop-color:#272727;stop-opacity:0.1486"/>
						<stop  offset="0.3013" style="stop-color:#474747;stop-opacity:0.3013"/>
						<stop  offset="0.4597" style="stop-color:#606060;stop-opacity:0.4597"/>
						<stop  offset="0.6243" style="stop-color:#727272;stop-opacity:0.6243"/>
						<stop  offset="0.7989" style="stop-color:#7D7D7D;stop-opacity:0.7989"/>
						<stop  offset="1" style="stop-color:#808080"/>
					</linearGradient>
					<path class="st6" d="M816.9,505.3c5.2-54.9,24.2-107.9,54.7-153.8c7.9-11.9,16.6-22.8,25.7-33.7c4.4-5.3,8.4-11,13.3-16
						c4.9-5.1,9.7-10.2,14.7-15.1c19.6-19.7,40.4-38.2,64-53c2.6-1.6,5.2-3.2,7.9-4.8c3-1.7,6.5-3.1,9.2-5.1
						c1.2-0.9,2.2-2.3,3.3-3.3c1.4-1.4,3-2.4,4.7-3.4c3.4-2,6.7-4,10.1-5.9c12.5-7.2,25.2-13.9,38.1-20.3
						c26-12.9,52.7-24.2,79.9-34.3c26.7-10,53.7-18.9,80.9-27.3c13.7-4.2,27.5-8.3,41.3-12.3c14.3-4.2,28.8-7.7,43.1-11.9
						c7.3-2.2,14.5-4.5,21.6-7.2c3.6-1.3,7.5-3.6,11.3-3.9c3.3-0.2,6,0.2,9.1-1c14.8-5.6,29.5-11.3,44.2-17
						c13.9-5.4,28.1-10.3,41.7-16.6c13.5-6.2,26.5-13.3,39.3-20.7c2.9-1.7,5.5-3.2,7.9-5.5c2.7-2.5,5.5-4.5,9.1-5.7
						c0.8-0.2,0.4-1.4-0.3-1.2c-6.2,2-10.1,7.1-15.6,10.3c-6.6,3.8-13.3,7.6-20,11.2c-13.9,7.4-28,13.9-42.7,19.4
						c-14.7,5.6-29.4,11.3-44.1,17c-3.7,1.4-7.4,2.8-11.1,4.2c-3.8,1.4-8.2,3.8-12.2,4.2c-2.8,0.3-5.7-0.5-8.4,0.5
						c-3.9,1.5-7.7,3.1-11.6,4.5c-14.4,5.2-29.2,8.9-44,12.9c-14.1,3.8-28.2,8.2-42.2,12.4c-27.7,8.3-55.4,17.1-82.6,26.8
						c-26.8,9.6-53.2,20.2-79,32.2c-13.3,6.2-26.5,12.8-39.4,19.8c-6.5,3.5-12.9,7.1-19.2,10.8c-2.9,1.7-6.4,3.3-9.1,5.4
						c-1.2,1-2.2,2.3-3.4,3.3c-1.7,1.6-3.6,2.6-5.6,3.7c-23.8,13-45.2,30-64.8,48.6c-10.2,9.7-20.5,19.6-29.8,30.2
						c-4.7,5.3-8.7,11.3-13.5,16.5c-4.5,4.9-8.6,10.3-12.5,15.7C848.3,380,826.3,431.7,818,486c-1,6.4-1.7,12.8-2.3,19.2
						C815.6,506.1,816.8,506.1,816.9,505.3L816.9,505.3z"/>
				</g>
			</g>
		</g>
		<g>
			<defs>
				<rect id="SVGID_12_" x="-1.6" width="1282.8" height="501.8"/>
			</defs>
			<clipPath id="SVGID_13_">
				<use xlink:href="#SVGID_12_"  style="overflow:visible;"/>
			</clipPath>
			<g class="st7">
				
					<linearGradient id="SVGID_14_" gradientUnits="userSpaceOnUse" x1="861.0226" y1="897.7438" x2="-106.827" y2="510.563" gradientTransform="matrix(1 0 0 -1 0 502)">
					<stop  offset="0" style="stop-color:#000000;stop-opacity:0"/>
					<stop  offset="0.2217" style="stop-color:#040404;stop-opacity:0.2217"/>
					<stop  offset="0.4213" style="stop-color:#0F0F0F;stop-opacity:0.4213"/>
					<stop  offset="0.6124" style="stop-color:#212121;stop-opacity:0.6124"/>
					<stop  offset="0.7983" style="stop-color:#3B3B3B;stop-opacity:0.7983"/>
					<stop  offset="0.9788" style="stop-color:#5C5C5C;stop-opacity:0.9788"/>
					<stop  offset="1" style="stop-color:#606060"/>
				</linearGradient>
				<path class="st8" d="M-34-226.4V-1.3c16.3,15.9,35.3,29.1,55.8,38.8c53.4,25.2,115.5,28.3,173.3,16s111.6-39.1,161.1-71.3
					C425.2-62.6,489-119,567.7-142.6c38.5-11.5,79.6-14.8,116.4-31c24.5-10.7,47.4-29.7,59.2-52.9L-34-226.4z"/>
			</g>
		</g>
		<g>
			<defs>
				<rect id="SVGID_15_" x="-1.6" width="1282.8" height="501.8"/>
			</defs>
			<clipPath id="SVGID_16_">
				<use xlink:href="#SVGID_15_"  style="overflow:visible;"/>
			</clipPath>
			<g class="st9">
				
					<linearGradient id="SVGID_17_" gradientUnits="userSpaceOnUse" x1="1741.6283" y1="3805.7202" x2="767.1656" y2="2092.6399" gradientTransform="matrix(-1 0 0 1 2104.7573 -2260.6274)">
					<stop  offset="0" style="stop-color:#000000;stop-opacity:0"/>
					<stop  offset="0.2217" style="stop-color:#040404;stop-opacity:0.2217"/>
					<stop  offset="0.4213" style="stop-color:#0F0F0F;stop-opacity:0.4213"/>
					<stop  offset="0.6124" style="stop-color:#212121;stop-opacity:0.6124"/>
					<stop  offset="0.7983" style="stop-color:#3B3B3B;stop-opacity:0.7983"/>
					<stop  offset="0.9788" style="stop-color:#5C5C5C;stop-opacity:0.9788"/>
					<stop  offset="1" style="stop-color:#606060"/>
				</linearGradient>
				<path class="st10" d="M1441.8,83.5c-23.4,2.2-46.7,5.8-69.6,10.7c-109.2,23.2-210.9,74-304.6,134.8
					c-130.4,84.6-251,191.3-399.9,235.9c-72.9,21.8-150.5,28-220.2,58.6c-0.5,0.2-1.1,0.5-1.6,0.7h995.9V83.5z"/>
			</g>
		</g>
		<g>
			<defs>
				<rect id="SVGID_18_" x="-1.6" width="1282.8" height="501.8"/>
			</defs>
			<clipPath id="SVGID_19_">
				<use xlink:href="#SVGID_18_"  style="overflow:visible;"/>
			</clipPath>
			<g class="st11">
				
					<linearGradient id="SVGID_20_" gradientUnits="userSpaceOnUse" x1="1627.4668" y1="3678.2349" x2="800.375" y2="2224.2288" gradientTransform="matrix(-1 0 0 1 2104.7573 -2260.6274)">
					<stop  offset="0" style="stop-color:#000000;stop-opacity:0"/>
					<stop  offset="0.2217" style="stop-color:#040404;stop-opacity:0.2217"/>
					<stop  offset="0.4213" style="stop-color:#0F0F0F;stop-opacity:0.4213"/>
					<stop  offset="0.6124" style="stop-color:#212121;stop-opacity:0.6124"/>
					<stop  offset="0.7983" style="stop-color:#3B3B3B;stop-opacity:0.7983"/>
					<stop  offset="0.9788" style="stop-color:#5C5C5C;stop-opacity:0.9788"/>
					<stop  offset="1" style="stop-color:#606060"/>
				</linearGradient>
				<path class="st12" d="M1441.8,156.5c-47.7-4-96.4-0.4-143.3,9.6c-92.7,19.7-179,62.8-258.5,114.4
					c-110.7,71.8-213,162.3-339.4,200.2c-56.5,16.9-116.3,22.8-171.3,43.4h912.5V156.5z"/>
			</g>
		</g>
		<g>
			<defs>
				
					<rect id="SVGID_21_" x="381.3" y="283" transform="matrix(0.4142 -0.9102 0.9102 0.4142 113.1587 1243.5819)" width="1282.8" height="501.8"/>
			</defs>
			<clipPath id="SVGID_22_">
				<use xlink:href="#SVGID_21_"  style="overflow:visible;"/>
			</clipPath>
			
				<ellipse transform="matrix(0.7071 -0.7071 0.7071 0.7071 240.74 770.9999)" class="st13" cx="1051" cy="94.9" rx="49.7" ry="49.7"/>
		</g>
		<g>
			<defs>
				<rect id="SVGID_23_" x="-1.6" width="1282.8" height="501.8"/>
			</defs>
			<clipPath id="SVGID_24_">
				<use xlink:href="#SVGID_23_"  style="overflow:visible;"/>
			</clipPath>
			<circle class="st14" cx="66.2" cy="90.4" r="4.3"/>
		</g>
		<g>
			<defs>
				
					<rect id="SVGID_25_" x="2.5" y="13.9" transform="matrix(0.9996 -2.700729e-02 2.700729e-02 0.9996 -6.9169 17.4863)" width="1282.8" height="501.8"/>
			</defs>
			<clipPath id="SVGID_26_">
				<use xlink:href="#SVGID_25_"  style="overflow:visible;"/>
			</clipPath>
			<ellipse class="st15" cx="1157.1" cy="105.6" rx="7.5" ry="7.5"/>
		</g>
		<g>
			<defs>
				<rect id="SVGID_27_" x="-1.6" width="1282.8" height="501.8"/>
			</defs>
			<clipPath id="SVGID_28_">
				<use xlink:href="#SVGID_27_"  style="overflow:visible;"/>
			</clipPath>
			<path class="st16" d="M1143.6,418.3c0,2.1-1.7,3.7-3.7,3.7c-2.1,0-3.7-1.7-3.7-3.7c0-2.1,1.7-3.7,3.7-3.7
				C1141.9,414.6,1143.6,416.3,1143.6,418.3z"/>
		</g>
		<g>
			<defs>
				<rect id="SVGID_29_" x="-1.6" width="1282.8" height="501.8"/>
			</defs>
			<clipPath id="SVGID_30_">
				<use xlink:href="#SVGID_29_"  style="overflow:visible;"/>
			</clipPath>
			<circle class="st17" cx="358.1" cy="196.3" r="3.7"/>
		</g>
		<g>
			<defs>
				<rect id="SVGID_31_" x="-1.6" width="1282.8" height="501.8"/>
			</defs>
			<clipPath id="SVGID_32_">
				<use xlink:href="#SVGID_31_"  style="overflow:visible;"/>
			</clipPath>
			<line class="st18" x1="709" y1="-37.7" x2="587.8" y2="83.5"/>
		</g>
		<g>
			<defs>
				<rect id="SVGID_33_" x="-1.6" width="1282.8" height="501.8"/>
			</defs>
			<clipPath id="SVGID_34_">
				<use xlink:href="#SVGID_33_"  style="overflow:visible;"/>
			</clipPath>
			<line class="st19" x1="1185.2" y1="306.3" x2="955.4" y2="536.1"/>
		</g>
		<g>
			<defs>
				<polygon id="SVGID_35_" points="-294.9,288.6 612.2,-618.5 332.6,501 65.4,501.3 				"/>
			</defs>
			<clipPath id="SVGID_36_">
				<use xlink:href="#SVGID_35_"  style="overflow:visible;"/>
			</clipPath>
			<ellipse class="st20" cx="200.1" cy="498.3" rx="116.5" ry="116.5"/>
		</g>
	</g>
</g>
</svg>
