<?xml version="1.0" encoding="utf-8"?>
<!-- Generator: Adobe Illustrator 23.1.1, SVG Export Plug-In . SVG Version: 6.00 Build 0)  -->
<svg version="1.1" id="Layer_1" focusable="false" xmlns="http://www.w3.org/2000/svg" xmlns:xlink="http://www.w3.org/1999/xlink"
	 x="0px" y="0px" viewBox="0 0 512 384" style="enable-background:new 0 0 512 384;" xml:space="preserve">
<style type="text/css">
	.st0{fill:#19A206;}
	.st1{fill:#001161;}
</style>
<g>
	<path class="st0" d="M197,101.1c-1.2-3.1-4.2-5.1-7.5-5.1h-27c-3.3,0-6.3,2-7.5,5.1l-67.7,176c-2,5.2,1.8,10.9,7.5,10.9H112
		c3.3,0,6.3-2,7.5-5.1l22.7-58.9h67.9l22.6,58.9c1.2,3.1,4.2,5.1,7.5,5.1h17.1c5.6,0,9.5-5.6,7.5-10.9L197,101.1z M154.4,192
		l21.6-56.2l21.6,56.2H154.4z"/>
	<path class="st0" d="M408,96h-16c-4.4,0-8,3.6-8,8v64.9c-9.5-5.5-20.3-8.9-32-8.9c-35.4,0-64,28.6-64,64c0,35.4,28.6,64,64,64
		c11.7,0,22.5-3.4,32-8.9v0.9c0,4.4,3.6,8,8,8h16c4.4,0,8-3.6,8-8V104C416,99.6,412.4,96,408,96z M352,256c-17.6,0-32-14.4-32-32
		c0-17.6,14.4-32,32-32c17.6,0,32,14.4,32,32C384,241.6,369.6,256,352,256z"/>
	<path class="st1" d="M464,0H48C21.5,0,0,21.5,0,48v288c0,26.5,21.5,48,48,48h416c26.5,0,48-21.5,48-48V48C512,21.5,490.5,0,464,0z
		 M480,336c0,8.8-7.2,16-16,16H48c-8.8,0-16-7.2-16-16V48c0-8.8,7.2-16,16-16h416c8.8,0,16,7.2,16,16V336z"/>
</g>
</svg>
