<?xml version="1.0" encoding="utf-8"?>
<!-- Generator: Adobe Illustrator 23.1.1, SVG Export Plug-In . SVG Version: 6.00 Build 0)  -->
<svg version="1.1" id="Layer_1" focusable="false" xmlns="http://www.w3.org/2000/svg" xmlns:xlink="http://www.w3.org/1999/xlink"
	 x="0px" y="0px" viewBox="0 0 576 512" style="enable-background:new 0 0 576 512;" xml:space="preserve">
<style type="text/css">
	.st0{fill:#11175C;}
	.st1{fill:#19A206;}
</style>
<g>
	<path class="st0" d="M368,80c-35.3,0-64,28.7-64,64s28.7,64,64,64s64-28.7,64-64S403.3,80,368,80z M368,176c-17.7,0-32-14.3-32-32
		s14.3-32,32-32s32,14.3,32,32S385.7,176,368,176z"/>
	<path class="st0" d="M176,80c-35.3,0-64,28.7-64,64s28.7,64,64,64s64-28.7,64-64S211.3,80,176,80z M176,176c-17.7,0-32-14.3-32-32
		s14.3-32,32-32s32,14.3,32,32S193.7,176,176,176z"/>
	<path class="st1" d="M550.3,256c-5.2,0-10.3,1.6-14.6,4.6l-87.7,61V304c0-12.3-4.8-24.2-13.3-33.1C480.4,246.8,512,199.3,512,144
		C512,64.5,447.5,0,368,0c-37,0-70.5,14.4-96,37.4C246.5,14.4,213.1,0,176,0C96.5,0,32,64.5,32,144c0,45.5,21.5,85.6,54.5,112H32
		c-17.7,0-32,14.3-32,32v32c0,17.7,14.3,32,32,32h64v112c0,26.5,21.5,48,48,48h256c26.5,0,48-21.5,48-48v-17.5l87.7,60.9
		c4.3,3,9.4,4.6,14.6,4.6c13.3,0,25.7-10.4,25.7-25.2V281.2C576,266.4,563.6,256,550.3,256z M416,464c0,8.8-7.2,16-16,16H144
		c-8.8,0-16-7.2-16-16V320H32v-32h368c8.8,0,16,7.2,16,16V464z M368,256H176c-61.9,0.4-112.3-49.4-112.8-111.2
		C62.8,82.9,112.6,32.4,174.4,32c28.1-0.2,55.3,10.2,76.1,29.1L272,80.4l21.4-19.3c45.9-41.3,116.6-37.6,157.9,8.3
		c41.3,45.9,37.6,116.6-8.3,157.9C422.4,245.8,395.7,256.1,368,256z M544,474.2l-96-66.7v-47l96-66.7V474.2z"/>
</g>
</svg>
