<?xml version="1.0" encoding="utf-8"?>
<!-- Generator: Adobe Illustrator 23.1.1, SVG Export Plug-In . SVG Version: 6.00 Build 0)  -->
<svg version="1.1" id="Layer_1" focusable="false" xmlns="http://www.w3.org/2000/svg" xmlns:xlink="http://www.w3.org/1999/xlink"
	 x="0px" y="0px" viewBox="0 0 512 512" style="enable-background:new 0 0 512 512;" xml:space="preserve">
<style type="text/css">
	.st0{fill:#808080;}
</style>
<path class="st0" d="M504,112c0-22.1-17.9-40-40-40H48C25.9,72,8,89.9,8,112v288c0,22.1,17.9,40,40,40h416c22.1,0,40-17.9,40-40V112
	z M488,195v205c0,13.2-10.8,24-24,24H48c-13.2,0-24-10.8-24-24V195v-16.9l13.1,10.7c24.3,19.9,63.4,51.2,130.6,104.6
	c3.2,2.5,6.6,5.5,10.3,8.6c19.7,16.7,49.6,42,77.7,42l0.3,0l0.1,0l0.1,0l0.4,0c27.9,0,56.5-24.2,77.3-41.8c3.8-3.2,7.3-6.2,10.5-8.7
	c67.3-53.4,106.3-84.7,130.6-104.6l13.1-10.7V195z M488,153.4v3.7l-2.8,2.4C463.1,178.2,431.3,204,334.4,281
	c-2.8,2.2-6.3,5.1-9.9,8.2c-19.4,16.4-46,38.8-68,38.8c-0.1,0-0.3,0-0.4,0c-0.1,0-0.3,0-0.4,0c-22.2,0-48.9-22.6-68.4-39.1
	c-3.5-3-6.8-5.8-9.6-8C80.7,204,48.9,178.2,26.8,159.5l-2.8-2.4v-3.7V112c0-13.2,10.8-24,24-24h416c13.2,0,24,10.8,24,24V153.4z"/>
</svg>
