<?xml version="1.0" encoding="utf-8"?>
<!-- Generator: Adobe Illustrator 24.2.1, SVG Export Plug-In . SVG Version: 6.00 Build 0)  -->
<svg version="1.1" id="Layer_1" xmlns="http://www.w3.org/2000/svg" xmlns:xlink="http://www.w3.org/1999/xlink" x="0px" y="0px"
	 viewBox="0 0 394.1 386.7" style="enable-background:new 0 0 394.1 386.7;" xml:space="preserve">
<style type="text/css">
	.st0{fill:#41464B;}
	.st1{fill:#C6CEDB;}
	.st2{fill:#FFFFFF;}
	.st3{fill:#0D1342;}
	.st4{fill:#FBFBFD;}
	.st5{fill:#C6CED8;}
	.st6{fill:#19A206;}
</style>
<g>
	<g>
		<g>
			<g>
				<path class="st0" d="M81.9,171.6l-3.2-1.5c0.4-0.7,0.8-1.4,1.4-2.1l2.6,2.3C82.4,170.7,82.1,171.1,81.9,171.6z"/>
				<path class="st0" d="M370.5,306.4c-0.2-1-0.6-2.2-1.2-3.4l3.2-1.5c0.7,1.4,1.1,2.8,1.4,4.1L370.5,306.4z M367.5,299.7
					c-0.6-1-1.4-2-2.2-3.1l2.8-2.1c0.9,1.2,1.7,2.3,2.3,3.4L367.5,299.7z M363,293.6c-0.8-0.9-1.7-1.9-2.6-2.9l2.6-2.4
					c1,1,1.9,2,2.7,3L363,293.6z M357.6,287.9c-0.9-0.9-1.8-1.8-2.8-2.7l2.4-2.5c1,1,2,1.9,2.9,2.8L357.6,287.9z M351.9,282.5
					c-1-0.9-1.9-1.7-3-2.6l2.3-2.6c1,0.9,2,1.8,3,2.6L351.9,282.5z M346,277.4c-1-0.8-2-1.6-3-2.5l2.2-2.7c1.1,0.9,2.1,1.7,3.1,2.5
					L346,277.4z M339.8,272.5c-1-0.8-2.1-1.6-3.1-2.4l2.1-2.8c1.1,0.8,2.1,1.6,3.2,2.4L339.8,272.5z M333.5,267.7
					c-1-0.8-2.1-1.5-3.2-2.3l2-2.8c1.1,0.8,2.2,1.6,3.2,2.4L333.5,267.7z M327.1,263.1c-1.1-0.8-2.1-1.5-3.2-2.3l2-2.9
					c1.1,0.8,2.2,1.5,3.3,2.3L327.1,263.1z M320.6,258.6c-1.1-0.7-2.2-1.5-3.3-2.2l1.9-2.9c1.1,0.7,2.2,1.5,3.3,2.2L320.6,258.6z
					 M314,254.2c-1.1-0.7-2.2-1.4-3.3-2.1l1.9-2.9c1.1,0.7,2.2,1.4,3.3,2.2L314,254.2z M307.4,250c-1.1-0.7-2.2-1.4-3.4-2.1l1.9-3
					c1.1,0.7,2.3,1.4,3.4,2.1L307.4,250z M300.7,245.8c-1.1-0.7-2.2-1.4-3.4-2.1l1.8-3c1.1,0.7,2.3,1.4,3.4,2.1L300.7,245.8z
					 M293.9,241.7c-1.1-0.7-2.3-1.3-3.4-2l1.8-3c1.1,0.7,2.3,1.3,3.4,2L293.9,241.7z M287.1,237.7c-1.1-0.7-2.3-1.3-3.4-2l1.7-3
					c1.2,0.7,2.3,1.3,3.5,2L287.1,237.7z M280.2,233.8c-1.1-0.6-2.3-1.3-3.5-1.9l1.7-3.1c1.2,0.6,2.3,1.3,3.5,1.9L280.2,233.8z
					 M273.3,230c-1.1-0.6-2.3-1.3-3.5-1.9l1.7-3.1c1.2,0.6,2.3,1.3,3.5,1.9L273.3,230z M266.3,226.3c-1.2-0.6-2.3-1.2-3.5-1.9
					l1.6-3.1c1.2,0.6,2.4,1.2,3.5,1.9L266.3,226.3z M259.3,222.6c-1.2-0.6-2.3-1.2-3.5-1.8l1.6-3.1c1.2,0.6,2.4,1.2,3.5,1.8
					L259.3,222.6z M252.3,219c-1.2-0.6-2.4-1.2-3.5-1.8l1.6-3.1c1.2,0.6,2.4,1.2,3.6,1.8L252.3,219z M245.2,215.4
					c-1.2-0.6-2.4-1.2-3.6-1.7l1.5-3.1c1.2,0.6,2.4,1.2,3.6,1.8L245.2,215.4z M238.1,212c-1.2-0.6-2.4-1.1-3.6-1.7l1.5-3.2
					c1.2,0.6,2.4,1.1,3.6,1.7L238.1,212z M230.9,208.6c-1.2-0.6-2.4-1.1-3.6-1.7l1.5-3.2c1.2,0.6,2.4,1.1,3.6,1.7L230.9,208.6z
					 M223.7,205.3c-1.2-0.6-2.4-1.1-3.6-1.6l1.4-3.2c1.2,0.5,2.4,1.1,3.6,1.6L223.7,205.3z M216.5,202c-1.2-0.5-2.4-1.1-3.6-1.6
					l1.4-3.2c1.2,0.5,2.4,1.1,3.6,1.6L216.5,202z M209.3,198.8c-1.2-0.5-2.4-1-3.6-1.6l1.4-3.2c1.2,0.5,2.4,1,3.7,1.6L209.3,198.8z
					 M202,195.8c-1.2-0.5-2.4-1-3.6-1.5l1.3-3.2c1.2,0.5,2.4,1,3.7,1.5L202,195.8z M194.7,192.7c-1.2-0.5-2.4-1-3.7-1.5l1.3-3.3
					c1.2,0.5,2.5,1,3.7,1.5L194.7,192.7z M187.3,189.8c-1.2-0.5-2.5-1-3.7-1.4l1.3-3.3c1.2,0.5,2.5,0.9,3.7,1.4L187.3,189.8z
					 M179.9,187c-1.2-0.5-2.5-0.9-3.7-1.4l1.2-3.3c1.2,0.5,2.5,0.9,3.7,1.4L179.9,187z M172.5,184.3c-1.3-0.4-2.5-0.9-3.7-1.3
					l1.2-3.3c1.2,0.4,2.5,0.9,3.8,1.3L172.5,184.3z M165.1,181.6c-1.3-0.4-2.5-0.9-3.7-1.3l1.1-3.3c1.3,0.4,2.5,0.9,3.8,1.3
					L165.1,181.6z M157.6,179.1c-1.3-0.4-2.5-0.8-3.8-1.2l1.1-3.3c1.3,0.4,2.5,0.8,3.8,1.2L157.6,179.1z M150,176.7
					c-1.3-0.4-2.5-0.8-3.8-1.1l1-3.4c1.3,0.4,2.5,0.8,3.8,1.1L150,176.7z M142.4,174.5c-1.3-0.4-2.6-0.7-3.8-1.1l0.9-3.4
					c1.3,0.3,2.5,0.7,3.8,1.1L142.4,174.5z M134.8,172.4c-1.3-0.3-2.6-0.7-3.8-1l0.8-3.4c1.3,0.3,2.6,0.6,3.9,1L134.8,172.4z
					 M127.2,170.5c-1.3-0.3-2.6-0.6-3.8-0.9l0.7-3.4c1.3,0.3,2.6,0.6,3.9,0.9L127.2,170.5z M119.5,168.9c-1.3-0.3-2.6-0.5-3.9-0.7
					l0.6-3.4c1.3,0.2,2.6,0.5,3.9,0.7L119.5,168.9z M85.3,168.4l-1.5-3.1c1.2-0.6,2.6-1.1,4.1-1.4l0.8,3.4
					C87.4,167.6,86.3,168,85.3,168.4z M111.8,167.6c-1.3-0.2-2.6-0.4-3.9-0.5l0.4-3.5c1.3,0.1,2.6,0.3,4,0.5L111.8,167.6z
					 M104,166.7c-1.3-0.1-2.6-0.2-3.9-0.2l0.1-3.5c1.3,0.1,2.7,0.1,4,0.2L104,166.7z M92.4,166.6l-0.4-3.5c1.3-0.1,2.7-0.2,4.1-0.3
					l0.1,3.5C94.9,166.4,93.6,166.5,92.4,166.6z"/>
				<path class="st0" d="M373.4,312.6l-3.1-1.5c0.2-0.5,0.4-0.9,0.5-1.4l3.5,0.6C374,311,373.7,311.8,373.4,312.6z"/>
			</g>
		</g>
		<path class="st0" d="M100.6,285.1l-2.7-2.3c20-23.3,47.6-50.1,77.6-75.5c64.7-54.7,140.1-101.3,154.3-84.5l-2.7,2.3
			c-9.9-11.7-72.2,19.7-149.4,84.9C147.9,235.3,120.5,262,100.6,285.1z"/>
		<path class="st0" d="M66.7,345.5c-4.6-5.4-2-16,7.6-31.4l3,1.9c-8.5,13.6-11.3,23.3-7.9,27.3L66.7,345.5z"/>
		<g>
			<path class="st0" d="M264.4,343.5h-128c-7.6,0-13.8-6.2-13.8-13.8v-251c0-7.6,6.2-13.8,13.8-13.8h118v3.5h-118
				c-5.6,0-10.3,4.6-10.3,10.3v251c0,5.6,4.6,10.3,10.3,10.3h128c5.6,0,10.3-4.6,10.3-10.3v-241h3.5v241
				C278.1,337.3,272,343.5,264.4,343.5z"/>
			<rect x="124.4" y="104.2" class="st1" width="152" height="200"/>
			<path class="st0" d="M278.1,306H122.6V102.5h155.5V306z M126.2,302.5h148.5V106H126.1C126.1,106,126.1,302.5,126.2,302.5z"/>
			<path class="st0" d="M217.9,329.7h-35c-3.7,0-6.8-3-6.8-6.8s3-6.8,6.8-6.8h35c3.7,0,6.8,3,6.8,6.8S221.6,329.7,217.9,329.7z
				 M182.9,319.7c-1.8,0-3.3,1.5-3.3,3.3s1.5,3.3,3.3,3.3h35c1.8,0,3.3-1.5,3.3-3.3s-1.5-3.3-3.3-3.3H182.9z"/>
			<rect x="188.9" y="83.7" class="st0" width="23" height="3.5"/>
			<path class="st0" d="M156.6,91.2c-3.2,0-5.8-2.6-5.8-5.8s2.6-5.8,5.8-5.8s5.8,2.6,5.8,5.8S159.8,91.2,156.6,91.2z M156.6,83.2
				c-1.2,0-2.3,1-2.3,2.3s1,2.3,2.3,2.3s2.3-1,2.3-2.3S157.9,83.2,156.6,83.2z"/>
		</g>
		<path class="st0" d="M354.5,319.7c-10.7,0-24.2-2.6-36-5.6c-30.4-7.7-68.6-22.3-107.6-41.2c-39-18.9-74.2-39.8-99.1-58.8
			c-18.1-13.8-38.4-32.7-32.9-44.1l3.2,1.5c-3.4,7,8.5,21.9,31.9,39.8c24.7,18.9,59.7,39.7,98.5,58.5s76.8,33.3,107,40.9
			c28.5,7.2,47.6,7.3,51,0.3l3.1,1.5C370.9,317.8,363.6,319.7,354.5,319.7z"/>
		<path class="st0" d="M76.2,349c-4.1,0-7.5-1.1-9.6-3.5l2.7-2.3c5,5.9,24.2,0.4,51.2-14.7c28.6-16,63.4-40.9,98.1-70.3
			C295.8,193,337,136.7,327.1,125.1l2.7-2.3c14.2,16.8-44.2,83.4-108.9,138.2c-34.9,29.5-69.9,54.6-98.7,70.7
			C106.8,340.3,88.1,349,76.2,349z"/>
		<g>
			<circle class="st2" cx="200.4" cy="165.2" r="38.5"/>
			<g>
				<g>
					
						<rect x="174.2" y="163.5" transform="matrix(0.7071 -0.7071 0.7071 0.7071 -58.1351 190.0965)" class="st0" width="52.3" height="3.5"/>
					<g>
						<path class="st0" d="M211.9,185.5c-4.8,0-8.7-3.9-8.7-8.7s3.9-8.7,8.7-8.7s8.7,3.9,8.7,8.7S216.7,185.5,211.9,185.5z
							 M211.9,171.5c-2.9,0-5.2,2.3-5.2,5.2s2.4,5.2,5.2,5.2c2.9,0,5.2-2.4,5.2-5.2C217.1,173.9,214.8,171.5,211.9,171.5z"/>
						<path class="st0" d="M188.9,162.4c-4.8,0-8.7-3.9-8.7-8.7s3.9-8.7,8.7-8.7s8.7,3.9,8.7,8.7S193.7,162.4,188.9,162.4z
							 M188.9,148.5c-2.9,0-5.2,2.3-5.2,5.2s2.4,5.2,5.2,5.2s5.2-2.4,5.2-5.2C194.1,150.8,191.8,148.5,188.9,148.5z"/>
					</g>
				</g>
			</g>
		</g>
		<g>
			<g>
				<rect x="187.1" y="217.4" class="st0" width="38.3" height="3.5"/>
				<rect x="175.4" y="227.4" class="st0" width="38.3" height="3.5"/>
			</g>
		</g>
		<g>
			<g>
				<circle class="st3" cx="68.8" cy="100.6" r="37.5"/>
				<polygon class="st3" points="106.3,145.3 106.3,100.6 61.5,100.6 				"/>
			</g>
			<g>
				<g>
					<polygon class="st4" points="83.3,110.8 61.7,110.8 53.5,85 46.8,85 46.8,81.5 56,81.5 64.3,107.3 80.8,107.3 84.4,95.9 
						65.6,95.9 65.6,92.4 89.2,92.4 					"/>
					<rect x="68" y="99.8" class="st4" width="16.4" height="3.5"/>
					<path class="st4" d="M66,116.8c0,1.7-1.3,3-3,3c-1.7,0-3-1.3-3-3s1.3-3,3-3C64.7,113.8,66,115.2,66,116.8z"/>
					<path class="st4" d="M85,116.8c0,1.7-1.3,3-3,3c-1.7,0-3-1.3-3-3c0-1.7,1.3-3,3-3C83.7,113.8,85,115.2,85,116.8z"/>
				</g>
			</g>
		</g>
		<g>
			<g>
				<polygon class="st0" points="319.4,224.7 298.5,224.7 298.5,203.8 308.9,203.8 308.9,207.3 302,207.3 302,221.2 315.9,221.2 
					315.9,214.2 319.4,214.2 				"/>
				
					<rect x="306.8" y="207.4" transform="matrix(0.7071 -0.7071 0.7071 0.7071 -55.8718 283.3138)" class="st0" width="14.5" height="3.5"/>
			</g>
		</g>
		<g>
			<g>
				<g>
					<rect x="274.6" y="60.3" class="st0" width="3.5" height="12.9"/>
					<rect x="270" y="65" class="st0" width="12.9" height="3.5"/>
				</g>
				<path class="st0" d="M276.4,83c-9,0-16.3-7.3-16.3-16.3s7.3-16.3,16.3-16.3s16.3,7.3,16.3,16.3S285.4,83,276.4,83z M276.4,54
					c-7,0-12.8,5.7-12.8,12.8s5.7,12.8,12.8,12.8s12.8-5.7,12.8-12.8S283.4,54,276.4,54z"/>
			</g>
		</g>
		<g>
			<circle class="st2" cx="329.7" cy="262.8" r="12.5"/>
			<path class="st0" d="M329.7,277c-7.9,0-14.3-6.4-14.3-14.3s6.4-14.3,14.3-14.3s14.3,6.4,14.3,14.3C344,270.6,337.6,277,329.7,277
				z M329.7,252c-5.9,0-10.8,4.8-10.8,10.8s4.8,10.8,10.8,10.8s10.8-4.8,10.8-10.8S335.6,252,329.7,252z"/>
			<circle class="st5" cx="329.7" cy="262.8" r="5.5"/>
		</g>
		<g>
			<path class="st0" d="M82.8,318.9c-7.9,0-14.3-6.4-14.3-14.3s6.4-14.3,14.3-14.3S97,296.8,97,304.7
				C97,312.5,90.6,318.9,82.8,318.9z M82.8,293.9c-5.9,0-10.8,4.8-10.8,10.8s4.8,10.8,10.8,10.8s10.8-4.8,10.8-10.8
				S88.7,293.9,82.8,293.9z"/>
			<circle class="st3" cx="82.8" cy="304.7" r="5.5"/>
		</g>
		<path class="st0" d="M44.8,204.2c-4.8,0-8.8-3.9-8.8-8.8s3.9-8.8,8.8-8.8s8.8,3.9,8.8,8.8C53.5,200.2,49.6,204.2,44.8,204.2z
			 M44.8,190.2c-2.9,0-5.3,2.4-5.3,5.3s2.4,5.3,5.3,5.3s5.3-2.4,5.3-5.3C50,192.5,47.7,190.2,44.8,190.2z"/>
		<g>
			<g>
				<path class="st3" d="M299,323.7c-8.1,0-14.7,6.6-14.7,14.7c0,3.4,1.2,6.4,3,9c11.7,16.3,11.7,16.3,11.7,16.3s0,0,11.7-16.3
					c1.8-2.5,3-5.6,3-9C313.7,330.3,307.1,323.7,299,323.7z"/>
				<path class="st4" d="M299,346.1c-4.3,0-7.8-3.5-7.8-7.8s3.5-7.8,7.8-7.8s7.8,3.5,7.8,7.8C306.8,342.7,303.3,346.1,299,346.1z
					 M299,334.1c-2.3,0-4.3,1.9-4.3,4.3s1.9,4.3,4.3,4.3s4.3-1.9,4.3-4.3C303.3,336.1,301.4,334.1,299,334.1z"/>
			</g>
			<path class="st0" d="M216,371.5c-4.3,0-7.8-3.5-7.8-7.8s3.5-7.8,7.8-7.8s7.8,3.5,7.8,7.8C223.8,368,220.3,371.5,216,371.5z
				 M216,359.5c-2.3,0-4.3,1.9-4.3,4.3s1.9,4.3,4.3,4.3s4.3-1.9,4.3-4.3C220.3,361.4,218.4,359.5,216,359.5z"/>
			<g>
				<g>
					<rect x="227.3" y="362" class="st0" width="3.5" height="3.5"/>
					<rect x="234.3" y="362" class="st0" width="3.5" height="3.5"/>
					<rect x="241.3" y="362" class="st0" width="3.5" height="3.5"/>
					<rect x="248.3" y="362" class="st0" width="3.5" height="3.5"/>
					<rect x="255.3" y="362" class="st0" width="3.5" height="3.5"/>
					<rect x="262.3" y="362" class="st0" width="3.5" height="3.5"/>
					<rect x="269.3" y="362" class="st0" width="3.5" height="3.5"/>
					<rect x="276.3" y="362" class="st0" width="3.5" height="3.5"/>
					<rect x="283.3" y="362" class="st0" width="3.5" height="3.5"/>
					<rect x="290.3" y="362" class="st0" width="3.5" height="3.5"/>
				</g>
			</g>
		</g>
		<g>
			<rect x="301.6" y="102" class="st6" width="59.9" height="46.1"/>
			<path class="st0" d="M363.2,149.8h-63.4v-49.6h63.4V149.8z M303.3,146.3h56.4v-42.6h-56.4V146.3z"/>
			<path class="st0" d="M352.5,103.7h-10.9V92.9c0-6,4.9-10.8,10.9-10.8s10.9,4.9,10.9,10.8C363.3,98.9,358.5,103.7,352.5,103.7z
				 M345.1,100.2h7.4c4,0,7.4-3.3,7.4-7.3c0-4.1-3.3-7.3-7.4-7.3c-4,0-7.4,3.3-7.4,7.3V100.2z"/>
			<path class="st0" d="M345.1,103.7h-8.2c-4.5,0-8.2-3.7-8.2-8.2s3.7-8.2,8.2-8.2s8.2,3.7,8.2,8.2V103.7z M336.9,90.8
				c-2.6,0-4.7,2.1-4.7,4.7s2.1,4.7,4.7,4.7h4.7v-4.7C341.6,92.9,339.5,90.8,336.9,90.8z"/>
			<rect x="341.6" y="102" class="st0" width="3.5" height="46.1"/>
			<rect x="301.6" y="110.4" class="st0" width="60" height="3.5"/>
			<rect x="301.6" y="136.8" class="st0" width="10.3" height="3.5"/>
			<rect x="315.8" y="136.8" class="st0" width="5.1" height="3.5"/>
		</g>
		<g>
			<ellipse class="st6" cx="41.8" cy="268" rx="21.8" ry="21.8"/>
			<path class="st0" d="M41.8,283.3L41.8,283.3c-1.4,0-2.7-0.2-4-0.5l0.9-3.4c1,0.3,2,0.4,3,0.4L41.8,283.3z M45.7,282.7l-0.9-3.4
				c1-0.3,1.9-0.7,2.8-1.2l1.8,3C48.3,281.9,47,282.4,45.7,282.7z M34.2,281.2c-1.2-0.7-2.2-1.5-3.2-2.4l2.5-2.5
				c0.7,0.7,1.5,1.4,2.4,1.9L34.2,281.2z M52.6,278.8l-2.5-2.5c0.7-0.7,1.4-1.5,1.9-2.4l3,1.8C54.3,276.8,53.5,277.8,52.6,278.8z
				 M28.6,275.6c-0.7-1.1-1.2-2.4-1.5-3.7l3.4-0.9c0.3,1,0.7,1.9,1.2,2.8L28.6,275.6z M56.5,272l-3.4-0.9c0.3-1,0.4-2,0.4-3l3.5,0v0
				C57,269.3,56.8,270.7,56.5,272z M26.5,268L26.5,268c0-1.4,0.2-2.7,0.5-3.9l3.4,0.9c-0.3,1-0.4,2-0.4,3L26.5,268z M53.1,264.9
				c-0.3-1-0.7-1.9-1.2-2.8l3-1.8c0.7,1.1,1.2,2.4,1.5,3.7L53.1,264.9z M31.6,262.2l-3-1.8c0.7-1.1,1.5-2.2,2.4-3.2l2.5,2.5
				C32.7,260.5,32.1,261.3,31.6,262.2z M50,259.7c-0.7-0.7-1.5-1.4-2.4-1.9l1.8-3c1.2,0.7,2.2,1.5,3.2,2.4L50,259.7z M35.9,257.8
				l-1.8-3c1.2-0.7,2.4-1.2,3.7-1.5l0.9,3.4C37.7,256.9,36.8,257.3,35.9,257.8z M44.8,256.6c-1-0.3-2-0.4-3-0.4h-0.1v-3.5v1.8v-1.8
				h0c1.3,0,2.7,0.2,3.9,0.5L44.8,256.6z"/>
		</g>
		<g>
			<g>
				<rect x="334.2" y="226.8" class="st0" width="24.1" height="3.5"/>
				<rect x="334.2" y="234.5" class="st0" width="14.6" height="3.5"/>
			</g>
		</g>
		<g>
			<ellipse class="st3" cx="356.7" cy="191.4" rx="13.9" ry="13.9"/>
			<polygon class="st2" points="354,186.7 362.1,191.4 354,196.1 			"/>
		</g>
		<path class="st1" d="M61,173.2c0,2.8-2.2,5-5,5s-5-2.2-5-5s2.2-5,5-5S61,170.5,61,173.2z"/>
	</g>
</g>
</svg>
