<?xml version="1.0" encoding="utf-8"?>
<!-- Generator: Adobe Illustrator 24.2.1, SVG Export Plug-In . SVG Version: 6.00 Build 0)  -->
<svg version="1.1" id="Layer_1" xmlns="http://www.w3.org/2000/svg" xmlns:xlink="http://www.w3.org/1999/xlink" x="0px" y="0px"
	 viewBox="0 0 394.1 386.7" style="enable-background:new 0 0 394.1 386.7;" xml:space="preserve">
<style type="text/css">
	.st0{fill:#41464B;}
	.st1{fill:#11175C;}
	.st2{fill:#FFFFFF;}
	.st3{fill:#C6CEDB;}
	.st4{fill:#1D7F0F;}
	.st5{fill:#FBFBFD;}
	.st6{fill:#AFAFAF;}
	.st7{fill:#0D1342;}
</style>
<g>
	<g>
		<path class="st0" d="M195.6,304.2h-14v-3.7h14c2,0,3.9-0.8,5.3-2.2c1.4-1.4,2.2-3.3,2.2-5.3s-0.8-3.9-2.2-5.3s-3.3-2.2-5.3-2.2
			h-14v-3.7h14c3,0,5.8,1.2,7.9,3.3c2.1,2.1,3.3,4.9,3.3,7.9s-1.2,5.8-3.3,7.9C201.4,303,198.6,304.2,195.6,304.2z"/>
		<path class="st0" d="M190.3,322.8h-8.6v-3.7h8.6c2,0,3.9-0.8,5.3-2.2c1.4-1.4,2.2-3.3,2.2-5.3c0-2-0.8-3.9-2.2-5.3
			s-3.3-2.2-5.3-2.2h-8.6v-3.7h8.6c3,0,5.8,1.2,7.9,3.3s3.3,4.9,3.3,7.9c0,3-1.2,5.8-3.3,7.9C196.1,321.6,193.3,322.8,190.3,322.8z"
			/>
		<path class="st0" d="M184.9,341.4h-46.4c-1.8,0-3.5-0.2-5.3-0.6c-1.7-0.4-3.4-1-5-1.8l-8.6-4.3h-9.6v-3.7h10.5l9.4,4.7
			c1.3,0.7,2.7,1.2,4.2,1.5c1.4,0.3,2.9,0.5,4.4,0.5h46.4c2,0,3.9-0.8,5.3-2.2c1.4-1.4,2.2-3.3,2.2-5.3s-0.8-3.9-2.2-5.3
			c-1.4-1.4-3.3-2.2-5.3-2.2h-3.2v-3.7h3.2c3,0,5.8,1.2,7.9,3.3s3.3,4.9,3.3,7.9s-1.2,5.8-3.3,7.9
			C190.6,340.3,187.8,341.4,184.9,341.4z"/>
		<rect x="40.8" y="271.8" class="st1" width="53.2" height="67.8"/>
		<rect x="94" y="271.8" class="st2" width="16.1" height="67.8"/>
		<path class="st0" d="M110.1,273.6v-3.7h6.3l18.6-18.6c2.1-2.1,4.6-3.8,7.4-5c2.8-1.1,5.7-1.7,8.8-1.7h6.7v3.7h-6.7
			c-2.5,0-5,0.5-7.3,1.5s-4.4,2.4-6.2,4.2l-19.7,19.7H110.1z"/>
		<path class="st0" d="M190.3,285.5h-8.6v-3.7h8.6c2,0,3.9-0.8,5.3-2.2c1.4-1.4,2.2-3.3,2.2-5.3s-0.8-3.9-2.2-5.3
			c-1.4-1.4-3.3-2.2-5.3-2.2h-40.1c-3,0-5.8-1.2-7.9-3.3l2.6-2.6c1.4,1.4,3.3,2.2,5.3,2.2h40.1c3,0,5.8,1.2,7.9,3.3s3.3,4.9,3.3,7.9
			s-1.2,5.8-3.3,7.9C196.1,284.4,193.3,285.5,190.3,285.5z"/>
		<polygon class="st0" points="111.9,341.4 40.8,341.4 40.8,337.8 108.2,337.8 108.2,273.6 40.8,273.6 40.8,269.9 111.9,269.9 		"/>
		<rect x="100.2" y="331" class="st0" width="3.7" height="3.7"/>
		<rect x="86.6" y="331" class="st0" width="3.7" height="3.7"/>
		<rect x="79.2" y="331" class="st0" width="3.7" height="3.7"/>
	</g>
	<g>
		<polygon class="st3" points="312.6,142.5 201.9,180.8 201.9,238.7 312.6,277 		"/>
		<path class="st0" d="M183.5,266.9H156v-30h27.5V266.9z M159.7,263.2h20.1v-22.7h-20.1V263.2z"/>
		<path class="st0" d="M176.4,349.1h-13.3c-1.9,0-3.7-0.7-5-2.1c-1.3-1.3-2.1-3.1-2.1-5v-4.3h27.5v4.3c0,1.9-0.7,3.7-2.1,5
			C180.1,348.4,178.3,349.1,176.4,349.1z M159.7,341.4v0.6c0,0.9,0.4,1.8,1,2.4c0.6,0.6,1.5,1,2.4,1h13.3c0.9,0,1.8-0.4,2.4-1
			c0.6-0.6,1-1.5,1-2.4v-0.6L159.7,341.4L159.7,341.4z"/>
		<rect x="116.5" y="189.3" class="st1" width="21" height="41"/>
		<path class="st1" d="M322.3,196.9v25.7c7.1,0,12.9-5.8,12.9-12.9C335.1,202.6,329.4,196.9,322.3,196.9z"/>
		<path class="st0" d="M203.8,240.6h-68V179h68V240.6z M139.4,236.9h60.7v-54.2h-60.7V236.9z"/>
		<rect x="167.9" y="180.8" class="st0" width="3.7" height="57.9"/>
		<path class="st0" d="M324.1,285.6h-13.3V133.9h13.3V285.6z M314.4,281.9h6V137.6h-6V281.9z"/>
		<g>
			<g>
				<rect x="184" y="196.9" class="st0" width="3.7" height="3.7"/>
				<rect x="184" y="204.2" class="st0" width="3.7" height="3.7"/>
				<rect x="184" y="211.6" class="st0" width="3.7" height="3.7"/>
				<rect x="184" y="219" class="st0" width="3.7" height="3.7"/>
			</g>
		</g>
		<polygon class="st0" points="125.3,221.6 116.5,221.6 116.5,217.9 121.7,217.9 121.7,201.6 116.5,201.6 116.5,198 125.3,198 		"/>
		<rect x="201.9" y="207.9" class="st0" width="55.3" height="3.7"/>
	</g>
	<g>
		<path class="st3" d="M73.5,84.7c-22.6,0-40.8,18.3-40.8,40.8c0,11.9,5.1,22.7,13.3,30.2c0.4,0.3,0.8,0.7,1.2,1
			c6.4,5.8,10.4,14.2,10.4,23.5v3.6h15.9h15.9v-3.6c0-9.3,4-17.7,10.4-23.5c0.4-0.3,0.8-0.7,1.2-1c8.2-7.5,13.3-18.2,13.3-30.2
			C114.4,103,96.1,84.7,73.5,84.7z"/>
		<path class="st0" d="M86.1,201.5H61c-1.4,0-2.7-0.5-3.7-1.5c-1-1-1.5-2.3-1.5-3.7v-12.6h3.7v12.6c0,0.4,0.2,0.8,0.5,1.1
			s0.7,0.4,1.1,0.4h25.1c0.4,0,0.8-0.2,1.1-0.4c0.3-0.3,0.4-0.7,0.4-1.1v-12.6h3.7v12.6c0,1.4-0.6,2.7-1.5,3.7
			C88.8,201,87.5,201.5,86.1,201.5z"/>
		<rect x="52.9" y="181.9" class="st0" width="41.2" height="3.7"/>
		<rect x="57.6" y="189.9" class="st0" width="31.9" height="3.7"/>
		<rect x="64" y="205.8" class="st0" width="19" height="3.7"/>
		<g>
			<g>
				<rect x="76.2" y="132.3" class="st0" width="3.7" height="51.5"/>
				<rect x="67.2" y="132.3" class="st0" width="3.7" height="51.5"/>
			</g>
		</g>
		<path class="st0" d="M70.9,134.1h-8.6c-4.7,0-8.6-3.9-8.6-8.6s3.9-8.6,8.6-8.6s8.6,3.9,8.6,8.6V134.1z M62.3,120.6
			c-2.7,0-4.9,2.2-4.9,4.9c0,2.7,2.2,4.9,4.9,4.9h4.9v-4.9C67.2,122.8,65,120.6,62.3,120.6z"/>
		<path class="st0" d="M84.8,134.1h-8.6v-8.6c0-4.7,3.9-8.6,8.6-8.6s8.6,3.9,8.6,8.6C93.4,130.3,89.6,134.1,84.8,134.1z M79.9,130.4
			h4.9c2.7,0,4.9-2.2,4.9-4.9c0-2.7-2.2-4.9-4.9-4.9s-4.9,2.2-4.9,4.9V130.4z"/>
		<rect x="69" y="130.4" class="st0" width="9" height="3.7"/>
	</g>
	<g>
		<path class="st0" d="M349.2,273.5c-1.4-0.2-2.7-0.6-4-1.1l1.5-3.4c0.9,0.4,1.9,0.7,2.9,0.9L349.2,273.5z M353.3,273.5l-0.5-3.6
			c1-0.1,2-0.4,2.9-0.9l1.5,3.3C356,272.9,354.7,273.3,353.3,273.5z M341.8,270.1c-1-0.9-2-2-2.7-3.1l3.1-2c0.6,0.9,1.2,1.6,2,2.3
			L341.8,270.1z M360.7,270.1l-2.4-2.8c0.8-0.7,1.5-1.5,2-2.3l3.1,2C362.7,268.2,361.8,269.2,360.7,270.1z M337.4,263.3
			c-0.4-1.3-0.6-2.7-0.6-4.1l3.7,0c0,1,0.1,2,0.4,3L337.4,263.3z M365.1,263.3l-3.5-1c0.3-1,0.4-2,0.4-3l3.7,0v0
			C365.7,260.6,365.5,261.9,365.1,263.3z M340.9,256.2l-3.5-1c0.4-1.3,1-2.6,1.7-3.8l3.1,2C341.6,254.3,341.2,255.2,340.9,256.2z
			 M361.6,256.1c-0.3-1-0.7-1.9-1.3-2.8l3.1-2c0.8,1.2,1.3,2.4,1.7,3.7L361.6,256.1z M344.2,251.1l-2.4-2.8c1-0.9,2.2-1.7,3.5-2.2
			l1.5,3.3C345.8,249.8,345,250.4,344.2,251.1z M358.3,251c-0.8-0.7-1.6-1.2-2.6-1.6l1.5-3.4c1.3,0.6,2.4,1.3,3.5,2.2L358.3,251z
			 M349.7,248.5l-0.5-3.6c1.4-0.2,2.8-0.2,4.1,0l-0.5,3.6C351.8,248.4,350.7,248.4,349.7,248.5z"/>
		<path class="st0" d="M338.7,144.4c-1.3-0.3-2.6-0.9-3.7-1.8l2.3-2.9c0.7,0.5,1.4,0.9,2.2,1.1L338.7,144.4z M342.8,144.4l-0.8-3.6
			c0.8-0.2,1.6-0.6,2.2-1.1l2.3,2.9C345.4,143.5,344.1,144.1,342.8,144.4z M332.5,139.5c-0.6-1.3-0.9-2.6-0.9-4l3.7,0
			c0,0.8,0.2,1.6,0.6,2.4L332.5,139.5z M349,139.4l-3.3-1.6c0.4-0.8,0.5-1.6,0.5-2.4l3.7-0.1v0.1C350,136.8,349.6,138.2,349,139.4z
			 M335.8,133.1l-3.3-1.6c0.6-1.2,1.5-2.4,2.5-3.2l2.3,2.9C336.6,131.7,336.1,132.3,335.8,133.1z M345.7,133
			c-0.4-0.7-0.9-1.4-1.5-1.9l2.3-2.9c1.1,0.8,2,1.9,2.6,3.2L345.7,133z M339.5,130.1l-0.8-3.6c1.3-0.3,2.7-0.3,4.1,0l-0.8,3.6
			C341.1,129.9,340.3,129.9,339.5,130.1z"/>
		<g>
			<g>
				<g>
					
						<rect x="379.5" y="204.7" transform="matrix(0.7069 -0.7073 0.7073 0.7069 -34.6567 330.4302)" class="st0" width="3.7" height="4.7"/>
					
						<rect x="372.4" y="197.5" transform="matrix(0.7053 -0.709 0.709 0.7053 -31.3853 324.2386)" class="st0" width="3.7" height="4.7"/>
					
						<rect x="379" y="198.1" transform="matrix(0.7088 -0.7054 0.7054 0.7088 -29.9472 327.2347)" class="st0" width="4.7" height="3.7"/>
					
						<rect x="371.9" y="205.2" transform="matrix(0.7074 -0.7068 0.7068 0.7074 -36.8361 325.089)" class="st0" width="4.7" height="3.7"/>
				</g>
			</g>
		</g>
		<g>
			<g>
				<g>
					
						<rect x="346.4" y="187.4" transform="matrix(0.7071 -0.7071 0.7071 0.7071 -32.89 302.0764)" class="st0" width="3.7" height="6.6"/>
					
						<rect x="336.3" y="177.4" transform="matrix(0.7055 -0.7087 0.7087 0.7055 -28.5066 292.9056)" class="st0" width="3.7" height="6.6"/>
					
						<rect x="344.9" y="178.9" transform="matrix(0.7088 -0.7054 0.7054 0.7088 -26.1041 298.2528)" class="st0" width="6.6" height="3.7"/>
					
						<rect x="334.9" y="188.9" transform="matrix(0.7071 -0.7071 0.7071 0.7071 -35.823 294.997)" class="st0" width="6.6" height="3.7"/>
				</g>
			</g>
		</g>
		<circle class="st3" cx="354.4" cy="162.9" r="4.2"/>
		<circle class="st3" cx="368.4" cy="228.2" r="7.9"/>
	</g>
	<g>
		<circle class="st4" cx="242.3" cy="310.7" r="24.7"/>
		<g>
			<g>
				<path class="st5" d="M243.8,321.9h-3.1c-1.7,0-3.4-0.7-4.6-1.9c-1.2-1.3-1.9-2.9-1.9-4.6h3.7c0,0.8,0.3,1.5,0.8,2
					c0.5,0.5,1.3,0.8,2,0.8h3.1c0.8,0,1.5-0.3,2-0.8c0.5-0.5,0.8-1.3,0.8-2c0-0.8-0.3-1.5-0.8-2c-0.6-0.5-1.3-0.8-2-0.8h-3.1
					c-1.7,0-3.4-0.7-4.6-1.9c-1.2-1.2-1.9-2.9-1.9-4.6c0-1.8,0.7-3.4,1.9-4.6c1.2-1.2,2.9-1.9,4.6-1.9h3.1c1.7,0,3.4,0.7,4.6,1.9
					c1.3,1.3,1.9,2.9,1.9,4.6h-3.7c0-0.8-0.3-1.5-0.8-2c-0.5-0.5-1.3-0.8-2-0.8h-3.1c-0.8,0-1.5,0.3-2,0.8c-0.5,0.5-0.8,1.3-0.8,2
					c0,0.8,0.3,1.5,0.8,2s1.3,0.8,2,0.8h3.1c1.7,0,3.4,0.7,4.6,1.9c1.2,1.2,1.9,2.9,1.9,4.6s-0.7,3.4-1.9,4.6
					C247.2,321.2,245.6,321.9,243.8,321.9z"/>
				<rect x="240.4" y="294.4" class="st5" width="3.7" height="6.9"/>
				<rect x="240.4" y="320.1" class="st5" width="3.7" height="6.9"/>
			</g>
		</g>
	</g>
	<path class="st0" d="M222.2,372.4c-5.9,0-10.8-4.8-10.8-10.8s4.8-10.8,10.8-10.8s10.8,4.8,10.8,10.8
		C233,367.6,228.2,372.4,222.2,372.4z M222.2,354.5c-3.9,0-7.1,3.2-7.1,7.1c0,3.9,3.2,7.1,7.1,7.1c3.9,0,7.1-3.2,7.1-7.1
		S226.1,354.5,222.2,354.5z"/>
	<path class="st4" d="M198.3,171.1c-3.6,0-6.6-2.9-6.6-6.6c0-3.6,2.9-6.6,6.6-6.6c3.6,0,6.6,2.9,6.6,6.6
		C204.9,168.2,201.9,171.1,198.3,171.1z M198.3,161.7c-1.6,0-2.9,1.3-2.9,2.9s1.3,2.9,2.9,2.9c1.6,0,2.9-1.3,2.9-2.9
		C201.2,162.9,199.9,161.7,198.3,161.7z"/>
	<circle class="st6" cx="263" cy="352" r="5.8"/>
	<g>
		<g>
			<g>
				<rect x="287.4" y="347" class="st0" width="3.7" height="3.7"/>
				<rect x="294.8" y="347" class="st0" width="3.7" height="3.7"/>
				<rect x="302.1" y="347" class="st0" width="3.7" height="3.7"/>
				<rect x="309.5" y="347" class="st0" width="3.7" height="3.7"/>
				<rect x="316.9" y="347" class="st0" width="3.7" height="3.7"/>
				<rect x="324.2" y="347" class="st0" width="3.7" height="3.7"/>
				<rect x="331.6" y="347" class="st0" width="3.7" height="3.7"/>
				<rect x="338.9" y="347" class="st0" width="3.7" height="3.7"/>
			</g>
		</g>
		<rect x="287.4" y="335.6" class="st1" width="11" height="7.7"/>
		<rect x="302.1" y="317" class="st4" width="11" height="26.3"/>
		<rect x="316.9" y="326.8" class="st1" width="11" height="16.6"/>
		<rect x="331.6" y="299.7" class="st4" width="11" height="43.7"/>
	</g>
	<g>
		<g>
			
				<rect x="130.7" y="143.1" transform="matrix(0.7071 -0.7071 0.7071 0.7071 -59.4014 146.4184)" class="st7" width="32.7" height="3.7"/>
			<g>
				<path class="st7" d="M154.2,158.3c-3.4,0-6.2-2.8-6.2-6.2s2.8-6.2,6.2-6.2s6.2,2.8,6.2,6.2C160.4,155.5,157.7,158.3,154.2,158.3
					z M154.2,149.6c-1.4,0-2.5,1.1-2.5,2.5s1.1,2.5,2.5,2.5s2.5-1.1,2.5-2.5C156.8,150.7,155.6,149.6,154.2,149.6z"/>
				<path class="st7" d="M139.8,143.9c-3.4,0-6.2-2.8-6.2-6.2s2.8-6.2,6.2-6.2s6.2,2.8,6.2,6.2C146,141.1,143.3,143.9,139.8,143.9z
					 M139.8,135.2c-1.4,0-2.5,1.1-2.5,2.5s1.1,2.5,2.5,2.5s2.5-1.1,2.5-2.5S141.2,135.2,139.8,135.2z"/>
			</g>
		</g>
	</g>
	<g>
		<path class="st4" d="M135.5,44.2c-9.8,0-17.8,8-17.8,17.8c0,4.1,1.5,7.8,3.7,10.8c14.1,19.8,14.1,19.8,14.1,19.8s0,0,14.1-19.8
			c2.2-3.1,3.7-6.8,3.7-10.8C153.3,52.2,145.3,44.2,135.5,44.2z"/>
		<path class="st2" d="M143.9,62c0,4.7-3.8,8.5-8.5,8.5c-4.7,0-8.5-3.8-8.5-8.5c0-4.7,3.8-8.5,8.5-8.5
			C140.2,53.5,143.9,57.3,143.9,62z"/>
	</g>
	<g>
		<g>
			<path class="st0" d="M200.2,154.3h-3.7v-2.9c0-0.3,0-0.6,0-0.9l3.7,0.2c0,0.2,0,0.4,0,0.7V154.3z M200.8,147.7l-3.5-1.3
				c0.5-1.3,1.2-2.6,2-3.7l2.9,2.2C201.7,145.8,201.2,146.7,200.8,147.7z M204.5,142.7l-2.2-2.9c1.1-0.8,2.4-1.5,3.7-2l1.2,3.5
				C206.3,141.6,205.4,142.1,204.5,142.7z M210.3,140.6l-0.2-3.7c0.3,0,0.5,0,0.8,0h3v3.7h-3C210.7,140.6,210.5,140.6,210.3,140.6z
				 M221.3,140.6h-3.7V137h3.7V140.6z M225.2,140.5l-0.5-3.6c1-0.1,2.1-0.4,3-0.9l1.5,3.4C227.9,139.9,226.6,140.3,225.2,140.5z
				 M232.7,137.1l-2.4-2.8c0.2-0.2,0.4-0.3,0.6-0.5c0.6-0.6,1.1-1.2,1.5-1.8l3.1,2c-0.6,0.9-1.2,1.7-2,2.5
				C233.2,136.6,233,136.9,232.7,137.1z M237.2,130.1l-3.5-1c0.3-0.9,0.4-1.9,0.4-2.9V126l3.7-0.1v0.2
				C237.7,127.5,237.5,128.8,237.2,130.1z M233.5,122.9c-0.3-1-0.8-1.9-1.4-2.8l3-2.1c0.8,1.2,1.4,2.4,1.8,3.8L233.5,122.9z
				 M230.1,117.8c-0.8-0.7-1.7-1.2-2.7-1.6l1.4-3.4c1.3,0.5,2.5,1.3,3.6,2.2L230.1,117.8z M224.3,115.5c-0.4,0-0.7-0.1-1.1-0.1h-2.4
				v-3.7h2.4c0.5,0,1,0,1.4,0.1L224.3,115.5z M217.2,115.4h-3.7v-3.7h3.7V115.4z M209.8,115.4h-3.7v-3.7h3.7V115.4z M202.5,115.4
				h-3.7v-3.7h3.7V115.4z M195.2,115.4h-3.7v-3.7h3.7V115.4z M187.8,115.4h-3.7v-3.7h3.7V115.4z M180.5,115.4h-3.7v-3.7h3.7V115.4z
				 M173.1,115.4h-3.7v-3.7h3.7V115.4z M165.8,115.4h-3.7v-3.7h3.7V115.4z M158.4,115.4h-3.7v-3.7h3.7V115.4z M151.1,115.4h-3
				c-0.3,0-0.5,0-0.8,0l0.2-3.7c0.2,0,0.4,0,0.6,0h3V115.4z M143.2,114.6c-1.3-0.5-2.6-1.1-3.7-2l2.2-3c0.8,0.6,1.8,1.1,2.8,1.5
				L143.2,114.6z M136.6,109.7c-0.9-1.1-1.5-2.4-2-3.7l3.4-1.3c0.4,1,0.9,1.9,1.5,2.7L136.6,109.7z M133.7,101.9c0-0.3,0-0.6,0-0.9
				v-2.9h3.7v2.9c0,0.2,0,0.5,0,0.7L133.7,101.9z"/>
		</g>
	</g>
	<g>
		<path class="st0" d="M285,110.8c-14.5,0-26.4-11.8-26.4-26.4S270.4,58,285,58s26.4,11.8,26.4,26.4S299.5,110.8,285,110.8z
			 M285,61.7c-12.5,0-22.7,10.2-22.7,22.7s10.2,22.7,22.7,22.7s22.7-10.2,22.7-22.7S297.5,61.7,285,61.7z"/>
		<rect x="249.6" y="82.6" class="st0" width="10.8" height="3.7"/>
		<path class="st0" d="M251.5,90.2h-31.6c-1.5,0-3-0.6-4.1-1.7c-1.1-1.1-1.7-2.5-1.7-4.1c0-1.5,0.6-3,1.7-4.1
			c1.1-1.1,2.5-1.7,4.1-1.7h31.6L251.5,90.2L251.5,90.2z M219.9,82.3c-0.6,0-1.1,0.2-1.5,0.6c-0.4,0.4-0.6,0.9-0.6,1.5
			c0,0.6,0.2,1.1,0.6,1.5c0.4,0.4,0.9,0.6,1.5,0.6h27.9v-4.2C247.8,82.3,219.9,82.3,219.9,82.3z"/>
		<rect x="239.9" y="80.5" class="st0" width="3.7" height="7.9"/>
		<rect x="247.8" y="75.6" class="st0" width="3.7" height="17.7"/>
		<circle class="st1" cx="285" cy="84.4" r="16.8"/>
	</g>
	<g>
		<path class="st7" d="M40.6,261.5h-7.7l-2.2-5.8c-1.1-0.4-2.2-0.8-3.3-1.4l-5.6,2.5l-5.4-5.4l2.5-5.6c-0.5-1.1-1-2.1-1.4-3.3
			l-5.8-2.2v-7.7l5.8-2.2c0.4-1.1,0.8-2.2,1.4-3.3l-2.5-5.6l5.4-5.4l5.6,2.5c1-0.6,2.1-1,3.3-1.4l2.2-5.8h7.7l2.2,5.8
			c1.1,0.4,2.2,0.8,3.3,1.4l5.6-2.5l5.4,5.4l-2.5,5.6c0.5,1.1,1,2.1,1.4,3.3l5.8,2.2v7.7l-5.8,2.2c-0.4,1.1-0.8,2.2-1.4,3.3l2.5,5.6
			l-5.4,5.4l-5.6-2.5c-1,0.6-2.2,1-3.3,1.4L40.6,261.5z M35.5,257.9H38l2-5.1l0.9-0.2c1.4-0.4,2.8-1,4.1-1.7l0.8-0.5l5,2.2l1.8-1.8
			l-2.2-5l0.5-0.8c0.8-1.3,1.3-2.7,1.7-4.1l0.2-0.9l5.1-2v-2.6l-5.1-2l-0.2-0.9c-0.4-1.4-1-2.8-1.7-4.1l-0.5-0.8l2.2-5l-1.8-1.8
			l-5,2.3l-0.8-0.5c-1.3-0.8-2.7-1.3-4.1-1.7l-0.9-0.2l-2-5.1h-2.6l-2,5.1l-0.9,0.2c-1.5,0.4-2.8,1-4.1,1.7l-0.8,0.5l-5-2.3
			l-1.8,1.8l2.2,5l-0.5,0.8c-0.8,1.3-1.3,2.7-1.7,4.1l-0.2,0.9l-5.1,1.9v2.6l5.1,2l0.2,0.9c0.4,1.4,1,2.8,1.7,4.1l0.5,0.8l-2.2,5
			l1.8,1.8l5-2.2l0.8,0.5c1.3,0.8,2.7,1.3,4.1,1.7l0.9,0.2L35.5,257.9z"/>
		<path class="st3" d="M36.8,246.6c-5.5,0-10-4.5-10-10s4.5-10,10-10c5.5,0,10,4.5,10,10C46.7,242.1,42.3,246.6,36.8,246.6z"/>
	</g>
</g>
</svg>
