<?xml version="1.0" encoding="utf-8"?>
<!-- Generator: Adobe Illustrator 24.2.1, SVG Export Plug-In . SVG Version: 6.00 Build 0)  -->
<svg version="1.1" id="Layer_1" xmlns="http://www.w3.org/2000/svg" xmlns:xlink="http://www.w3.org/1999/xlink" x="0px" y="0px"
	 viewBox="0 0 394.1 386.7" style="enable-background:new 0 0 394.1 386.7;" xml:space="preserve">
<style type="text/css">
	.st0{fill:#41464B;}
	.st1{fill:#E0E4EB;}
	.st2{fill:#0D1342;}
	.st3{fill:#001A33;}
	.st4{fill:#19A206;}
	.st5{fill:#FFFFFF;}
	.st6{fill:#C6CEDB;}
</style>
<g>
	<g>
		<path class="st0" d="M297.5,258.3h-3.8V135.6c0-1.4-0.5-2.7-1.5-3.7s-2.3-1.5-3.7-1.5H89.8c-1.4,0-2.7,0.6-3.7,1.5
			c-1,1-1.5,2.3-1.5,3.7v122.7h-3.8V135.6c0-2.4,0.9-4.7,2.7-6.4c1.7-1.7,4-2.7,6.4-2.7h198.7c2.4,0,4.7,0.9,6.4,2.6
			c1.7,1.7,2.6,4,2.6,6.4L297.5,258.3L297.5,258.3z"/>
		<path class="st0" d="M307.8,279.2H70.5c-3,0-5.9-1.2-8.1-3.3c-2.2-2.1-3.3-5-3.3-8.1v-11.4h99.3l5,5.5h51.4l5-5.5h99.3v11.4
			c0,3.1-1.2,5.9-3.3,8.1C313.6,278,310.8,279.2,307.8,279.2z M62.9,260.2v7.6c0,2,0.8,3.9,2.2,5.3c1.4,1.4,3.3,2.2,5.3,2.2h237.3
			c2,0,3.9-0.8,5.3-2.2c1.4-1.4,2.2-3.3,2.2-5.3v-7.6h-93.8l-5,5.5h-54.8l-5-5.5H62.9z"/>
		<rect x="95.5" y="141.3" class="st1" width="187.3" height="104.2"/>
	</g>
	<path class="st2" d="M149.3,96.6c0.1,0,0.2,0,0.3,0c-0.4-1.2-0.7-2.4-0.7-3.7c0-5.7,4.6-10.3,10.3-10.3c1.6,0,3,0.3,4.4,1
		c2.2-7.3,8.9-12.5,16.9-12.5c9.7,0,17.6,7.9,17.6,17.6c0,0.2,0,0.3,0,0.5l0,0c5.7,0,10.3,4.6,10.3,10.3c0,5.7-4.6,10.3-10.3,10.3
		h-48.8c-3.6,0-6.6-2.9-6.6-6.6C142.7,99.6,145.6,96.6,149.3,96.6z"/>
	<g>
		<g>
			<g>
				
					<rect x="175.7" y="180.9" transform="matrix(0.7071 -0.7071 0.7071 0.7071 -76.5717 178.8225)" class="st0" width="3.8" height="1.9"/>
				<path class="st0" d="M172.8,179.8L170,177l2.7-2.7l2.8,2.8L172.8,179.8z M167.2,174.2l-2.8-2.8l2.7-2.7l2.8,2.8L167.2,174.2z
					 M161.6,168.6l-2.8-2.8l2.7-2.7l2.8,2.8L161.6,168.6z M156.1,163.1l-2.8-2.8l2.7-2.7l2.8,2.8L156.1,163.1z M150.5,157.5
					l-2.8-2.8l2.7-2.7l2.8,2.8L150.5,157.5z M144.9,152l-2.8-2.8l2.7-2.7l2.8,2.8L144.9,152z M139.4,146.4l-2.8-2.8l2.7-2.7l2.8,2.8
					L139.4,146.4z M133.8,140.8L131,138l2.7-2.7l2.8,2.8L133.8,140.8z M128.2,135.3l-2.8-2.8l2.7-2.7l2.8,2.8L128.2,135.3z
					 M122.7,129.7l-2.8-2.8l2.7-2.7l2.8,2.8L122.7,129.7z M117.1,124.1l-2.8-2.8l2.7-2.7l2.8,2.8L117.1,124.1z M111.6,118.6
					l-2.8-2.8l2.7-2.7l2.8,2.8L111.6,118.6z"/>
				
					<rect x="104.7" y="110" transform="matrix(0.7071 -0.7071 0.7071 0.7071 -47.2647 107.8865)" class="st0" width="3.8" height="1.9"/>
			</g>
		</g>
		<g>
			<g>
				
					<rect x="270.6" y="109.1" transform="matrix(0.7071 -0.7071 0.7071 0.7071 1.0515 224.5422)" class="st0" width="1.9" height="3.8"/>
				<path class="st0" d="M205.5,179.8l-2.7-2.7l2.8-2.8l2.7,2.7L205.5,179.8z M211.1,174.2l-2.7-2.7l2.8-2.8l2.7,2.7L211.1,174.2z
					 M216.6,168.6l-2.7-2.7l2.8-2.8l2.7,2.7L216.6,168.6z M222.2,163.1l-2.7-2.7l2.8-2.8l2.7,2.7L222.2,163.1z M227.7,157.5
					l-2.7-2.7l2.8-2.8l2.7,2.7L227.7,157.5z M233.3,152l-2.7-2.7l2.8-2.8l2.7,2.7L233.3,152z M238.9,146.4l-2.7-2.7l2.8-2.8l2.7,2.7
					L238.9,146.4z M244.4,140.8l-2.7-2.7l2.8-2.8l2.7,2.7L244.4,140.8z M250,135.3l-2.7-2.7l2.8-2.8l2.7,2.7L250,135.3z
					 M255.6,129.7l-2.7-2.7l2.8-2.8l2.7,2.7L255.6,129.7z M261.1,124.1l-2.7-2.7l2.8-2.8l2.7,2.7L261.1,124.1z M266.7,118.6
					l-2.7-2.7l2.8-2.8l2.7,2.7L266.7,118.6z"/>
				
					<rect x="199.7" y="180" transform="matrix(0.7071 -0.7071 0.7071 0.7071 -69.8556 195.1715)" class="st0" width="1.9" height="3.8"/>
			</g>
		</g>
		<rect x="187.2" y="49.9" class="st0" width="3.8" height="128.1"/>
		<path class="st3" d="M101.3,99.4c0,3.4-2.8,6.2-6.1,6.2c-3.4,0-6.2-2.8-6.2-6.2c0-3.4,2.8-6.2,6.2-6.2S101.3,96,101.3,99.4z"/>
		<path class="st3" d="M289.3,99.4c0,3.4-2.8,6.2-6.1,6.2c-3.4,0-6.1-2.8-6.1-6.2c0-3.4,2.8-6.2,6.1-6.2
			C286.5,93.3,289.3,96,289.3,99.4z"/>
		<path class="st4" d="M189.1,28.4c3.4,0,6.1,2.8,6.1,6.1s-2.8,6.2-6.1,6.2S183,38,183,34.6C183,31.2,185.7,28.4,189.1,28.4z"/>
		<path class="st0" d="M95.1,116.7c-4.6,0-9-1.8-12.2-5.1c-3.3-3.3-5.1-7.6-5.1-12.2s1.8-9,5.1-12.2c3.3-3.3,7.6-5.1,12.2-5.1
			s9,1.8,12.2,5.1c3.3,3.3,5.1,7.6,5.1,12.2s-1.8,9-5.1,12.2C104.1,114.9,99.7,116.7,95.1,116.7z M95.1,86c-3.6,0-7,1.4-9.5,3.9
			s-3.9,5.9-3.9,9.5s1.4,7,3.9,9.5s5.9,3.9,9.5,3.9s7-1.4,9.5-3.9s3.9-5.9,3.9-9.5s-1.4-7-3.9-9.5S98.7,86,95.1,86z"/>
		<path class="st0" d="M283.1,116.7c-4.6,0-9-1.8-12.2-5.1c-6.7-6.8-6.7-17.7,0-24.5c3.3-3.3,7.6-5.1,12.2-5.1s9,1.8,12.2,5.1
			c3.3,3.3,5.1,7.6,5.1,12.2s-1.8,9-5.1,12.2C292.1,114.9,287.7,116.7,283.1,116.7z M283.1,86c-3.6,0-7,1.4-9.5,3.9
			c-5.2,5.2-5.2,13.8,0,19c2.5,2.5,5.9,3.9,9.5,3.9s7-1.4,9.5-3.9s3.9-5.9,3.9-9.5s-1.4-7-3.9-9.5S286.7,86,283.1,86z"/>
		<path class="st0" d="M189.1,51.9c-9.5,0-17.3-7.8-17.3-17.3s7.8-17.3,17.3-17.3c4.6,0,9,1.8,12.2,5.1c3.3,3.3,5.1,7.6,5.1,12.2
			C206.4,44.1,198.7,51.9,189.1,51.9z M189.1,21.1c-7.4,0-13.4,6-13.4,13.4s6,13.5,13.4,13.5s13.4-6,13.4-13.5
			C202.6,27.1,196.5,21.1,189.1,21.1z"/>
		<path class="st0" d="M189.1,210.7c-9.5,0-17.3-7.8-17.3-17.3s7.8-17.3,17.3-17.3c4.6,0,9,1.8,12.2,5.1c3.3,3.3,5.1,7.6,5.1,12.2
			C206.4,203,198.7,210.7,189.1,210.7z M189.1,180c-7.4,0-13.4,6-13.4,13.5c0,7.4,6,13.4,13.4,13.4s13.4-6,13.4-13.4
			C202.6,186,196.5,180,189.1,180z"/>
		<g>
			<g>
				<rect x="187.2" y="187.3" class="st0" width="3.8" height="12.3"/>
				<rect x="183" y="191.5" class="st0" width="12.3" height="3.8"/>
			</g>
		</g>
	</g>
	<g>
		<polygon class="st4" points="361.1,149.2 361.1,210.8 348.5,210.8 348.5,224.9 334.5,210.8 262.5,210.8 262.5,149.2 		"/>
		<polygon class="st5" points="304.3,171.4 319.3,180 304.3,188.7 		"/>
		<polygon class="st0" points="372.5,201.3 368.7,201.3 368.7,141.6 308.7,141.6 308.7,137.8 372.5,137.8 		"/>
	</g>
	<path class="st6" d="M151.8,53.5c2.8,0,5.1,2.3,5.1,5.1s-2.3,5.1-5.1,5.1s-5.1-2.3-5.1-5.1S149,53.5,151.8,53.5z"/>
	<path class="st0" d="M236.1,99.3c-5.6,0-10.1-4.5-10.1-10.1s4.5-10.1,10.1-10.1s10.1,4.5,10.1,10.1S241.7,99.3,236.1,99.3z
		 M236.1,82.9c-3.5,0-6.3,2.8-6.3,6.3s2.8,6.3,6.3,6.3s6.3-2.8,6.3-6.3S239.6,82.9,236.1,82.9z"/>
	<g>
		<g>
			<path class="st0" d="M64.1,226.2h-3.8c0-6-2.3-11.6-6.6-15.8c-4.2-4.2-9.9-6.6-15.8-6.6V200c7,0,13.6,2.7,18.5,7.7
				C61.4,212.6,64.1,219.2,64.1,226.2z"/>
			<path class="st0" d="M54.6,226.2h-3.8c0-3.4-1.3-6.7-3.8-9.1c-2.4-2.4-5.7-3.8-9.1-3.8v-3.8c4.5,0,8.7,1.7,11.8,4.9
				C52.8,217.6,54.6,221.8,54.6,226.2z"/>
			<path class="st0" d="M37.9,233.4L37.9,233.4c-4,0-7.2-3.2-7.2-7.2s3.2-7.2,7.2-7.2s7.2,3.2,7.2,7.2S41.8,233.4,37.9,233.4z
				 M37.9,222.9c-1.9,0-3.4,1.5-3.4,3.4s1.5,3.4,3.4,3.4c1.8,0,3.4-1.5,3.4-3.4S39.7,222.9,37.9,222.9z"/>
		</g>
	</g>
	<path class="st0" d="M161.6,319.7v-3.8c0.9,0,1.8-0.3,2.6-0.9l2.3,3.1C165,319.2,163.3,319.7,161.6,319.7z M156.7,318.2
		c-1.4-1-2.5-2.5-3-4.1l3.6-1.2c0.3,0.9,0.9,1.6,1.6,2.2L156.7,318.2z M169.4,314l-3.7-1.2c0.1-0.4,0.2-0.9,0.2-1.4
		s-0.1-0.9-0.2-1.4l3.6-1.2c0.3,0.8,0.4,1.7,0.4,2.6C169.8,312.3,169.7,313.2,169.4,314z M157.3,310.1l-3.7-1.1
		c0.5-1.6,1.6-3.1,2.9-4.2l2.3,3.1C158.1,308.5,157.6,309.3,157.3,310.1z M164.1,307.9c-0.8-0.5-1.7-0.8-2.6-0.8l-0.1-3.8h0.2l0,0
		c1.7,0,3.4,0.5,4.8,1.6L164.1,307.9z"/>
	<path class="st4" d="M210.7,319.8L210.7,319.8c-1.6,0-3.1-0.3-4.6-0.9l1.5-3.5c1,0.4,2,0.6,3.1,0.6V319.8z M215.3,318.9l-1.5-3.5
		c1-0.4,1.9-1,2.6-1.8l2.7,2.7C218,317.4,216.7,318.3,215.3,318.9z M202.2,316.4c-1.1-1.1-2-2.4-2.6-3.9l3.5-1.5
		c0.4,1,1,1.9,1.8,2.6L202.2,316.4z M221.7,312.4l-3.6-1.5c0.4-1,0.6-2,0.6-3v-0.1h1.9l1.9-0.5l0.1,0.3v0.3
		C222.6,309.5,222.3,311,221.7,312.4z M198.7,307.9L198.7,307.9c0-1.6,0.3-3.1,0.9-4.6l3.6,1.5c-0.4,1-0.6,2-0.6,3.1H198.7z
		 M218.2,304.8c-0.4-1-1-1.9-1.8-2.6l2.7-2.7c1.1,1.1,2,2.4,2.6,3.9L218.2,304.8z M204.9,302.1l-2.7-2.7c1.1-1.1,2.4-2,3.9-2.6
		l1.5,3.5C206.5,300.8,205.6,301.4,204.9,302.1z M213.8,300.4c-1-0.4-2-0.6-3.1-0.6V296l0,0c1.6,0,3.1,0.3,4.6,0.9L213.8,300.4z"/>
	<path class="st0" d="M164.2,342c-3.7,0-6.7-3-6.7-6.7s3-6.7,6.7-6.7s6.7,3,6.7,6.7S167.9,342,164.2,342z M164.2,332.5
		c-1.6,0-2.8,1.3-2.8,2.8c0,1.6,1.3,2.8,2.8,2.8c1.6,0,2.8-1.3,2.8-2.8S165.7,332.5,164.2,332.5z"/>
	<g>
		<g>
			<rect x="90.5" y="178.1" class="st0" width="18.3" height="3.8"/>
			<rect x="90.5" y="155.1" class="st0" width="18.3" height="3.8"/>
			<rect x="99.7" y="166.6" class="st0" width="18.3" height="3.8"/>
		</g>
	</g>
	<g>
		<g>
			<g>
				<path class="st0" d="M70.6,188.6H11.5v-40.1h59.1V188.6z M15.4,184.7h51.4v-32.4H15.4V184.7z"/>
				<polygon class="st0" points="41.1,175.4 12.2,151.9 14.7,148.9 41.1,170.4 67.5,148.9 69.9,151.9 				"/>
				
					<rect x="55.7" y="163.2" transform="matrix(0.631 -0.7758 0.7758 0.631 -116.4941 110.1711)" class="st0" width="3.8" height="28.7"/>
				
					<rect x="10.2" y="175.7" transform="matrix(0.7757 -0.6311 0.6311 0.7757 -106.5833 55.3399)" class="st0" width="28.7" height="3.8"/>
			</g>
		</g>
	</g>
	<g>
		<g>
			<rect x="187.2" y="234" class="st0" width="3.8" height="3.8"/>
			<rect x="194.9" y="234" class="st0" width="3.8" height="3.8"/>
			<rect x="179.5" y="234" class="st0" width="3.8" height="3.8"/>
		</g>
	</g>
	<g>
		<g>
			<g>
				<path class="st0" d="M201.9,375.5l-22.1-52.6l52.6,22.1l-22.1,8.5L201.9,375.5z M187,330l14.7,35.1l5.7-14.7l14.7-5.7L187,330z"
					/>
				
					<rect x="213.9" y="349" transform="matrix(0.7069 -0.7073 0.7073 0.7069 -190.5629 257.788)" class="st0" width="3.8" height="19.6"/>
			</g>
		</g>
	</g>
	<g>
		<rect x="305.9" y="246.2" class="st2" width="58.3" height="58.3"/>
		<g>
			<g>
				<path class="st5" d="M335.1,293.1c-9.8,0-17.8-8-17.8-17.8s8-17.8,17.8-17.8s17.8,8,17.8,17.8c0,1.1-0.9,1.9-1.9,1.9
					s-1.9-0.9-1.9-1.9c0-7.7-6.3-13.9-13.9-13.9c-7.7,0-13.9,6.3-13.9,13.9c0,7.7,6.3,13.9,13.9,13.9c2.5,0,4.9-0.6,7-1.9
					c0.9-0.5,2.1-0.2,2.6,0.7s0.2,2.1-0.7,2.6C341.3,292.3,338.2,293.1,335.1,293.1z"/>
				<path class="st5" d="M335.1,285.2c-5.4,0-9.9-4.4-9.9-9.9s4.4-9.9,9.9-9.9s9.9,4.4,9.9,9.9S340.5,285.2,335.1,285.2z
					 M335.1,269.4c-3.3,0-6,2.7-6,6s2.7,6,6,6s6-2.7,6-6S338.4,269.4,335.1,269.4z"/>
				<path class="st5" d="M347,285.2c-1.6,0-3-0.6-4.2-1.7c-1.1-1.1-1.7-2.6-1.7-4.2v-4c0-1.1,0.9-1.9,1.9-1.9c1.1,0,1.9,0.9,1.9,1.9
					v4c0,0.4,0.1,1,0.6,1.4c0.8,0.8,2.1,0.8,2.9,0c0.4-0.4,0.6-0.9,0.6-1.5v-4c0-1.1,0.9-1.9,1.9-1.9s1.9,0.9,1.9,1.9v4
					c0,1.6-0.6,3-1.7,4.2C350,284.6,348.5,285.2,347,285.2z"/>
			</g>
		</g>
	</g>
	<g>
		<rect x="30.5" y="269.5" class="st2" width="83.7" height="56.1"/>
		<g>
			<g>
				<polygon class="st5" points="50.8,327 48.1,324.3 77.5,294.9 106.9,324.3 104.2,327 77.5,300.3 				"/>
				<polygon class="st5" points="38.2,327 35.5,324.3 56.3,303.4 64,311.1 61.2,313.8 56.3,308.8 				"/>
				<path class="st5" d="M61,298.5c-4.3,0-7.8-3.5-7.8-7.8s3.5-7.8,7.8-7.8s7.8,3.5,7.8,7.8S65.3,298.5,61,298.5z M61,286.7
					c-2.2,0-4,1.8-4,4s1.8,4,4,4s3.9-1.8,3.9-4C65,288.5,63.2,286.7,61,286.7z"/>
			</g>
		</g>
		<polygon class="st0" points="104.8,336.9 19.2,336.9 19.2,278.9 23.1,278.9 23.1,333.1 104.8,333.1 		"/>
	</g>
	<g>
		<g>
			<rect x="275" y="311" class="st0" width="56" height="3.8"/>
			<rect x="275" y="319.5" class="st0" width="56" height="3.8"/>
			<rect x="275" y="328" class="st0" width="33.8" height="3.8"/>
			<rect x="260.2" y="302.6" class="st0" width="37" height="3.8"/>
		</g>
	</g>
</g>
</svg>
