<?xml version="1.0" encoding="utf-8"?>
<!-- Generator: Adobe Illustrator 24.2.1, SVG Export Plug-In . SVG Version: 6.00 Build 0)  -->
<svg version="1.1" id="Layer_1" xmlns="http://www.w3.org/2000/svg" xmlns:xlink="http://www.w3.org/1999/xlink" x="0px" y="0px"
	 viewBox="0 0 394.1 386.7" style="enable-background:new 0 0 394.1 386.7;" xml:space="preserve">
<style type="text/css">
	.st0{fill:#41464B;}
	.st1{fill:#19A206;}
	.st2{fill:#0D1342;}
	.st3{fill:#FFFFFF;}
	.st4{fill:#C6CEDB;}
	.st5{fill:#AFAFAF;}
	.st6{fill:#11175C;}
	.st7{fill:#EDEDF7;}
</style>
<g>
	<g>
		<g>
			<path class="st0" d="M324.5,318.8h-3.8V199c0-1.3-0.5-2.6-1.5-3.6c-1-0.9-2.2-1.5-3.6-1.5H121.7c-1.3,0-2.6,0.5-3.6,1.5
				s-1.5,2.2-1.5,3.6v119.8h-3.8V199c0-2.4,0.9-4.6,2.6-6.2c1.6-1.6,3.9-2.6,6.2-2.6h194.1c2.3,0,4.5,0.9,6.2,2.6
				c1.7,1.7,2.6,3.9,2.6,6.2L324.5,318.8L324.5,318.8z"/>
			<path class="st0" d="M334.5,339.2H102.8c-3,0-5.8-1.1-7.9-3.3c-2.1-2.1-3.3-4.9-3.3-7.9v-11h97l4.9,5.4h50.2l4.9-5.4h97v11.1
				c0,3-1.2,5.8-3.3,7.9C340.3,338,337.5,339.2,334.5,339.2z M95.5,320.7v7.4c0,2,0.8,3.8,2.2,5.2c1.4,1.4,3.3,2.2,5.2,2.2h231.7
				c2,0,3.8-0.8,5.2-2.2c1.4-1.4,2.1-3.2,2.1-5.2v-7.4h-91.6l-4.9,5.4H192l-4.9-5.4H95.5z"/>
			<g>
				<rect x="112.8" y="326.2" class="st0" width="3.8" height="3.8"/>
				<rect x="120.3" y="326.2" class="st0" width="3.8" height="3.8"/>
				<rect x="127.8" y="326.2" class="st0" width="3.8" height="3.8"/>
			</g>
			<rect x="305.8" y="326.2" class="st0" width="18.8" height="3.8"/>
		</g>
		<g>
			<polygon class="st1" points="127.2,204.6 127.2,271.3 147.6,271.3 154.3,258.2 174.6,258.2 181.4,243.9 201.7,243.9 208.5,254.9 
				228.8,254.9 235.6,246.2 255.9,246.2 262.7,231.9 283,231.9 289.8,242.9 310.1,242.9 310.1,204.6 			"/>
			<polygon class="st2" points="127.2,293.3 127.2,306.3 310.1,306.3 310.1,274.7 289.8,274.7 283,268.2 262.7,268.2 255.9,278 
				235.6,278 228.8,283.4 208.5,283.4 201.7,276.9 181.4,276.9 174.6,286.7 154.3,286.7 147.6,293.3 			"/>
		</g>
		<g>
			<polygon class="st0" points="148.3,295.1 127.2,295.1 127.2,291.4 146.8,291.4 153.6,284.8 173.7,284.8 180.4,275 202.5,275 
				209.3,281.5 228.2,281.5 235,276.1 255,276.1 261.7,266.3 283.8,266.3 290.6,272.9 310.1,272.9 310.1,276.6 289,276.6 282.3,270 
				263.7,270 256.9,279.9 236.3,279.9 229.5,285.3 207.8,285.3 201,278.7 182.4,278.7 175.6,288.6 155.1,288.6 			"/>
			<g>
				<rect x="134.7" y="234.6" class="st0" width="39.9" height="3.8"/>
				<rect x="134.7" y="242.1" class="st0" width="20" height="3.8"/>
			</g>
			<g>
				<rect x="202.5" y="212.1" class="st0" width="40.6" height="3.8"/>
				<rect x="182.1" y="219.6" class="st0" width="40.6" height="3.8"/>
				<rect x="182.1" y="212.1" class="st0" width="13.6" height="3.8"/>
			</g>
			<g>
				<rect x="134.7" y="212.1" class="st3" width="39.9" height="18.8"/>
				<rect x="156.6" y="219.6" class="st0" width="9.5" height="3.8"/>
				<rect x="143.3" y="219.6" class="st0" width="9.5" height="3.8"/>
			</g>
			<g>
				<rect x="283.9" y="212.1" class="st3" width="3.8" height="3.8"/>
				<rect x="291.4" y="212.1" class="st3" width="3.8" height="3.8"/>
				<rect x="298.9" y="212.1" class="st3" width="3.8" height="3.8"/>
			</g>
		</g>
	</g>
	<g>
		<g>
			<g>
				<rect x="223.5" y="149.6" class="st2" width="11.3" height="14.9"/>
				<rect x="238.5" y="131.2" class="st2" width="11.3" height="19.4"/>
				<rect x="253.5" y="160.8" class="st2" width="11.3" height="7.8"/>
				<rect x="268.5" y="137" class="st2" width="11.3" height="8.2"/>
				<rect x="283.5" y="126" class="st2" width="11.3" height="29"/>
				<rect x="298.5" y="154.2" class="st2" width="11.3" height="9.9"/>
				<rect x="313.5" y="142.7" class="st2" width="11.3" height="17.9"/>
			</g>
			<g>
				<rect x="223.5" y="168.3" class="st1" width="11.3" height="7.5"/>
				<rect x="238.5" y="154.4" class="st1" width="11.3" height="21.3"/>
				<rect x="253.5" y="172.3" class="st1" width="11.3" height="3.4"/>
				<rect x="268.5" y="148.9" class="st1" width="11.3" height="26.8"/>
				<rect x="283.5" y="158.7" class="st1" width="11.3" height="17"/>
				<rect x="298.5" y="167.9" class="st1" width="11.3" height="7.9"/>
				<rect x="313.5" y="164.4" class="st1" width="11.3" height="11.4"/>
			</g>
			<path class="st0" d="M324.8,183.2H321v-3.8h3.8V183.2z M317.3,183.2h-3.8v-3.8h3.8V183.2z M309.8,183.2H306v-3.8h3.8V183.2z
				 M302.3,183.2h-3.8v-3.8h3.8V183.2z M294.8,183.2H291v-3.8h3.8V183.2z M287.3,183.2h-3.8v-3.8h3.8V183.2z M279.8,183.2H276v-3.8
				h3.8V183.2z M272.3,183.2h-3.8v-3.8h3.8V183.2z M264.8,183.2H261v-3.8h3.8V183.2z M257.3,183.2h-3.8v-3.8h3.8V183.2z
				 M249.8,183.2H246v-3.8h3.8V183.2z M242.3,183.2h-3.8v-3.8h3.8V183.2z M234.8,183.2H231v-3.8h3.8V183.2z M227.3,183.2h-3.8v-3.8
				h3.8V183.2z"/>
		</g>
		<g>
			<polygon class="st0" points="341.9,280.4 322.6,280.4 322.6,276.6 338.1,276.6 338.1,125 314.6,101.4 210.1,101.4 210.1,192.1 
				206.4,192.1 206.4,97.7 316.2,97.7 341.9,123.4 			"/>
			<polygon class="st0" points="340,126.1 313.5,126.1 313.5,99.5 317.3,99.5 317.3,122.3 340,122.3 			"/>
		</g>
	</g>
	<g>
		<g>
			<rect x="298.3" y="249.8" class="st3" width="83.5" height="87.5"/>
			<path class="st4" d="M370.6,226.6h-61.2c-6.1,0-11.1,5-11.1,11.1v12.1h83.5v-12.1C381.8,231.6,376.8,226.6,370.6,226.6z"/>
			<rect x="331.9" y="236.3" class="st0" width="16.2" height="3.8"/>
			<path class="st4" d="M309.4,360.5h61.2c6.1,0,11.1-5,11.1-11.1v-12.1h-83.5v12.1C298.3,355.5,303.3,360.5,309.4,360.5z"/>
			<g>
				<g>
					<path class="st3" d="M351.2,348.9c0,2-1.8,3.7-4,3.7h-14.3c-2.2,0-4-1.7-4-3.7s1.8-3.7,4-3.7h14.3
						C349.4,345.2,351.2,346.9,351.2,348.9z"/>
				</g>
				<path class="st0" d="M347.5,354.5h-14.8c-3.1,0-5.6-2.5-5.6-5.6s2.5-5.6,5.6-5.6h14.8c3.1,0,5.6,2.5,5.6,5.6
					C353,352,350.5,354.5,347.5,354.5z M332.6,347.1c-1,0-1.9,0.8-1.9,1.8s0.8,1.8,1.9,1.8h14.8c1,0,1.8-0.8,1.8-1.8
					s-0.8-1.8-1.8-1.8H332.6z"/>
			</g>
			<path class="st0" d="M370.6,362.4h-61.2c-7.2,0-13-5.8-13-13V237.7c0-7.2,5.8-13,13-13h61.2c7.2,0,13,5.8,13,13v111.7
				C383.7,356.6,377.8,362.4,370.6,362.4z M309.4,228.5c-5.1,0-9.3,4.1-9.3,9.3v111.7c0,5.1,4.2,9.3,9.3,9.3h61.2
				c5.1,0,9.3-4.1,9.3-9.3V237.7c0-5.1-4.2-9.3-9.3-9.3h-61.2V228.5z"/>
			<rect x="298.3" y="247.9" class="st0" width="83.5" height="3.8"/>
			<rect x="298.3" y="335.5" class="st0" width="83.5" height="3.8"/>
		</g>
		<g>
			<path class="st2" d="M357.7,290.1c0,11.8-9.6,21.4-21.4,21.4c-5.9,0-11.3-2.4-15.1-6.3l15.1-15.1H357.7z"/>
			<path class="st1" d="M336.3,268.6V290l-15.1,15.1c-3.9-3.9-6.3-9.2-6.3-15.1C314.9,278.2,324.5,268.6,336.3,268.6z"/>
			<path class="st0" d="M367.1,284.4h-25.2v-25.2h1.9c12.9,0,23.3,10.5,23.3,23.3L367.1,284.4L367.1,284.4z M345.6,280.7h17.6
				c-0.9-9.3-8.3-16.7-17.6-17.6V280.7z"/>
		</g>
		<g>
			<rect x="324" y="317" class="st0" width="32.1" height="3.8"/>
			<rect x="332" y="324.5" class="st0" width="16.1" height="3.8"/>
		</g>
	</g>
	<g>
		<g>
			
				<rect x="132.9" y="151.9" transform="matrix(0.7071 -0.7071 0.7071 0.7071 -65.4529 149.4629)" class="st0" width="29.6" height="3.7"/>
			
				<rect x="33.3" y="139" transform="matrix(0.7071 -0.7071 0.7071 0.7071 -98.458 69.9366)" class="st0" width="3.7" height="29.6"/>
			<path class="st0" d="M162.7,147.1c-4.6,0-8.4-3.8-8.4-8.4s3.8-8.4,8.4-8.4s8.4,3.8,8.4,8.4C171.1,143.3,167.3,147.1,162.7,147.1z
				 M162.7,134.1c-2.5,0-4.6,2.1-4.6,4.6s2.1,4.6,4.6,4.6s4.6-2.1,4.6-4.6S165.3,134.1,162.7,134.1z"/>
			<path class="st0" d="M132.6,177.1c-4.6,0-8.3-3.8-8.3-8.4s3.8-8.4,8.3-8.4s8.4,3.8,8.4,8.4C141,173.4,137.3,177.1,132.6,177.1z
				 M132.6,164.2c-2.5,0-4.6,2.1-4.6,4.6s2.1,4.6,4.6,4.6s4.6-2.1,4.6-4.6S135.2,164.2,132.6,164.2z"/>
			<path class="st0" d="M50.2,177.1c-4.6,0-8.4-3.8-8.4-8.4s3.8-8.4,8.4-8.4s8.4,3.8,8.4,8.4C58.6,173.4,54.8,177.1,50.2,177.1z
				 M50.2,164.2c-2.5,0-4.6,2.1-4.6,4.6s2.1,4.6,4.6,4.6s4.6-2.1,4.6-4.6S52.8,164.2,50.2,164.2z"/>
			<path class="st0" d="M20.1,147.1c-4.6,0-8.4-3.8-8.4-8.4s3.8-8.4,8.4-8.4s8.4,3.8,8.4,8.4S24.8,147.1,20.1,147.1z M20.1,134.1
				c-2.5,0-4.6,2.1-4.6,4.6s2.1,4.6,4.6,4.6s4.6-2.1,4.6-4.6S22.7,134.1,20.1,134.1z"/>
			
				<rect x="52.3" y="156.3" transform="matrix(0.7071 -0.7071 0.7071 0.7071 -94.0551 89.2922)" class="st0" width="17" height="3.7"/>
			
				<rect x="120.2" y="149.8" transform="matrix(0.7072 -0.707 0.707 0.7072 -76.1582 132.6681)" class="st0" width="3.7" height="17"/>
		</g>
		<g>
			<g>
				<rect x="83.9" y="175.3" class="st4" width="15" height="54.6"/>
				<path class="st0" d="M91.4,164.3c-20.2,0-36.7-16.5-36.7-36.7s16.5-36.7,36.7-36.7s36.7,16.5,36.7,36.7S111.7,164.3,91.4,164.3z
					 M91.4,94.7c-18.2,0-33,14.8-33,33s14.8,32.9,33,32.9s32.9-14.8,32.9-32.9C124.4,109.4,109.6,94.7,91.4,94.7z"/>
				<rect x="89.6" y="162.4" class="st0" width="3.8" height="12.9"/>
				<rect x="80.7" y="173.4" class="st0" width="21.4" height="3.8"/>
				<rect x="80.7" y="180.9" class="st0" width="21.4" height="3.8"/>
			</g>
		</g>
		<g>
			<path class="st2" d="M74.4,144.6c-9.4-9.4-9.4-24.7,0-34.1c4.7-4.7,10.9-7.1,17.1-7.1v24.1L74.4,144.6z"/>
			<path class="st1" d="M108.5,144.6l-17-17v-24.1c6.2,0,12.3,2.3,17.1,7.1C117.9,120,117.9,135.2,108.5,144.6z"/>
			<path class="st0" d="M91.4,153.6c-6.9,0-13.5-2.7-18.4-7.6l-1.3-1.3L91.4,125l19.7,19.7l-1.3,1.3
				C104.9,150.9,98.4,153.6,91.4,153.6z M77.1,144.6c4,3.4,9,5.2,14.3,5.2s10.3-1.9,14.3-5.2l-14.3-14.3L77.1,144.6z"/>
		</g>
	</g>
	<g>
		<rect x="66.9" y="352.8" class="st4" width="150.6" height="15.5"/>
		<path class="st5" d="M43.6,356.1c0-0.9,0.3-1.7,1-2.4c0.7-0.6,1.5-1,2.3-1h4.4v15.5h-4.4c-0.8,0-1.7-0.3-2.3-1
			c-0.7-0.6-1-1.5-1-2.4V356.1z"/>
		<g>
			<polygon class="st0" points="218.1,370.1 216.9,366.5 234.9,360.5 216.9,354.5 218.1,351 246.8,360.5 			"/>
			<rect x="231.2" y="357.9" class="st0" width="3.8" height="5.2"/>
			<path class="st0" d="M217.5,370.2H66.9c-1,0-1.9-0.8-1.9-1.9v-15.5c0-1,0.8-1.9,1.9-1.9h150.6c1,0,1.9,0.8,1.9,1.9v15.5
				C219.4,369.3,218.6,370.2,217.5,370.2z M68.8,366.4h146.9v-11.8H68.8V366.4z"/>
			<rect x="66.9" y="358.7" class="st0" width="150.6" height="3.8"/>
			<path class="st0" d="M68.8,370.2H49.5v-19.3h19.3C68.8,350.9,68.8,370.2,68.8,370.2z M53.2,366.4H65v-11.8H53.2V366.4z"/>
			<path class="st0" d="M53.2,370.2h-6.3c-1.4,0-2.7-0.5-3.7-1.5s-1.5-2.3-1.5-3.7v-8.9c0-1.4,0.5-2.7,1.5-3.7s2.3-1.5,3.7-1.5h6.3
				V370.2z M46.9,354.6c-0.4,0-0.8,0.1-1,0.4s-0.4,0.6-0.4,1v8.9c0,0.4,0.2,0.8,0.4,1c0.3,0.3,0.6,0.4,1,0.4h2.6v-11.8L46.9,354.6
				L46.9,354.6z"/>
			<rect x="57.3" y="352.8" class="st0" width="3.8" height="15.5"/>
		</g>
	</g>
	<g>
		<polygon class="st1" points="27.9,295.2 52.3,245.3 76.6,295.2 		"/>
		<polygon class="st6" points="63.5,295.2 82.8,255.6 102.2,295.2 		"/>
		<polygon class="st7" points="11.8,295.2 24.5,269 37.4,295.2 		"/>
		<rect x="11.8" y="298.9" class="st0" width="90.4" height="3.8"/>
	</g>
	<g>
	</g>
	<circle class="st4" cx="184" cy="160.9" r="9.6"/>
	<path class="st0" d="M51.4,335.7c-5.2,0-9.4-4.2-9.4-9.4s4.2-9.4,9.4-9.4s9.4,4.2,9.4,9.4S56.5,335.7,51.4,335.7z M51.4,320.7
		c-3.1,0-5.6,2.5-5.6,5.6s2.5,5.6,5.6,5.6s5.6-2.5,5.6-5.6S54.5,320.7,51.4,320.7z"/>
	<path class="st4" d="M28,339.2c0,3-2.4,5.4-5.4,5.4s-5.4-2.4-5.4-5.4s2.4-5.4,5.4-5.4C25.6,333.8,28,336.2,28,339.2z"/>
</g>
</svg>
