<?xml version="1.0" encoding="utf-8"?>
<!-- Generator: Adobe Illustrator 23.1.1, SVG Export Plug-In . SVG Version: 6.00 Build 0)  -->
<svg version="1.1" id="Layer_1" focusable="false" xmlns="http://www.w3.org/2000/svg" xmlns:xlink="http://www.w3.org/1999/xlink"
	 x="0px" y="0px" viewBox="0 0 576 512" style="enable-background:new 0 0 576 512;" xml:space="preserve">
<style type="text/css">
	.st0{fill:#19A206;}
	.st1{fill:#11175C;}
</style>
<g>
	<path class="st0" d="M528,32H112c-26.5,0-48,21.5-48,48v16H48c-26.5,0-48,21.5-48,48v288c0,26.5,21.5,48,48,48h416
		c26.5,0,48-21.5,48-48v-16h16c26.5,0,48-21.5,48-48V80C576,53.5,554.5,32,528,32z M480,432c0,8.8-7.2,16-16,16H48
		c-8.8,0-16-7.2-16-16V144c0-8.8,7.2-16,16-16h16v240c0,26.5,21.5,48,48,48h368V432z M544,368c0,8.8-7.2,16-16,16H112
		c-8.8,0-16-7.2-16-16V80c0-8.8,7.2-16,16-16h416c8.8,0,16,7.2,16,16V368z"/>
	<path class="st1" d="M417,143c-9.4-9.4-24.6-9.4-33.9,0l-95,95l-31-31c-9.4-9.4-24.6-9.4-33.9,0l-88,88c-4.5,4.5-7,10.6-7,17v28
		c0,6.6,5.4,12,12,12h360c6.6,0,12-5.4,12-12v-92c0-6.4-2.5-12.5-7-17L417,143z M480,320H160v-4.7l80-80l48,48l112-112l80,80V320z"
		/>
	<path class="st1" d="M176,200c30.9,0,56-25.1,56-56c0-30.9-25.1-56-56-56c-30.9,0-56,25.1-56,56C120,174.9,145.1,200,176,200z
		 M176,120c13.2,0,24,10.8,24,24s-10.8,24-24,24s-24-10.8-24-24S162.8,120,176,120z"/>
</g>
</svg>
