<?xml version="1.0" encoding="utf-8"?>
<!-- Generator: Adobe Illustrator 23.1.1, SVG Export Plug-In . SVG Version: 6.00 Build 0)  -->
<svg version="1.1" id="Layer_1" focusable="false" xmlns="http://www.w3.org/2000/svg" xmlns:xlink="http://www.w3.org/1999/xlink"
	 x="0px" y="0px" viewBox="0 0 640 512" style="enable-background:new 0 0 640 512;" xml:space="preserve">
<style type="text/css">
	.st0{fill:#11175C;}
	.st1{fill:#001161;}
	.st2{fill:#19A206;}
</style>
<g>
	<path class="st0" d="M608,0H160c-17.7,0-32,13.1-32,29.3V128h128V32h256v288h-32v32h128c17.7,0,32-13.1,32-29.3V29.3
		C640,13.1,625.7,0,608,0z M224,96h-64V32h64V96z M608,320h-64v-64h64V320z M608,224h-64v-96h64V224z M608,96h-64V32h64V96z"/>
	<path class="st1" d="M112,320c26.5,0,48-21.5,48-48s-21.5-48-48-48s-48,21.5-48,48S85.5,320,112,320z M112,256c8.8,0,16,7.2,16,16
		s-7.2,16-16,16s-16-7.2-16-16S103.2,256,112,256z"/>
	<path class="st2" d="M416,160H32c-17.7,0-32,14.3-32,32v288c0,17.7,14.3,32,32,32h384c17.7,0,32-14.3,32-32V192
		C448,174.3,433.7,160,416,160z M416,480H32v-24l81.7-61.3l80,40l126.8-95.1l95.5,63.6V480z M416,364.8l-96.5-64.4l-129.2,96.9
		l-80-40L32,416V192h384V364.8z"/>
</g>
</svg>
