<?xml version="1.0" encoding="utf-8"?>
<!-- Generator: Adobe Illustrator 24.2.1, SVG Export Plug-In . SVG Version: 6.00 Build 0)  -->
<svg version="1.1" id="Layer_1" focusable="false" xmlns="http://www.w3.org/2000/svg" xmlns:xlink="http://www.w3.org/1999/xlink"
	 x="0px" y="0px" viewBox="0 0 512 512" style="enable-background:new 0 0 512 512;" xml:space="preserve">
<style type="text/css">
	.st0{fill:#FFFFFF;}
</style>
<path class="st0" d="M460,216h-14.5l-9-27.1c-8.1-24.3-24.2-44-44.5-58C411,117.9,424,96.7,424,72c0-39.8-32.2-72-72-72
	s-72,32.2-72,72c0,8.1,1.5,16.1,4.2,23.7c-28.8-7-59.3-2.4-84.8,12.8l-46.2,24.1c-6.1,3.6-11.3,8.5-15.4,14.2
	C129.1,71.2,109.8,0,72,0C15.2,0,0,160.9,0,256s15.2,256,72,256c22.9,0,39-26.4,50.1-64h56.8c33.6,0,64-20,77.2-50.9l19.3-39.7
	l43.7,19.6l-19.6,68.7c-7.9,27.6,8.1,56.4,35.7,64.3c4.7,1.3,9.5,2,14.3,2c23.2-0.1,43.5-15.4,50-37.7l24.4-85.4
	c6.9-24.3,2.5-50.4-12-71.1c6.3,1.5,12.7,2.2,19.2,2.2H460c28.7,0,52-23.3,52-52S488.7,216,460,216z M352,32c22.1,0,40,17.9,40,40
	s-17.9,40-40,40s-40-17.9-40-40C312,49.9,329.9,32,352,32C352,32,352,32,352,32z M72.7,480.1C58.5,474.6,32,392.8,32,256
	C32,121.3,57.7,40,72,32.2c14.3,7.7,40,89.1,40,223.8c0,16.9-0.4,32.8-1.1,48h31.9c0.8-17,1.2-33.3,1.2-48c0-13.1-0.3-27.5-1-42.5
	c16.4,16.9,42.2,20.6,62.7,8.9l18.9-9.8L165.8,344H116c-28.6-0.1-51.9,23-52,51.6c-0.1,19.1,10.4,36.7,27.1,45.7
	C84.5,464.6,77.6,478,72.7,480.1z M226.7,384.5c-7.4,17.4-28.8,31.5-47.8,31.5H116c-11,0-20-9-20-20s9-20,20-20h62.9
	c4.8,0,9.1-2.9,11-7.3l26.7-56.9c7,12.9,17.4,23.8,30,31.4L226.7,384.5z M460,288h-29c-20.7,0-42.8-15.9-49.3-35.5l-13.6-40.8
	c-2.8-8.2-8-15.4-15-20.7l-41.5,103.7l52.8,23.7c23.5,10.7,35.7,36.9,28.7,61.7l-24.4,85.4c-2.4,8.6-10.3,14.5-19.2,14.5
	c-1.9,0-3.7-0.3-5.5-0.8c-10.6-3-16.8-14.1-13.8-24.7l24.4-85.4c1.6-5.7-1.2-11.8-6.6-14.3c0,0-85.8-39-88.7-41.2
	c-17.9-13.3-25.4-36.6-18.5-57.9l37.8-87.6c0,0-16.9-3.8-20.5-3.8c-7.9,0-15.7,2.2-22.5,6.3l-45.3,23.5c-3.2,1.7-6.7,2.7-10.3,2.8
	c-11,0-20-8.9-20-20c0-7,3.7-13.5,9.7-17.2l45.3-23.5c13-7.8,27.9-12,43.1-12c6.9,0,13.8,0.9,20.5,2.5l68.2,17
	c27.9,6.9,50.3,27.6,59.3,54.9l13.6,40.8c1.6,4.9,6.2,8.2,11.4,8.2H460c11,0,20,9,20,20S471,288,460,288z"/>
</svg>
