<?xml version="1.0" encoding="utf-8"?>
<!-- Generator: Adobe Illustrator 24.2.1, SVG Export Plug-In . SVG Version: 6.00 Build 0)  -->
<svg version="1.1" id="Layer_1" xmlns="http://www.w3.org/2000/svg" xmlns:xlink="http://www.w3.org/1999/xlink" x="0px" y="0px"
	 viewBox="0 0 1111.2 662" style="enable-background:new 0 0 1111.2 662;" xml:space="preserve">
<style type="text/css">
	.st0{display:none;}
	.st1{display:inline;fill:#EAEBF3;}
	.st2{fill:#111A5D;}
	.st3{fill:#EAEBF3;}
	.st4{fill:#C6CEDB;}
	.st5{fill:#FBFBFD;}
	.st6{fill:#11175C;}
	.st7{fill:#0D1342;}
	.st8{fill:#E9D6B8;}
	.st9{fill:#003366;}
	.st10{fill:#E2C59C;}
	.st11{fill:#163F59;}
	.st12{fill:#15100C;}
	.st13{fill:#194866;}
	.st14{fill:url(#SVGID_1_);}
	.st15{fill:#EDEDF7;}
	.st16{fill:#19A206;}
	.st17{fill:url(#SVGID_2_);}
	.st18{fill:url(#SVGID_3_);}
	.st19{fill:#EFBC90;}
	.st20{fill:#F4CAAB;}
</style>
<g id="Bg" class="st0">
	<rect x="-6.5" y="-11.5" class="st1" width="1131.3" height="688.1"/>
</g>
<g id="Social_Media">
	<g id="Bg_3_">
	</g>
	<g id="Graphic_2_">
		<g>
			<path class="st2" d="M541.8,135.6h-71.2c-6,0-10.9,4.9-10.9,10.9v25.6c0,6,4.9,10.9,10.9,10.9h71.2c6,0,10.9-4.9,10.9-10.9v-25.6
				C552.7,140.4,547.8,135.6,541.8,135.6z"/>
			<path class="st2" d="M841.3,176.2H577.2c0,0,9-40.9,11.4-54.7c3.6-20.8,20.9-36.5,42-36.5h157.3c21.1,0,38.4,15.7,42,36.5
				C832.3,135.3,841.3,176.2,841.3,176.2z"/>
			<path class="st3" d="M801.8,162.7H616.6c0,0,6.4-22.4,8-30.1c3-14.5,14.7-25.6,29.5-25.6h110.3c14.8,0,26.5,11.1,29.5,25.6
				C795.4,140.3,801.8,162.7,801.8,162.7z"/>
			<path class="st4" d="M870.7,150.3H449.3c-36.7,0-66.4,29.8-66.4,66.4v250.6c0,36.7,29.8,66.4,66.4,66.4h421.4
				c36.7,0,66.4-29.8,66.4-66.4V216.7C937.1,180,907.4,150.3,870.7,150.3z"/>
			<ellipse class="st5" cx="660" cy="342" rx="171.3" ry="171.3"/>
			
				<ellipse transform="matrix(0.2407 -0.9706 0.9706 0.2407 142.8156 580.3851)" class="st2" cx="442.4" cy="198.9" rx="28.7" ry="28.7"/>
			<ellipse class="st2" cx="496.5" cy="191.3" rx="15.9" ry="15.9"/>
			<ellipse class="st6" cx="660" cy="342" rx="163.7" ry="163.7"/>
			<path class="st4" d="M802.3,342c0,1.4,0,2.8-0.1,4.2c-1,33.3-13.4,63.8-33.5,87.6c-6.2,7.4-13.2,14.1-20.8,20.1
				c-10.8,8.5-22.8,15.5-35.8,20.6c-16.2,6.4-33.8,9.9-52.3,9.9c-78.6,0-142.4-63.7-142.4-142.4c0-18.5,3.5-36.1,9.9-52.3
				c5.1-13,12.1-25,20.6-35.8c6-7.6,12.7-14.5,20.1-20.8c23.8-20.1,54.2-32.5,87.6-33.5c1.4,0,2.8-0.1,4.2-0.1
				C738.6,199.6,802.3,263.4,802.3,342z"/>
			<path class="st7" d="M705.5,342c0,0.5,0,0.9,0,1.4c-0.3,10.7-4.3,20.4-10.7,28c-2,2.4-4.2,4.5-6.6,6.4c-3.5,2.7-7.3,5-11.5,6.6
				c-5.2,2-10.8,3.2-16.7,3.2c-25.2,0-45.6-20.4-45.6-45.6c0-5.9,1.1-11.5,3.2-16.7c1.6-4.2,3.9-8,6.6-11.5c1.9-2.4,4.1-4.6,6.4-6.6
				c7.6-6.4,17.4-10.4,28-10.7c0.5,0,0.9,0,1.3,0C685.1,296.5,705.5,316.9,705.5,342z"/>
			<path class="st2" d="M889.2,175.2H818c-6,0-10.9,4.9-10.9,10.9v25.6c0,6,4.9,10.9,10.9,10.9h71.2c6,0,10.9-4.9,10.9-10.9v-25.6
				C900.1,180.1,895.2,175.2,889.2,175.2z"/>
		</g>
		<g>
			<polygon class="st7" points="1018.7,607.8 1027.6,607.8 1012.8,489.8 999.9,489.8 			"/>
			<polygon class="st7" points="871.7,607.8 862.8,607.8 877.5,489.8 890.5,489.8 			"/>
			<rect x="865" y="485.2" class="st7" width="164.9" height="8.4"/>
			<rect x="967.9" y="485.2" class="st7" width="55.6" height="8.4"/>
		</g>
		<g>
			<g>
				<path class="st2" d="M909.3,353.9c0,8.1,6.6,14.7,14.7,14.7l3.7-7c8.1,0,14.7-12.3,14.7-20.4v-5.5c0-8.1-6.6-14.7-14.7-14.7H924
					c-8.1,0-14.7,6.6-14.7,14.7V353.9z"/>
				<path class="st2" d="M939.5,335.3c1-0.1,2-0.2,3-0.2c0,1.3,0,2.5,0.2,3.8c1.8,12.4,12.8,21.3,25.3,21
					c-0.2,11.9-9.2,22.3-21.6,24.1c-13.7,2-26.4-7.3-28.3-20.8C916.2,349.8,925.8,337.3,939.5,335.3z"/>
				<path class="st8" d="M915.2,326.6c0,1.4,0.1,2.7,0.3,4.1c1.5,9.5,7.2,16.6,13.5,17.5c0.2,4.3,1.7,8,2.1,11.4
					c0.8,7.4,9,8.2,9,8.2c1.1,6.6-24.9,15.8-24.4,14.7c0.5-1.1,6.1-8.9,7.9-16c1.3-5-0.4-9.1-2.3-11.9c-3.5-4.1-8.6-4.1-8.6-4.1
					c-0.5,0-0.9-0.2-1.2-0.5c-0.3-1-0.5-2-0.5-3.1v-12.1C911.1,331.5,912.7,328.5,915.2,326.6z"/>
				<path class="st9" d="M899.2,462.1c0-0.1,0-0.1-0.1-0.2c0,0,0.1-0.1,0.1-0.2c2-10.4,5.1-20.6,9.9-29.7
					c3.3-6.5,10.1-12.6,13.1-15.7c7.7,4.2,15.3,2.3,22.5,7.7c0.9,3,1.7,6.2,2.2,9.7c1.1,6.3,2,12.1,2.8,17.6c11.1,1,38.6,3.2,49,5.2
					c6.1,1.4,6.5,3.8,7.4,4.6c-0.5,10-8.7,15.6-13.6,23.7c-0.9,1.4-66.7,0.2-78,0.8C916.2,486.1,892.4,486.3,899.2,462.1z"/>
				<path class="st10" d="M1001.9,475.1c1.8-2.1,2.8-4.7,4.2-7c1-4.5,1-7.5-0.3-8.5c-4.9-4-21.5,4.4-63.2,66.9
					c-9.1,13.6-27.9,40-22.3,36.4c9.6-6.1,12-13.6,18.1-20C988.5,491,993.8,484.5,1001.9,475.1z"/>
				<path class="st11" d="M918.1,560.9l7.4-11.8c0.7-1.2,1.9-1.8,3-1.7l-5.7,9.1c-1.1,1.8-0.8,4.1,0.6,5.3c0.5,0.4,1,0.6,1.6,0.6
					l-1.7,2.7c-1.1,1.8-3.2,2.3-4.6,1.1C917.2,565,917,562.7,918.1,560.9z"/>
				<path class="st8" d="M916.6,406.2l-11.5-20.4c-4.3-6-2.1-13.8,4.7-15.6l35.9-8.4c4.3-0.7,11.5,5.2,10.3,12.7l-7.3,24.5
					L916.6,406.2z"/>
				<path class="st9" d="M951.5,366.2c-4.8,22.2,7.2,61.8,7.2,61.8s6.9,1.4,8.2-2.3c1.7-4.8-2.6-16.1-5.3-47.1
					C959.9,359.4,952.3,362.5,951.5,366.2z"/>
				<path class="st9" d="M903,375.3c-3.1,27.1-10.5,62-10.5,62s7.5,6,9.8,2.6c3-4.3,5.9-20,9.2-50
					C913.5,371.4,903.4,371.5,903,375.3z"/>
				<path class="st5" d="M946,414c0.1,2.8-2,9.1-4.1,9.2l-21.3-1.7c-2.1,0-7.4-1.8-7.4-4.6l-0.2-9.4c-0.1-2.8,1.6-5.1,3.7-5.1
					l26.4-7.4c2.1,0,3.9,2.2,4,5L946,414z"/>
				<path class="st12" d="M944.3,423.5c0,0.3-1.5,0.5-3.3,0.4l-20.4-1.3c-1.8-0.1-3.3-0.5-3.2-0.8l0.1-1.2c0-0.3,1.5-0.5,3.3-0.4
					l20.4,1.3c1.8,0.1,3.3,0.5,3.2,0.8L944.3,423.5z"/>
				<path class="st5" d="M951.5,372.4c-0.4-1.4-1-2.6-1.6-3.6c-18.4,14.2-32.1,9-41.8,7.1c-0.1,0.6-0.1,1.2-0.1,1.8
					c-0.1,6.7,0.6,13.4,0.6,20.1c0,5.3,7.6,9.7,11.2,9.7c13.4,0.1,16.4-0.9,29.2-4.8c3.4-1.1,9.6-7,8.1-11.8
					C955.2,384.6,953.4,378.5,951.5,372.4z"/>
				<path class="st9" d="M917.9,368.5c0,0-12.6,0.1-14.8,6.9c-2.2,6.8,2.7,16.4,2.7,16.4s4,12.3,5.3,19c1.2,6.7-2.8,13.3-1.5,11.9
					c0.3-0.3,3.5-0.1,8.4-2.7c5-2.6,1.8-11.7,1.2-14.6c-0.6-3-3.7-17.5-3.2-19.9C916.4,383.1,917.9,368.5,917.9,368.5z"/>
				<path class="st9" d="M958.7,371.1c0,0,1-5.6-1.7-7.8c-4-3.1-13.3-2.3-16.3-1.4c-3,0.9-5,1.8-5,1.8s10.7,3.4,11.1,22.6
					c0.1,3.3-0.6,10-1.7,15.2c-1.1,5.2-1.1,15.1-1.1,15.1s6.4,0.9,6.7,1.7c0.3,0.8,0.4-6,4.5-12.5
					C959.2,399.2,958.7,371.1,958.7,371.1z"/>
				<path class="st9" d="M946.1,361.2c5.3,4.1,8.6,7.6,8.7,30c0,3.6-1,10.3-1.4,16.5c0.3-0.6,2.3-3.9,2.7-4.6c3.5-6.6,2.7-32,2.7-32
					s0.5-5.1-2-7.2C954.3,361.6,949.7,360.9,946.1,361.2z"/>
				<path class="st8" d="M990.3,479.7c1.4-2.3,1.9-5,2.8-7.5c0.2-4.5-0.6-7.1-1.8-8.3c-5.6-5.1-17.9,4.3-37.9,45.4
					c-10.1,20.7-18.1,39.9-31.7,51c-2,1.6-2.5,1.8-3.2,3.7c-2,5.8-1.1,13.1-0.9,12.9c3-2.8,8.5-12,15.8-21
					C949.1,536.6,972.2,508.5,990.3,479.7z"/>
				<path class="st13" d="M913.8,572.7l6.4-12.4c0.6-1.2,1.7-1.9,2.8-1.9l-4.9,9.6c-1,1.8-0.5,4.2,1,5.2c0.5,0.3,1.1,0.5,1.7,0.5
					l-1.5,2.8c-1,1.8-3,2.5-4.5,1.5C913.3,576.9,912.9,574.5,913.8,572.7z"/>
				<g>
					<path class="st10" d="M862.6,480.5c0,0-2.2,2.1-2.5,3.6c-0.2,1.1-0.3,6.1-0.3,6.1s1.2-1.4,1.3-3.5
						C861.2,483.9,862.6,480.5,862.6,480.5z"/>
					<path class="st10" d="M861.4,483.8c-1.5,1.2-2,3.4-2,6.1c0,2.6-1.3,3.5-1.3,3.5s-0.2-1.6,0.3-5.6c0.1-1.1,0.3-2.2,0.5-3.3
						C859.4,480.9,865.2,480.7,861.4,483.8z"/>
					<path class="st8" d="M864.7,478.3c0.2,1.3-1,3.5-0.6,4.3c1.2,2.1,2.4,3,2.4,3c-2.7,0.8-4.3-2.9-5.8-3.7
						C859.1,481,864,474.9,864.7,478.3z"/>
					<path class="st8" d="M875.1,466.4c-4,3.1-8.6,6.6-10,9.2c-2,3.6-1.5,6.4-3.7,8.3c-0.3,0.2-0.5,0.5-0.7,0.7
						c-0.6,0.6-1.4,1.2-1.6,1.5c-0.2,0.3-0.8,1.3-0.8,0.8c0.6-4.3,1.7-9.1,2.4-9.9c1.3-1.7,9-10.9,12.6-13.7
						C877.4,460,880.5,462.1,875.1,466.4z"/>
					<path class="st8" d="M861.1,483.5c0,0-0.7-0.8-1.3-0.3c-1.1,0.8-2.4,3.1-2.9,4c-0.5,0.9-2.1,5.8-2.1,5.8s1.6-1,2.3-2.9
						C858.1,487.1,861.1,483.5,861.1,483.5z"/>
					<path class="st8" d="M878.2,457.2c3.5-0.1,11.7-5.3,12.5-3.6c-5.8,8.2-28.7,21.8-28.7,21.8L878.2,457.2z"/>
				</g>
				<path class="st9" d="M876.2,461.9c1.3,0.6,2,1.6,2,3.3c6-4.6,22.9-17.6,24.4-26.1c0.5-2.6-4.5-9.1-12.3,0.2
					c-9.6,11.5-14.2,18.1-16,22.1C874.9,461.4,875.7,461.7,876.2,461.9z"/>
				<g>
					<path class="st10" d="M978.9,382.4c0,0,1,0.4,1.3-0.3c0.6-1.2,0.7-3.9,0.7-4.9c0-1.1-0.9-6.1-0.9-6.1s-1,1.6-0.6,3.7
						C979.9,377.7,978.9,382.4,978.9,382.4z"/>
					<path class="st10" d="M979,381.6c0.8-1.8,0.2-3.9-1.1-6.3c-1.2-2.3-0.5-3.8-0.5-3.8s0.9,1.4,2.4,5.1c0.4,1,0.8,2.2,0.8,3.3
						C980.7,383.3,977,386.2,979,381.6z"/>
					<path class="st9" d="M961.5,423.5c-0.5-7.7,12.4-27.9,12.4-27.9s7.1-6.1-4.5,23.6C965.9,428.2,961.7,425.4,961.5,423.5z"/>
					<path class="st8" d="M978.8,379.5l0.8,0.5l0.7,3.3c0,0-1.2,5.9-2.4,8c-1.2,2.1-2.8,11.2-3.3,12.2s-5.8,1.3-5.8,1.3
						s3.8-8.8,5-12.4c1.2-3.6,1.2-9.3,1.6-10.8c0.7-2.4,1-3.7,1-3.7s1.3,0.6,0.3,4.5c-0.2,1,1,0.8,1,0.8L978.8,379.5z"/>
					<path class="st8" d="M979.3,383.7c0,0,0.8-3,0.2-4.4c-0.4-1-3-5.4-3-5.4s-0.3,1.9,0.7,3.7C978.8,380.1,979.3,383.7,979.3,383.7
						z"/>
					<path class="st10" d="M977.9,383.1c0,0-0.8,0.2-1.1,0c0,0.3,0.1,0.6,0.1,0.8c0.1,0.5,0,4,0,4s0.5-2.5,0.9-3.2
						c0.2-0.4,0.4-1.5,0.5-2.3c0-0.1,0-0.3,0-0.5L977.9,383.1z"/>
					<path class="st10" d="M976.8,382.3c0.6-2.6,0.2-3.7-0.1-4.2c-0.2,0.6-0.4,1.6-0.8,3c-0.2,0.5-0.2,1.5-0.3,2.8
						c0,0.2,0.9,0.4,1.4,2.5c0.1,0.4,0.7-1.9,0.7-3.3C977.3,383.1,976.6,383.1,976.8,382.3z"/>
				</g>
				<path class="st9" d="M971.3,413.6c0-1.1-5.8-2.5-6.8-0.7l-0.9,1.2c0,0-7.5,11-1.5,14.3C962.1,428.5,969.1,429.2,971.3,413.6z"/>
			</g>
		</g>
		<g>
			<g>
				
					<rect x="285.1" y="353" transform="matrix(0.9885 -0.151 0.151 0.9885 -57.3883 58.2281)" class="st5" width="139.3" height="108"/>
				
					<linearGradient id="SVGID_1_" gradientUnits="userSpaceOnUse" x1="284.8275" y1="851.5723" x2="466.3792" y2="851.5723" gradientTransform="matrix(0.9885 -0.151 -0.151 -0.9885 144.3398 1299.2959)">
					<stop  offset="0" style="stop-color:#FFE2E4"/>
					<stop  offset="1" style="stop-color:#A4B8EA"/>
				</linearGradient>
				<polygon class="st14" points="418,438.1 303.6,455.6 291,373.4 405.4,356 				"/>
				
					<rect x="296.7" y="364.2" transform="matrix(0.9885 -0.151 0.151 0.9885 -57.2036 58.1869)" class="st15" width="115.7" height="83.1"/>
				<circle class="st16" cx="386.8" cy="378.3" r="7.4"/>
				<polygon class="st6" points="332.9,400.8 307.1,455.1 373.7,444.9 				"/>
				<polygon class="st6" points="372.5,407.4 353.2,448 403,440.4 				"/>
			</g>
			<g>
				
					<rect x="261.7" y="486.2" transform="matrix(0.3099 -0.9508 0.9508 0.3099 -303.1386 659.5411)" class="st5" width="82.1" height="104.8"/>
				
					<linearGradient id="SVGID_2_" gradientUnits="userSpaceOnUse" x1="64.5251" y1="-1253.8722" x2="201.0846" y2="-1253.8722" gradientTransform="matrix(0.9508 0.3099 0.3099 -0.9508 589.0444 -688.4281)">
					<stop  offset="0" style="stop-color:#FFE2E4"/>
					<stop  offset="1" style="stop-color:#A4B8EA"/>
				</linearGradient>
				<polygon class="st17" points="334.9,580.5 252.1,553.5 271.5,494 354.3,521 				"/>
				
					<rect x="271.9" y="493.7" transform="matrix(0.3099 -0.9508 0.9508 0.3099 -301.569 659.0344)" class="st15" width="62.5" height="87.1"/>
				
					<ellipse transform="matrix(0.2069 -0.9784 0.9784 0.2069 -253.1517 747.0803)" class="st16" cx="334.2" cy="529.7" rx="5.5" ry="5.5"/>
				<polygon class="st6" points="290.4,526.6 254.6,554.3 302.9,570 				"/>
				<polygon class="st6" points="314.7,544.4 288,565.2 324.1,576.9 				"/>
			</g>
			<g>
				
					<rect x="265.6" y="275.5" transform="matrix(0.2742 -0.9617 0.9617 0.2742 -85.795 505.8181)" class="st5" width="53.2" height="68.5"/>
				
					<linearGradient id="SVGID_3_" gradientUnits="userSpaceOnUse" x1="-25.9679" y1="-890.9232" x2="63.3239" y2="-890.9232" gradientTransform="matrix(0.9617 0.2742 0.2742 -0.9617 534.2787 -548.3895)">
					<stop  offset="0" style="stop-color:#FFE2E4"/>
					<stop  offset="1" style="stop-color:#A4B8EA"/>
				</linearGradient>
				<polygon class="st18" points="314.1,336.6 259.4,321 270.6,281.6 325.4,297.2 				"/>
				
					<rect x="271.9" y="280.6" transform="matrix(0.2742 -0.9617 0.9617 0.2742 -85.0485 505.526)" class="st15" width="40.9" height="56.9"/>
				<ellipse class="st16" cx="312.4" cy="303.4" rx="3.6" ry="3.6"/>
				<polygon class="st6" points="283.7,302.4 261.1,321.4 293,330.5 				"/>
				<polygon class="st6" points="300.1,313.5 283.1,327.7 307,334.5 				"/>
			</g>
			<g>
				<path class="st19" d="M231.5,512.9l-0.8-0.2L157,499.2l-11.7-2.1l-3,25l11.9,0.7l68.8,4.1l3.8,71l0.1,2.9l5.4,0l0.2-2.9
					l4.6-77.8C237.3,516.7,234.9,513.6,231.5,512.9z"/>
				<path class="st2" d="M162.5,491.1c7.4,16.7,67.1,10.5,75.5,25.1c6.8,11.7-0.2,71.3-0.2,71.3l-15.8-0.4c0,0,0.1-50.7-3-54.1
					c-2.3-2.5-65.7,3.3-81.5-8c-13.6-9.7-5.8-33.8-5.8-33.8L162.5,491.1z"/>
				<path class="st7" d="M255.1,602.9l-4.5-0.8l0,0l-16.5-6.5v0.1c0,0-0.2,2.8-3.7,3.3c-2.5,0.4-4.2-0.3-4.9-0.7
					c-0.2-0.2-0.3-0.2-0.4-0.2c-1.1,0-2,1.8-2,4c0,0.7,0.1,1.4,0.3,2l0,3.1l32.9,0.3l0-3.1C256.4,603.6,255.8,603,255.1,602.9z"/>
				<path class="st20" d="M152.5,593.2l0.1-1l4.5-76.9l0.7-12.6l-26.9,0.1l0.9,12.6l4.4,63.5l-47.6-24.7l-2.7-1.4l-3,4.9l2.5,1.8
					l55.4,39.3c1.1,0.8,2.4,1.3,3.9,1.4C148.7,600.4,152.2,597.3,152.5,593.2z"/>
				<path class="st2" d="M164.9,519.6c-12.3,11.8-2.5,75.6-14.4,81c-13.2,5.9-61.3-33.4-61.3-33.4l6.9-13.7c0,0,30.8,19.4,33.4,18
					c3.2-1.8-11.1-57.2-1.3-75.5c7.6-14.2,29.2-12.6,29.2-12.6L164.9,519.6z"/>
				<path class="st7" d="M65.8,570.6l3.7-2.7l0,0l16-7.6l-0.1-0.1c0,0-1.9-2.1,0.1-5c1.5-2.1,3.1-2.8,3.8-3.1c0.2,0,0.4,0,0.4-0.1
					c0.8-0.8,0.1-2.7-1.5-4.2c-0.5-0.5-1.1-0.9-1.6-1.2l-2.2-2.1l-22.7,23.8l2.3,2.2C64.4,571,65.2,571.1,65.8,570.6z"/>
				<polygon class="st20" points="201.3,447.2 189.5,440 203.1,417.5 210.3,421.9 				"/>
				<path class="st20" d="M230.5,418.5c-3.6,10.5-10.7,18.9-17.5,17.5c-6.4-1.3-12.4-11.8-11.1-23.4c1.4-12.3,7.9-18.2,17.3-16.2
					C229.1,398.5,234.4,407,230.5,418.5z"/>
				<path class="st6" d="M213.4,413.2c3.1-3.3,7.5-3.2,10.7-2.6c3.2,0.5,7.8,3.3,9,1.3s2.3-10.6-9.7-16.4c-10.9-5.2-19.8-0.8-25,6.6
					c-4.5,6.5-2.6,15.9,3.4,16.4C207.8,419,209.6,417.2,213.4,413.2z"/>
				<path class="st20" d="M211.8,416.5c-0.3,2-1.8,3.4-3.4,3.2s-2.8-2-2.5-4s1.8-3.4,3.4-3.2S212.1,414.5,211.8,416.5z"/>
				<path class="st6" d="M226,384.5c0.5,5.4-4.3,12.4-11,13s-12.8-5.3-13.3-10.7c-0.5-5.4,4.8-7.2,11.5-7.9
					C219.9,378.3,225.4,379.1,226,384.5z"/>
				<path class="st19" d="M190.4,448.2l25.6,27.5l-7,1l20.7-36.7l1.6-2.9l5.6,3l-1.5,2.9l-18.7,37.7c-1.1,2.1-3.6,3-5.8,1.9
					c-0.4-0.2-0.7-0.4-1.1-0.7l-0.2-0.2l-27.2-26l-4-3.8l8.1-8L190.4,448.2z"/>
				<path class="st19" d="M239.8,428.2c1.9,1.2,2.5,5.5,0.4,9.9c-1.9,4-5.5,5.4-7.5,4.3C228.2,439.9,236.8,426.4,239.8,428.2z"/>
				<path class="st19" d="M234.1,428.8c-1-0.2-2.6,2-3.5,5.3c-0.8,3-0.2,5.4,0.8,5.6C233.6,440.3,235.7,429.1,234.1,428.8z"/>
				<path class="st9" d="M180.7,446c7.5-5.6,15.5,4.5,18.6,7.9c3.1,3.4,9.8,14,12.3,13.5c2.5-0.5,13.7-23.8,15.4-23.5
					c1.8,0.3,6.8,3.3,7.4,4.6s-9.7,35.4-20.3,37c-5.1,0.8-21.3-12.6-24.6-15.3C186.2,467.5,169.4,454.4,180.7,446z"/>
				<path class="st5" d="M193.6,435.5c0,0-38.9,16.3-55.6,50.1c0,0-5.7,5,17,18.9s26,11.6,26,11.6c4.1-21.4,11.1-43.9,23.6-68.5
					C204.6,447.5,196.1,442.3,193.6,435.5z"/>
				<path class="st9" d="M205.5,444.4c0,0-18.8,26.8-27.8,48.6c-9,21.8-9.4,43.9-9.4,43.9s-45.8-27.5-46.6-41.3
					c-0.8-13.8,55.8-59,71.5-61.8L205.5,444.4z"/>
				<g>
					<path class="st2" d="M247.5,405.1l-7.9-2.1c-0.4-0.1-0.7,0.1-0.8,0.5l-3.3,12c-0.1,0.3,0,0.5,0.2,0.7l-2,7.3
						c-0.1,0.4,0.1,0.8,0.5,0.9l2,0.5c0.4,0.1,0.8-0.1,0.9-0.5l1.9-7.2l3.5,0.9c0.3,0.1,0.7-0.1,0.8-0.4L248,406
						C248.1,405.6,247.9,405.2,247.5,405.1z"/>
					<path class="st2" d="M239,418l-3.8-1c-0.4-0.1-0.8,0.1-0.9,0.5l-3,11c-0.1,0.4,0.1,0.8,0.5,0.9l3.8,1c0.4,0.1,0.8-0.1,0.9-0.5
						l3-11C239.6,418.5,239.4,418.1,239,418z"/>
					<path class="st2" d="M267.2,431.3l-27.7-7.5c-0.2,0-0.3,0-0.4,0.2l-3.9,14.4c0,0.2,0.1,0.3,0.2,0.4l27.7,7.5
						c0.2,0,0.3,0,0.4-0.2l3.9-14.4C267.5,431.5,267.4,431.3,267.2,431.3z"/>
					
						<rect x="222.5" y="426.6" transform="matrix(0.2623 -0.965 0.965 0.2623 -243.7708 539.9064)" class="st2" width="17.4" height="5.6"/>
					<path class="st2" d="M267,430.5l-23.2-6.3c-0.2,0-0.3,0-0.4,0.2l-4.3,15.7c0,0.2,0.1,0.3,0.2,0.4l23.2,6.3c0.2,0,0.3,0,0.4-0.2
						l4.3-15.7C267.2,430.7,267.1,430.6,267,430.5z"/>
					<path class="st2" d="M265.2,429.1l-19.2-5.2c-0.2,0-0.3,0-0.4,0.2l-4.8,17.5c0,0.2,0.1,0.3,0.2,0.4l19.2,5.2
						c0.2,0,0.3,0,0.4-0.2l4.8-17.5C265.5,429.3,265.4,429.1,265.2,429.1z"/>
					<path class="st2" d="M240.2,419.4l-6.4-1.7c-1-0.3-2,0.3-2.3,1.3l-5.4,19.8c-0.3,1,0.3,2,1.3,2.3l6.4,1.7c1,0.3,2-0.3,2.3-1.3
						l5.4-19.8C241.8,420.7,241.2,419.7,240.2,419.4z"/>
				</g>
				<path class="st20" d="M190.6,450.7l25.4,27.7l-7,1l20.8-36.6l1.6-2.9l5.6,3l-1.5,2.9l-18.9,37.6c-1.1,2.1-3.6,3-5.8,1.9
					c-0.4-0.2-0.7-0.5-1-0.7l-0.2-0.2l-27.1-26.1l-4-3.8l8.1-7.9L190.6,450.7z"/>
				<path class="st20" d="M240,430.9c1.9,1.2,2.4,5.5,0.4,9.9c-1.9,4-5.5,5.3-7.5,4.2C228.4,442.5,237.1,429,240,430.9z"/>
				<path class="st9" d="M180.9,448.4c7.5-5.6,15.5,4.6,18.6,8s9.8,14,12.3,13.5c2.5-0.5,13.8-23.7,15.5-23.4
					c1.8,0.3,6.8,3.3,7.4,4.7c0.6,1.4-9.8,35.4-20.5,37c-5.1,0.8-21.2-12.7-24.5-15.4C186.3,469.9,169.6,456.8,180.9,448.4z"/>
				<path class="st20" d="M234.4,431.4c-1-0.2-2.6,2-3.6,5.3c-0.8,3-0.2,5.4,0.7,5.6C233.8,442.9,235.9,431.7,234.4,431.4z"/>
			</g>
		</g>
	</g>
	<g id="Elements_3_">
	</g>
	<g id="Text_3_">
	</g>
</g>
<g id="Share_your_story">
	<g id="Bg_2_">
	</g>
	<g id="Graphic_1_">
	</g>
	<g id="Elements_2_">
	</g>
	<g id="Text_2_">
	</g>
</g>
<g id="Engaging_Content">
	<g id="Bg_1_">
	</g>
	<g id="Graphics">
	</g>
	<g id="Elements_1_">
	</g>
	<g id="Text_1_">
	</g>
</g>
<g id="Always_stay_connected">
	<g id="BG">
	</g>
	<g id="Graphic">
	</g>
	<g id="Elements">
	</g>
	<g id="Text">
	</g>
</g>
<g id="Layer_22">
</g>
</svg>
