<?xml version="1.0" encoding="utf-8"?>
<!-- Generator: Adobe Illustrator 23.1.1, SVG Export Plug-In . SVG Version: 6.00 Build 0)  -->
<svg version="1.1" xmlns="http://www.w3.org/2000/svg" xmlns:xlink="http://www.w3.org/1999/xlink" x="0px" y="0px"
	 viewBox="0 0 1111.19 662.03" style="enable-background:new 0 0 1111.19 662.03;" xml:space="preserve">
<style type="text/css">
	.st0{display:none;}
	.st1{display:inline;fill:#EAEBF3;}
	.st2{fill:#0D1342;}
	.st3{fill:#11175C;}
	.st4{fill:#E2C59C;}
	.st5{fill:#E9D6B8;}
	.st6{fill:#C6CEDB;}
	.st7{fill:#F7F8FC;}
	.st8{fill:#111A5D;}
	.st9{fill:#EDEDF7;}
	.st10{fill:#FFFFFF;}
	.st11{fill:#003366;}
	.st12{fill:#4D5068;}
	.st13{fill:#DBDBDB;}
	.st14{fill:#FF5722;}
	.st15{fill:#FBFBFD;}
	.st16{fill:#282D33;}
	.st17{fill:#596273;}
	.st18{fill:#0E1951;}
	.st19{fill:url(#SVGID_1_);}
	.st20{fill:#19A206;}
	.st21{fill:#FDFDFF;}
	.st22{fill:#EAEBF3;}
	.st23{fill:#F1FAFC;}
	.st24{fill:#E0C9A4;}
	.st25{fill:url(#SVGID_2_);}
	.st26{fill:url(#SVGID_3_);}
	.st27{fill:url(#SVGID_4_);}
	.st28{fill:#EFBC90;}
	.st29{fill:#F4CAAB;}
	.st30{fill:#F4DA80;}
	.st31{fill:#474F59;}
	.st32{fill:#FEB04C;}
	.st33{fill:#E7F5FE;}
	.st34{fill:#C3D80E;}
	.st35{fill:#474EC9;}
	.st36{fill:#9FC400;}
	.st37{fill:#6E57DA;}
	.st38{fill:#4DB544;}
	.st39{fill:#CC5073;}
	.st40{fill:#17D0B4;}
	.st41{fill:url(#SVGID_5_);}
	.st42{fill:url(#SVGID_6_);}
	.st43{fill:#FFCF33;}
	.st44{fill:#4777E6;}
	.st45{fill:#4EB3D7;}
	.st46{fill:#F58620;}
	.st47{fill:#4E99FF;}
	.st48{fill:#FFA813;}
	.st49{fill:none;stroke:#FFFFFF;stroke-width:10;stroke-miterlimit:10;}
	.st50{fill:#272D33;}
	.st51{fill:#282723;}
	.st52{fill:#A58877;}
	.st53{fill:#FFC4AD;}
	.st54{fill:#E4EEF3;}
	.st55{fill:#B6C2C9;}
	.st56{fill:#969C9E;}
	.st57{fill:#E6B09C;}
	.st58{fill:none;stroke:#FFFFFF;stroke-width:5;stroke-miterlimit:10;}
	.st59{fill:#D1DBEA;}
	.st60{fill:#E45471;}
	.st61{fill:none;}
	.st62{fill:#CD4C66;}
	.st63{fill:#163F59;}
	.st64{fill:#15100C;}
	.st65{fill:#194866;}
	.st66{enable-background:new    ;}
	.st67{opacity:0.3;}
	.st68{filter:url(#Adobe_OpacityMaskFilter);}
	.st69{filter:url(#Adobe_OpacityMaskFilter_1_);}
	.st70{mask:url(#SVGID_7_);fill:url(#SVGID_8_);}
	.st71{fill:url(#SVGID_9_);}
	.st72{filter:url(#Adobe_OpacityMaskFilter_2_);}
	.st73{filter:url(#Adobe_OpacityMaskFilter_3_);}
	.st74{mask:url(#SVGID_10_);fill:url(#SVGID_11_);}
	.st75{fill:url(#SVGID_12_);}
	.st76{filter:url(#Adobe_OpacityMaskFilter_4_);}
	.st77{filter:url(#Adobe_OpacityMaskFilter_5_);}
	.st78{mask:url(#SVGID_13_);fill:url(#SVGID_14_);}
	.st79{fill:url(#SVGID_15_);}
	.st80{filter:url(#Adobe_OpacityMaskFilter_6_);}
	.st81{filter:url(#Adobe_OpacityMaskFilter_7_);}
	.st82{mask:url(#SVGID_16_);fill:url(#SVGID_17_);}
	.st83{fill:url(#SVGID_18_);}
	.st84{filter:url(#Adobe_OpacityMaskFilter_8_);}
	.st85{filter:url(#Adobe_OpacityMaskFilter_9_);}
	.st86{mask:url(#SVGID_19_);fill:url(#SVGID_20_);}
	.st87{fill:url(#SVGID_21_);}
	.st88{filter:url(#Adobe_OpacityMaskFilter_10_);}
	.st89{filter:url(#Adobe_OpacityMaskFilter_11_);}
	.st90{mask:url(#SVGID_22_);fill:url(#SVGID_23_);}
	.st91{fill:url(#SVGID_24_);}
	.st92{filter:url(#Adobe_OpacityMaskFilter_12_);}
	.st93{filter:url(#Adobe_OpacityMaskFilter_13_);}
	.st94{mask:url(#SVGID_25_);fill:url(#SVGID_26_);}
	.st95{fill:url(#SVGID_27_);}
	.st96{filter:url(#Adobe_OpacityMaskFilter_14_);}
	.st97{filter:url(#Adobe_OpacityMaskFilter_15_);}
	.st98{mask:url(#SVGID_28_);fill:url(#SVGID_29_);}
	.st99{fill:url(#SVGID_30_);}
	.st100{filter:url(#Adobe_OpacityMaskFilter_16_);}
	.st101{filter:url(#Adobe_OpacityMaskFilter_17_);}
	.st102{mask:url(#SVGID_31_);fill:url(#SVGID_32_);}
	.st103{fill:url(#SVGID_33_);}
	.st104{filter:url(#Adobe_OpacityMaskFilter_18_);}
	.st105{filter:url(#Adobe_OpacityMaskFilter_19_);}
	.st106{mask:url(#SVGID_34_);fill:url(#SVGID_35_);}
	.st107{fill:url(#SVGID_36_);}
	.st108{filter:url(#Adobe_OpacityMaskFilter_20_);}
	.st109{filter:url(#Adobe_OpacityMaskFilter_21_);}
	.st110{mask:url(#SVGID_37_);fill:url(#SVGID_38_);}
	.st111{fill:url(#SVGID_39_);}
	.st112{fill:#CDD5D7;}
	.st113{fill:#E5E8EC;}
	.st114{fill:#30363D;}
	.st115{fill:#484F59;}
	.st116{fill:url(#SVGID_40_);}
	.st117{fill:#EDEDED;}
	.st118{fill:#E2E2E2;}
	.st119{fill:#F3AA06;}
	.st120{fill:#B3B3B3;}
	.st121{fill:#FFBF0D;}
	.st122{fill:#FECE40;}
	.st123{fill:none;stroke:#2094F1;stroke-width:0.1141;stroke-miterlimit:10;}
	.st124{fill:#F3F3F3;}
	.st125{fill:#D9E1E4;}
	.st126{fill:#FF3D0D;}
	.st127{fill:#2C7EEA;}
	.st128{fill:none;stroke:#FFFFFF;stroke-width:4.8315;stroke-miterlimit:10;}
	.st129{fill:#2B83FD;}
	.st130{fill:#879BA6;}
	.st131{fill:#92B400;}
	.st132{fill:#E04037;}
	.st133{fill:#FF5931;}
	.st134{fill:url(#SVGID_41_);}
	.st135{fill:url(#SVGID_42_);}
	.st136{opacity:0.3;fill:#FFFFFF;}
	.st137{fill:#5DCFCA;}
	.st138{fill:url(#SVGID_43_);}
	.st139{fill:url(#SVGID_44_);}
	.st140{fill:url(#SVGID_45_);}
	.st141{fill:url(#SVGID_46_);}
	.st142{fill:#F4F8FF;}
	.st143{fill:#E3EDFE;}
	.st144{fill:url(#XMLID_251_);}
	.st145{fill:url(#SVGID_47_);}
	.st146{fill:#FFCEBD;}
	.st147{opacity:0.3;fill:#191C3C;}
	.st148{fill:none;stroke:#005799;stroke-width:4.2761;}
	.st149{clip-path:url(#SVGID_49_);}
	.st150{fill:#1D7F0F;}
	.st151{fill:#997950;}
	.st152{fill:#8C6C48;}
	.st153{fill:#DCE5EA;}
	.st154{fill:#001161;}
	.st155{fill:url(#SVGID_50_);}
	.st156{fill:url(#SVGID_51_);}
	.st157{fill:url(#SVGID_52_);}
	.st158{fill:url(#SVGID_53_);}
	.st159{fill:#D1E1FC;}
	.st160{fill:#C2D7FB;}
	.st161{fill:#E1EBFD;}
	.st162{fill:#1067DB;}
	.st163{fill:#4085E2;}
	.st164{opacity:0.3;fill:#231F20;}
	.st165{fill:#536DFE;}
	.st166{fill:url(#XMLID_252_);}
	.st167{fill:url(#XMLID_253_);}
	.st168{opacity:0.3;fill:#3457B4;}
	.st169{fill:#3457B4;}
	.st170{fill:url(#SVGID_54_);}
	.st171{fill:#F0F5FE;}
	.st172{fill:#6C98E3;}
	.st173{opacity:0.4;}
	.st174{opacity:0.4;fill:#A58877;}
	.st175{fill:url(#SVGID_55_);}
	.st176{fill:url(#SVGID_56_);}
	.st177{fill:url(#SVGID_57_);}
</style>
<g id="Bg" class="st0">
	<rect x="-6.54" y="-11.46" class="st1" width="1131.35" height="688.14"/>
</g>
<g id="Social_Media">
	<g id="Bg_3_">
	</g>
	<g id="Graphic_2_">
		<g>
			<g>
				<g>
					<g>
						<rect x="280.06" y="56.92" class="st15" width="557.4" height="328.57"/>
						<rect x="280.06" y="56.92" class="st3" width="557.4" height="31.39"/>
						<path class="st9" d="M303.09,72.62c0,3.46-2.81,6.28-6.29,6.28c-3.46,0-6.27-2.82-6.27-6.28c0-3.48,2.82-6.28,6.27-6.28
							C300.28,66.34,303.09,69.13,303.09,72.62z"/>
						<path class="st9" d="M322.97,72.62c0,3.46-2.81,6.28-6.28,6.28c-3.46,0-6.26-2.82-6.26-6.28c0-3.48,2.8-6.28,6.26-6.28
							C320.16,66.34,322.97,69.13,322.97,72.62z"/>
						<path class="st9" d="M342.84,72.62c0,3.46-2.81,6.28-6.28,6.28c-3.46,0-6.28-2.82-6.28-6.28c0-3.48,2.82-6.28,6.28-6.28
							C340.04,66.34,342.84,69.13,342.84,72.62z"/>
					</g>
				</g>
			</g>
		</g>
		<g>
			<g>
				<g>
					<path class="st2" d="M463.66,340.75v-5.51c7.64-0.86,13.36-3.73,17.18-8.61c3.82-4.89,10.36-18.25,19.63-40.09l61.85-145.7
						h5.91l73.97,168.31c4.93,11.14,8.86,18.04,11.81,20.67c2.95,2.65,7.91,4.45,14.86,5.41v5.51h-75.5v-5.51
						c8.67-0.77,14.27-1.7,16.78-2.81c2.51-1.11,3.77-3.82,3.77-8.15c0-1.45-0.49-3.99-1.45-7.64c-0.97-3.66-2.32-7.51-4.06-11.55
						l-11.89-28.56h-78.24c-7.71,19.43-12.31,31.28-13.81,35.55c-1.5,4.29-2.25,7.68-2.25,10.17c0,5,2.03,8.47,6.09,10.39
						c2.5,1.15,7.23,2.02,14.17,2.59v5.51H463.66z M591.52,264.5l-34.53-79.28l-33.67,79.28H591.52z"/>
				</g>
				<g>
					<g>
						
							<rect x="609.16" y="98.51" transform="matrix(0.9155 -0.4024 0.4024 0.9155 -42.4621 265.4196)" class="st6" width="2.77" height="270.55"/>
					</g>
				</g>
				<g>
					<g>
						
							<rect x="574.64" y="98.51" transform="matrix(0.9155 -0.4023 0.4023 0.9155 -45.3801 251.5115)" class="st6" width="2.77" height="270.54"/>
					</g>
				</g>
				<g>
					<g>
						
							<rect x="386.4" y="232.4" transform="matrix(0.3916 -0.9201 0.9201 0.3916 102.2827 622.2497)" class="st6" width="270.55" height="2.77"/>
					</g>
				</g>
				<g>
					<g>
						
							<rect x="401.09" y="232.4" transform="matrix(0.3914 -0.9202 0.9202 0.3914 111.2841 635.8328)" class="st6" width="270.55" height="2.77"/>
					</g>
				</g>
				<g>
					<path class="st6" d="M455.03,337.89c-19.66,0-35.65-15.99-35.65-35.65c0-19.66,15.99-35.65,35.65-35.65
						c19.66,0,35.66,15.99,35.66,35.65C490.69,321.9,474.7,337.89,455.03,337.89z M455.03,269.34c-18.13,0-32.89,14.75-32.89,32.89
						c0,18.13,14.75,32.88,32.89,32.88c18.14,0,32.89-14.75,32.89-32.88C487.93,284.1,473.17,269.34,455.03,269.34z"/>
				</g>
				<g>
					<path class="st6" d="M666.92,334.22c-11.16,0-20.24-9.08-20.24-20.24c0-11.16,9.08-20.23,20.24-20.23
						c11.16,0,20.24,9.08,20.24,20.23C687.15,325.14,678.07,334.22,666.92,334.22z M666.92,296.52c-9.63,0-17.47,7.84-17.47,17.46
						c0,9.63,7.84,17.47,17.47,17.47c9.63,0,17.47-7.84,17.47-17.47C684.38,304.35,676.54,296.52,666.92,296.52z"/>
				</g>
				<g>
					<path class="st6" d="M606.33,333.3c-4.17,0-7.57-3.4-7.57-7.57c0-4.17,3.4-7.57,7.57-7.57c4.17,0,7.56,3.4,7.56,7.57
						C613.89,329.9,610.5,333.3,606.33,333.3z M606.33,320.93c-2.65,0-4.8,2.15-4.8,4.8s2.15,4.8,4.8,4.8c2.64,0,4.8-2.15,4.8-4.8
						S608.97,320.93,606.33,320.93z"/>
				</g>
				<g>
					<path class="st6" d="M515.44,334.76c-7.1,0-12.89-5.78-12.89-12.89c0-7.11,5.79-12.89,12.89-12.89
						c7.11,0,12.89,5.79,12.89,12.89C528.33,328.98,522.55,334.76,515.44,334.76z M515.44,311.75c-5.58,0-10.12,4.54-10.12,10.12
						c0,5.58,4.54,10.12,10.12,10.12c5.58,0,10.13-4.54,10.13-10.12C525.57,316.3,521.02,311.75,515.44,311.75z"/>
				</g>
				<g>
					<rect x="444.75" y="341" class="st6" width="248.85" height="2.77"/>
				</g>
				<g>
					<rect x="444.75" y="275.64" class="st6" width="248.85" height="2.77"/>
				</g>
				<g>
					<rect x="444.75" y="262.78" class="st6" width="248.85" height="2.77"/>
				</g>
			</g>
			<g>
				<g>
					<g>
						<rect x="452.29" y="356.95" class="st3" width="233.12" height="3.69"/>
					</g>
				</g>
				<g>
					<g>
						<rect x="452.29" y="108.54" class="st3" width="233.12" height="3.69"/>
					</g>
				</g>
				<g>
					<g>
						<rect x="442.74" y="118.03" class="st3" width="3.69" height="233.11"/>
					</g>
				</g>
				<g>
					<g>
						<rect x="691.14" y="118.03" class="st3" width="3.69" height="233.11"/>
					</g>
				</g>
				<g>
					<rect x="559.1" y="100.93" class="st9" width="19.51" height="19.5"/>
					<path class="st3" d="M580.45,122.28h-23.2V99.08h23.2V122.28z M560.95,118.59h15.82v-15.81h-15.82V118.59z"/>
				</g>
				<g>
					<rect x="559.1" y="349.81" class="st7" width="19.51" height="19.5"/>
					<path class="st3" d="M580.45,371.16h-23.2v-23.19h23.2V371.16z M560.95,367.47h15.82v-15.81h-15.82V367.47z"/>
				</g>
				<g>
					<rect x="683.54" y="225.37" class="st9" width="19.5" height="19.51"/>
					<path class="st3" d="M704.89,246.72H681.7v-23.2h23.19V246.72z M685.39,243.03h15.81v-15.82h-15.81V243.03z"/>
				</g>
				<g>
					<rect x="434.66" y="225.37" class="st9" width="19.51" height="19.51"/>
					<path class="st3" d="M456.01,246.72h-23.2v-23.2h23.2V246.72z M436.5,243.03h15.82v-15.82H436.5V243.03z"/>
				</g>
				<g>
					<g>
						<rect x="437.91" y="100.93" class="st9" width="19.5" height="19.5"/>
						<path class="st3" d="M459.26,122.28h-23.19V99.08h23.19V122.28z M439.76,118.59h15.81v-15.81h-15.81V118.59z"/>
					</g>
					<g>
						<rect x="680.29" y="100.93" class="st9" width="19.51" height="19.5"/>
						<path class="st3" d="M701.64,122.28h-23.2V99.08h23.2V122.28z M682.13,118.59h15.82v-15.81h-15.82V118.59z"/>
					</g>
				</g>
				<g>
					<g>
						<rect x="437.91" y="349.81" class="st9" width="19.5" height="19.5"/>
						<path class="st3" d="M459.26,371.16h-23.19v-23.19h23.19V371.16z M439.76,367.47h15.81v-15.81h-15.81V367.47z"/>
					</g>
					<g>
						<rect x="680.29" y="349.81" class="st9" width="19.51" height="19.5"/>
						<path class="st3" d="M701.64,371.16h-23.2v-23.19h23.2V371.16z M682.13,367.47h15.82v-15.81h-15.82V367.47z"/>
					</g>
				</g>
			</g>
		</g>
		<g>
			<g>
				<g>
					<polygon class="st2" points="403.29,122.86 425.66,115.59 448.02,108.32 440.75,130.68 433.49,153.05 425.63,137.75 
						413.68,149.7 406.65,142.65 418.59,130.72 					"/>
					<polygon class="st2" points="425.66,115.59 448.02,108.32 447.78,109.06 410.42,146.43 406.65,142.65 418.59,130.72 
						403.29,122.86 					"/>
				</g>
			</g>
		</g>
		<g>
			<rect x="228.34" y="56.63" class="st2" width="33.41" height="330.02"/>
			<rect x="228.34" y="56.18" class="st16" width="33.41" height="6.36"/>
			<rect x="230.89" y="58.87" class="st17" width="1.99" height="2.16"/>
			<rect x="237.48" y="328.75" class="st17" width="3.97" height="4.34"/>
			<g>
				<rect x="236.76" y="361" class="st17" width="4.28" height="3.19"/>
				<rect x="242.45" y="361" class="st17" width="4.29" height="3.19"/>
				<rect x="248.15" y="361" class="st17" width="4.29" height="3.19"/>
			</g>
			<rect x="247.12" y="328.75" class="st17" width="3.97" height="4.34"/>
			<g>
				<g>
					<g>
						<rect x="235.87" y="88.25" class="st2" width="18.05" height="18.05"/>
					</g>
					<g>
						<rect x="235.87" y="68.75" class="st16" width="18.05" height="18.05"/>
					</g>
					<g>
						<rect x="235.87" y="146.74" class="st2" width="18.05" height="18.05"/>
					</g>
					<g>
						<rect x="235.87" y="107.75" class="st2" width="18.05" height="18.05"/>
					</g>
					<g>
						<rect x="235.87" y="166.24" class="st2" width="18.05" height="18.05"/>
					</g>
					<g>
						<rect x="235.87" y="127.25" class="st2" width="18.05" height="18.05"/>
					</g>
					<g>
						<rect x="235.87" y="205.17" class="st2" width="18.05" height="18.05"/>
					</g>
					<g>
						<rect x="235.87" y="185.67" class="st2" width="18.05" height="18.05"/>
					</g>
					<g>
						<rect x="235.87" y="263.66" class="st2" width="18.05" height="18.05"/>
					</g>
					<g>
						<rect x="235.87" y="224.67" class="st2" width="18.05" height="18.05"/>
					</g>
					<g>
						<rect x="235.87" y="283.17" class="st2" width="18.05" height="18.05"/>
					</g>
					<g>
						<rect x="235.87" y="244.16" class="st2" width="18.05" height="18.05"/>
					</g>
					<g>
						<rect x="235.87" y="302.75" class="st2" width="18.05" height="18.05"/>
					</g>
				</g>
				<g>
					<g>
						<g>
							<path class="st6" d="M239.7,297.12c-0.1,0-0.2-0.04-0.27-0.11c-0.07-0.08-0.12-0.18-0.11-0.29l0.15-2.5
								c0-0.09,0.04-0.18,0.11-0.25l7.42-7.42c0.07-0.07,0.17-0.11,0.27-0.11l0,0c0.11,0,0.2,0.04,0.27,0.11l2.35,2.34
								c0.08,0.07,0.11,0.17,0.11,0.27c0,0.1-0.04,0.19-0.11,0.26l-7.43,7.43c-0.07,0.06-0.16,0.1-0.25,0.11l-2.48,0.15
								C239.71,297.12,239.71,297.12,239.7,297.12z M240.21,294.41l-0.11,1.92l1.92-0.12l7.06-7.05l-1.81-1.8L240.21,294.41z"/>
						</g>
						<g>
							<path class="st6" d="M248.3,290.63c-0.09,0-0.19-0.03-0.27-0.11l-2.11-2.11c-0.15-0.15-0.15-0.39,0-0.54
								c0.15-0.15,0.39-0.15,0.54,0l2.11,2.11c0.15,0.15,0.15,0.39,0,0.54C248.48,290.59,248.39,290.63,248.3,290.63z"/>
						</g>
						<g>
							<path class="st6" d="M241.41,295.41c-0.1,0-0.2-0.04-0.27-0.11c-0.15-0.15-0.15-0.39,0-0.53l5.79-5.8
								c0.14-0.15,0.39-0.15,0.54,0c0.15,0.15,0.15,0.39,0,0.54l-5.8,5.8C241.6,295.37,241.5,295.41,241.41,295.41z"/>
						</g>
						<g>
							<path class="st6" d="M240.62,297.04c-0.03,0-0.05,0-0.08-0.01c-0.19-0.03-0.33-0.23-0.29-0.44l0-0.02
								c0.02-0.15-0.01-0.25-0.08-0.32c-0.07-0.07-0.17-0.09-0.29-0.08c-0.21,0.04-0.42-0.1-0.47-0.3c-0.03-0.2,0.08-0.39,0.29-0.44
								c0.01,0,0.09-0.02,0.09-0.02c0.35-0.03,0.68,0.09,0.91,0.32c0.22,0.23,0.33,0.55,0.3,0.9c0,0.06-0.02,0.08-0.03,0.12
								C240.96,296.92,240.8,297.04,240.62,297.04z"/>
						</g>
					</g>
					<g>
						<path class="st6" d="M250.11,297.03h-5.48c-0.21,0-0.39-0.16-0.39-0.38c0-0.2,0.18-0.38,0.39-0.38h5.48
							c0.2,0,0.38,0.18,0.38,0.38C250.49,296.87,250.31,297.03,250.11,297.03z"/>
					</g>
				</g>
				<g>
					<g>
						<path class="st6" d="M249.46,82.48c-0.11,0-0.23-0.04-0.32-0.13l-3.37-3.37c-0.18-0.17-0.18-0.46,0-0.65
							c0.17-0.18,0.47-0.18,0.64,0l3.38,3.36c0.17,0.18,0.17,0.47,0,0.66C249.71,82.44,249.58,82.48,249.46,82.48z"/>
					</g>
					<g>
						<path class="st6" d="M244.14,82.86c-0.01,0-0.01,0-0.01,0c-0.17,0-0.35-0.11-0.41-0.28l-4.19-9.9
							c-0.07-0.18-0.03-0.37,0.1-0.51c0.13-0.13,0.33-0.17,0.51-0.1l9.89,4.18c0.17,0.07,0.28,0.24,0.28,0.41
							c0,0.2-0.11,0.36-0.28,0.43l-3.81,1.66l-1.66,3.8C244.48,82.75,244.32,82.86,244.14,82.86z M240.82,73.38l3.32,7.86l1.31-2.99
							c0.05-0.11,0.13-0.19,0.24-0.24l3-1.3L240.82,73.38z"/>
					</g>
				</g>
				<path class="st6" d="M250.31,96.23c-0.01-0.18-0.12-0.35-0.28-0.42l-9.89-4.18c-0.18-0.07-0.37-0.04-0.51,0.09
					c-0.13,0.13-0.17,0.33-0.1,0.51l4.19,9.89c0.07,0.17,0.24,0.28,0.41,0.28c0,0,0,0,0.01,0c0.18,0,0.34-0.11,0.42-0.28l1.47-3.35
					l3.12,3.12c0.09,0.09,0.2,0.13,0.32,0.13c0.12,0,0.25-0.05,0.34-0.13c0.17-0.18,0.17-0.47,0-0.65l-3.13-3.12l3.36-1.46
					C250.19,96.58,250.31,96.42,250.31,96.23z"/>
				<g>
					<g>
						<rect x="244.66" y="135.59" class="st6" width="0.46" height="4.6"/>
					</g>
					<path class="st6" d="M244.9,135.35c-0.28,0-0.5,0.23-0.5,0.51c0,0.27,0.22,0.5,0.5,0.5c0.28,0,0.49-0.22,0.49-0.5
						C245.39,135.58,245.18,135.35,244.9,135.35L244.9,135.35z"/>
					<g>
						<rect x="241.99" y="130.3" class="st6" width="5.82" height="0.92"/>
					</g>
					<g>
						<path class="st6" d="M245.26,140.95h-0.73l-3.61-4.61l1.57-3.23v-1.66h4.8l0,1.66l1.58,3.23L245.26,140.95z M242,136.23
							l2.9,3.71l2.9-3.71l-1.42-2.9v-0.95h-2.97v0.94L242,136.23z"/>
					</g>
				</g>
				<g>
					<g>
						<path class="st6" d="M245.06,176.1c-0.14,0-0.28-0.07-0.37-0.2c-0.15-0.21-0.1-0.5,0.11-0.64c1.64-1.19,3.13-2.67,4.31-4.32
							c0.17-0.24,0.13-0.52,0.09-0.58c-0.05-0.05-0.33-0.06-0.58,0.11c-1.62,1.17-3.12,2.67-4.31,4.31
							c-0.14,0.21-0.43,0.26-0.64,0.11c-0.2-0.15-0.25-0.44-0.1-0.64c1.25-1.72,2.81-3.29,4.53-4.53c0.59-0.4,1.36-0.4,1.76,0
							c0.4,0.4,0.4,1.17,0.01,1.76c-1.25,1.74-2.82,3.3-4.54,4.53C245.25,176.06,245.16,176.1,245.06,176.1z"/>
					</g>
					<g>
						<path class="st6" d="M244.61,176.74c-0.12,0-0.24-0.06-0.33-0.13l-1.31-1.32c-0.18-0.17-0.18-0.47,0-0.64
							c0.18-0.18,0.47-0.18,0.65,0l1.31,1.31c0.18,0.18,0.18,0.47,0,0.66C244.84,176.68,244.72,176.74,244.61,176.74z"/>
					</g>
					<g>
						<path class="st6" d="M244.95,176.39c-0.12,0-0.24-0.04-0.32-0.13l-1.31-1.31c-0.18-0.18-0.18-0.48,0-0.66
							c0.18-0.17,0.47-0.17,0.65,0l1.32,1.32c0.18,0.18,0.18,0.47,0,0.65C245.18,176.35,245.06,176.39,244.95,176.39z"/>
					</g>
					<g>
						<path class="st6" d="M240.21,180.18c-0.04,0-0.08-0.01-0.11-0.02c-0.17-0.04-0.3-0.17-0.34-0.33
							c-0.31-1.26-0.04-2.97,1.3-3.76c0.42-0.25,0.85-0.47,1.29-0.67c0.17-0.08,0.38-0.05,0.51,0.09l1.38,1.38
							c0.1,0.1,0.16,0.26,0.13,0.42c-0.11,0.53-0.33,1.29-0.96,1.65c-0.53,0.32-1.02,0.38-1.44,0.44c-0.55,0.07-0.94,0.12-1.42,0.65
							C240.46,180.13,240.33,180.18,240.21,180.18z M242.43,176.37c-0.3,0.15-0.61,0.31-0.91,0.5c-0.66,0.38-0.96,1.18-0.96,1.98
							c0.45-0.27,0.89-0.33,1.28-0.38c0.36-0.05,0.72-0.09,1.1-0.32c0.2-0.11,0.35-0.38,0.46-0.81L242.43,176.37z"/>
					</g>
				</g>
				<g>
					<g>
						<path class="st6" d="M247.08,156.8c-0.12,0-0.23-0.05-0.32-0.14c-0.19-0.18-0.19-0.46,0-0.65l2.09-2.1
							c0.25-0.24,0.38-0.57,0.38-0.9c0-0.29-0.11-0.57-0.32-0.77l-0.14-0.14c-0.44-0.44-1.19-0.41-1.67,0.06l-2.1,2.11
							c-0.18,0.18-0.47,0.18-0.65,0c-0.18-0.17-0.18-0.47,0-0.65l2.1-2.1c0.84-0.84,2.18-0.87,2.98-0.07l0.14,0.14
							c0.37,0.37,0.58,0.88,0.58,1.42c0,0.59-0.23,1.13-0.65,1.55l-2.1,2.1C247.32,156.75,247.2,156.8,247.08,156.8z"/>
					</g>
					<g>
						<path class="st6" d="M247.53,157.51c-0.12,0-0.24-0.05-0.33-0.14l-3.57-3.57c-0.18-0.17-0.18-0.47,0-0.65
							c0.18-0.18,0.46-0.18,0.65,0l3.57,3.56c0.18,0.18,0.18,0.47,0,0.65C247.77,157.47,247.65,157.51,247.53,157.51z"/>
					</g>
					<g>
						<path class="st6" d="M241.12,161.31c-0.13,0-0.24-0.05-0.33-0.14c-0.19-0.18-0.19-0.46,0-0.65l0.19-0.19
							c0.19-0.18,0.48-0.18,0.65,0c0.19,0.18,0.19,0.48,0,0.65l-0.19,0.19C241.35,161.26,241.23,161.31,241.12,161.31z"/>
					</g>
					<g>
						<path class="st6" d="M240.1,160.3c-0.12,0-0.24-0.05-0.32-0.14c-0.19-0.18-0.19-0.47,0-0.64l0.19-0.2
							c0.18-0.17,0.48-0.17,0.65,0c0.18,0.18,0.18,0.47,0,0.66l-0.19,0.18C240.35,160.25,240.22,160.3,240.1,160.3z"/>
					</g>
					<g>
						<path class="st6" d="M241.44,161.13c-0.25,0-0.46-0.2-0.46-0.46c0-0.25,0.21-0.46,0.46-0.46c0.17-0.01,0.32-0.07,0.44-0.18
							l3.93-3.93l-0.89-0.89l-3.93,3.93c-0.12,0.11-0.18,0.27-0.18,0.44c0,0.25-0.2,0.43-0.46,0.45c-0.26,0-0.46-0.21-0.46-0.46
							c0-0.42,0.16-0.8,0.46-1.09l4.25-4.25c0.17-0.18,0.47-0.18,0.65,0l1.53,1.53c0.18,0.18,0.18,0.47,0,0.66l-4.25,4.26
							C242.24,160.97,241.85,161.13,241.44,161.13L241.44,161.13z"/>
					</g>
				</g>
				<g>
					<g>
						<g>
							<path class="st6" d="M248.52,113.52c-0.05,0-0.12-0.02-0.16-0.06c-0.09-0.09-0.09-0.24,0-0.32l0.78-0.78
								c0.09-0.1,0.23-0.1,0.32,0c0.09,0.09,0.09,0.23,0,0.32l-0.78,0.78C248.64,113.5,248.59,113.52,248.52,113.52z"/>
						</g>
					</g>
					<g>
						<g>
							<path class="st6" d="M246.16,116.68c-0.11,0-0.23-0.05-0.32-0.14l-0.56-0.56c-0.18-0.19-0.18-0.48,0-0.65
								c0.18-0.18,0.47-0.18,0.65,0l0.55,0.55c0.18,0.18,0.18,0.48,0,0.65C246.4,116.63,246.28,116.68,246.16,116.68z"/>
						</g>
					</g>
					<g>
						<g>
							<path class="st6" d="M249.3,117.98c-0.06,0-0.12-0.02-0.16-0.07l-0.78-0.77c-0.09-0.09-0.09-0.24,0-0.33
								c0.1-0.1,0.24-0.1,0.33,0l0.78,0.78c0.09,0.08,0.09,0.24,0,0.32C249.42,117.96,249.37,117.98,249.3,117.98z"/>
						</g>
					</g>
					<g>
						<g>
							<path class="st6" d="M244.85,113.52c-0.06,0-0.12-0.02-0.16-0.06l-0.78-0.78c-0.08-0.09-0.08-0.23,0-0.32
								c0.1-0.1,0.24-0.1,0.33,0l0.78,0.78c0.09,0.09,0.09,0.23,0,0.32C244.97,113.5,244.91,113.52,244.85,113.52z"/>
						</g>
					</g>
					<g>
						<g>
							<path class="st6" d="M250.38,115.36h-1.1c-0.13,0-0.23-0.1-0.23-0.23c0-0.13,0.11-0.23,0.23-0.23h1.1
								c0.13,0,0.23,0.1,0.23,0.23C250.62,115.26,250.51,115.36,250.38,115.36z"/>
						</g>
					</g>
					<g>
						<g>
							<path class="st6" d="M244.09,115.36h-1.1c-0.13,0-0.23-0.1-0.23-0.23c0-0.13,0.1-0.23,0.23-0.23h1.1
								c0.13,0,0.23,0.1,0.23,0.23C244.32,115.26,244.22,115.36,244.09,115.36z"/>
						</g>
					</g>
					<g>
						<g>
							<path class="st6" d="M246.69,119.06c-0.13,0-0.23-0.11-0.23-0.23v-1.1c0-0.13,0.11-0.23,0.23-0.23c0.13,0,0.23,0.1,0.23,0.23
								v1.1C246.92,118.95,246.82,119.06,246.69,119.06z"/>
						</g>
					</g>
					<g>
						<g>
							<path class="st6" d="M246.69,112.76c-0.13,0-0.23-0.1-0.23-0.23v-1.09c0-0.13,0.11-0.23,0.23-0.23c0.13,0,0.23,0.1,0.23,0.23
								v1.09C246.92,112.66,246.82,112.76,246.69,112.76z"/>
						</g>
					</g>
					<g>
						<path class="st6" d="M240.24,122.63c-0.3,0-0.57-0.11-0.76-0.29c-0.2-0.2-0.3-0.46-0.3-0.76c0-0.39,0.18-0.8,0.5-1.11
							l6.13-6.14c0.56-0.55,1.43-0.66,1.87-0.2c0.24,0.24,0.34,0.6,0.28,0.97c-0.05,0.32-0.23,0.64-0.48,0.9l-6.13,6.13
							C241.04,122.46,240.63,122.63,240.24,122.63z M246.93,114.75c-0.11,0-0.3,0.06-0.47,0.23l-6.13,6.14
							c-0.17,0.17-0.23,0.35-0.23,0.46c0,0.03,0,0.09,0.03,0.11c0.02,0.02,0.07,0.03,0.11,0.03c0.12,0,0.29-0.06,0.46-0.23
							l6.13-6.14c0.12-0.11,0.21-0.26,0.23-0.39c0.01-0.08,0-0.15-0.03-0.17C247.01,114.76,246.96,114.75,246.93,114.75z"/>
					</g>
				</g>
				<g>
					<g>
						<path class="st6" d="M250.14,278.37h-2.44c-0.26,0-0.46-0.2-0.46-0.46v-9.87c0-0.26,0.21-0.46,0.46-0.46h2.44
							c0.25,0,0.46,0.2,0.46,0.46v9.87C250.6,278.17,250.39,278.37,250.14,278.37z M248.16,277.45h1.53v-8.96h-1.53L248.16,277.45z"
							/>
					</g>
					<g>
						<path class="st6" d="M246.12,278.37h-2.45c-0.26,0-0.46-0.2-0.46-0.46l0-4.21c0-0.25,0.2-0.46,0.46-0.46h2.45
							c0.25,0,0.46,0.21,0.46,0.46l0,4.21C246.58,278.17,246.38,278.37,246.12,278.37z M244.14,277.45h1.52v-3.29h-1.52V277.45z"/>
					</g>
					<g>
						<path class="st6" d="M242.1,278.37h-2.46c-0.25,0-0.45-0.2-0.45-0.46v-6.27c0-0.26,0.2-0.46,0.45-0.46h2.46
							c0.26,0,0.45,0.2,0.45,0.46v6.27C242.55,278.17,242.36,278.37,242.1,278.37z M240.11,277.45h1.53l0-5.36h-1.53L240.11,277.45z
							"/>
					</g>
				</g>
				<g>
					<g>
						<g>
							<path class="st6" d="M239.86,309.73c-0.25,0-0.45-0.21-0.45-0.47v-1.93c0-0.26,0.2-0.46,0.45-0.46h1.94
								c0.25,0,0.46,0.2,0.46,0.46c0,0.25-0.21,0.46-0.46,0.46h-1.47v1.47C240.32,309.52,240.12,309.73,239.86,309.73z"/>
						</g>
						<g>
							<path class="st6" d="M249.93,309.73c-0.25,0-0.45-0.21-0.45-0.47v-1.47H248c-0.26,0-0.46-0.21-0.46-0.46
								c0-0.26,0.2-0.46,0.46-0.46h1.93c0.26,0,0.46,0.2,0.46,0.46v1.93C250.39,309.52,250.19,309.73,249.93,309.73z"/>
						</g>
						<g>
							<path class="st6" d="M241.8,317.81h-1.94c-0.25,0-0.45-0.2-0.45-0.46v-1.93c0-0.26,0.2-0.46,0.45-0.46
								c0.26,0,0.46,0.21,0.46,0.46v1.48h1.47c0.25,0,0.46,0.2,0.46,0.45C242.26,317.61,242.05,317.81,241.8,317.81z"/>
						</g>
						<g>
							<path class="st6" d="M249.93,317.81H248c-0.26,0-0.46-0.2-0.46-0.46c0-0.25,0.2-0.45,0.46-0.45h1.48v-1.48
								c0-0.26,0.2-0.46,0.45-0.46c0.26,0,0.46,0.21,0.46,0.46v1.93C250.39,317.61,250.19,317.81,249.93,317.81z"/>
						</g>
					</g>
					<g>
						<path class="st6" d="M248.09,315.99h-6.37c-0.25,0-0.47-0.21-0.47-0.46v-6.38c0-0.25,0.22-0.46,0.47-0.46h6.37
							c0.25,0,0.46,0.21,0.46,0.46l0,6.38C248.55,315.78,248.34,315.99,248.09,315.99z M242.17,315.07h5.45v-5.45h-5.45
							L242.17,315.07z"/>
					</g>
				</g>
				<g>
					<g>
						<path class="st6" d="M247.18,200.42c-0.2,0-0.38-0.12-0.44-0.32l-3.17-9.69l-3.17,9.69c-0.08,0.25-0.34,0.38-0.59,0.3
							c-0.25-0.08-0.38-0.35-0.3-0.59l3.62-11.06c0.12-0.38,0.77-0.38,0.89,0l3.61,11.06c0.08,0.24-0.05,0.5-0.3,0.59
							C247.28,200.42,247.23,200.42,247.18,200.42z"/>
					</g>
					<g>
						<g>
							<path class="st6" d="M240.91,200.42h-1.72c-0.26,0-0.47-0.21-0.47-0.46c0-0.26,0.21-0.47,0.47-0.47h1.72
								c0.26,0,0.47,0.21,0.47,0.47C241.38,200.22,241.17,200.42,240.91,200.42z"/>
						</g>
						<g>
							<path class="st6" d="M247.94,200.42h-1.73c-0.26,0-0.46-0.21-0.46-0.46c0-0.26,0.21-0.47,0.46-0.47h1.73
								c0.26,0,0.47,0.21,0.47,0.47C248.41,200.22,248.2,200.42,247.94,200.42z"/>
						</g>
					</g>
					<g>
						<path class="st6" d="M245.87,197.02h-4.62c-0.26,0-0.47-0.21-0.47-0.47c0-0.26,0.2-0.47,0.47-0.47h4.62
							c0.26,0,0.47,0.2,0.47,0.47C246.34,196.8,246.13,197.02,245.87,197.02z"/>
					</g>
					<g>
						<path class="st6" d="M248.4,194.65c-0.51,0-0.94-0.17-1.26-0.48c-0.33-0.32-0.5-0.71-0.5-1.16c0-0.57,0.26-0.91,0.47-1.09
							c0.24-0.21,0.52-0.37,0.81-0.45c0.23-0.06,0.64-0.16,1.22-0.29c0.57-0.13,0.99-0.24,1.26-0.34c0.14-0.05,0.3-0.03,0.43,0.06
							c0.13,0.08,0.2,0.22,0.2,0.38v0.31c0,0.82-0.12,1.41-0.35,1.81c-0.2,0.36-0.53,0.67-0.95,0.89
							C249.34,194.53,248.89,194.65,248.4,194.65z M250.1,191.93c-0.22,0.06-0.46,0.12-0.75,0.18c-0.57,0.12-0.97,0.22-1.18,0.27
							c-0.15,0.05-0.3,0.13-0.45,0.25c-0.07,0.07-0.14,0.15-0.14,0.38c0,0.19,0.07,0.35,0.22,0.49c0.33,0.32,1.02,0.25,1.52-0.02
							c0.26-0.14,0.45-0.32,0.57-0.53C249.97,192.8,250.06,192.51,250.1,191.93z"/>
					</g>
					<g>
						<path class="st6" d="M250.62,194.59c-0.26,0-0.47-0.21-0.47-0.47v-3.36c0-0.62-0.47-1.12-1.04-1.12h-0.36
							c-0.42,0-0.79,0.26-0.95,0.68c-0.1,0.24-0.37,0.35-0.61,0.27c-0.24-0.1-0.35-0.38-0.26-0.61c0.31-0.78,1.02-1.27,1.82-1.27
							h0.36c1.09,0,1.97,0.92,1.97,2.06v3.36C251.09,194.38,250.88,194.59,250.62,194.59z"/>
					</g>
				</g>
				<g>
					<g>
						<g>
							<path class="st6" d="M250.47,220.15h-5.83c-0.26,0-0.47-0.21-0.47-0.48v-8.34c0-0.26,0.2-0.47,0.47-0.47h5.83
								c0.26,0,0.47,0.21,0.47,0.47l0,8.34C250.94,219.93,250.73,220.15,250.47,220.15z M245.11,219.2H250v-7.4h-4.89V219.2z"/>
						</g>
						<g>
							<path class="st6" d="M247.58,220.01c-0.27,0-0.48-0.21-0.48-0.47l0-8.06c0-0.26,0.21-0.47,0.48-0.47
								c0.26,0,0.46,0.21,0.46,0.47v8.06C248.04,219.8,247.83,220.01,247.58,220.01z"/>
						</g>
						<g>
							<path class="st6" d="M250.51,214.53h-5.87c-0.26,0-0.47-0.21-0.47-0.47c0-0.26,0.2-0.47,0.47-0.47h5.87
								c0.25,0,0.47,0.21,0.47,0.47C250.98,214.32,250.76,214.53,250.51,214.53z"/>
						</g>
						<g>
							<path class="st6" d="M250.51,217.31h-5.87c-0.26,0-0.47-0.2-0.47-0.47c0-0.25,0.2-0.46,0.47-0.46h5.87
								c0.25,0,0.47,0.22,0.47,0.46C250.98,217.11,250.76,217.31,250.51,217.31z"/>
						</g>
					</g>
					<g>
						<g>
							<path class="st6" d="M243.26,215.8h-1.82c-0.26,0-0.47-0.21-0.47-0.46c0-0.26,0.21-0.47,0.47-0.47h1.82
								c0.26,0,0.46,0.21,0.46,0.47C243.72,215.59,243.51,215.8,243.26,215.8z"/>
						</g>
						<g>
							<path class="st6" d="M239.3,209.96c-0.26,0-0.47-0.2-0.47-0.46v-1.07c0-0.25,0.21-0.47,0.47-0.47c0.26,0,0.47,0.22,0.47,0.47
								v1.07C239.76,209.76,239.55,209.96,239.3,209.96z"/>
						</g>
						<g>
							<path class="st6" d="M245.39,209.96c-0.26,0-0.47-0.2-0.47-0.46v-1.07c0-0.25,0.21-0.47,0.47-0.47
								c0.26,0,0.47,0.22,0.47,0.47v1.07C245.86,209.76,245.65,209.96,245.39,209.96z"/>
						</g>
						<g>
							<path class="st6" d="M242.34,215.62c-0.25,0-0.47-0.21-0.47-0.47v-6.41c0-0.25,0.21-0.46,0.47-0.46
								c0.26,0,0.47,0.21,0.47,0.46v6.41C242.81,215.41,242.6,215.62,242.34,215.62z"/>
						</g>
						<g>
							<path class="st6" d="M245.39,208.9h-6.09c-0.26,0-0.47-0.21-0.47-0.47c0-0.25,0.21-0.47,0.47-0.47h6.09
								c0.26,0,0.47,0.22,0.47,0.47C245.86,208.69,245.65,208.9,245.39,208.9z"/>
						</g>
					</g>
				</g>
				<g>
					<g>
						<path class="st6" d="M250.65,259.36h-11.5c-0.26,0-0.47-0.21-0.47-0.46l0-11.5c0-0.26,0.21-0.47,0.47-0.47h11.5
							c0.26,0,0.47,0.21,0.47,0.47l0,11.5C251.11,259.15,250.9,259.36,250.65,259.36z M239.62,258.42h10.56l0-10.56h-10.56
							L239.62,258.42z"/>
					</g>
					<g>
						<path class="st6" d="M250.46,251.64h-11.12c-0.26,0-0.47-0.2-0.47-0.46c0-0.26,0.21-0.47,0.47-0.47h11.12
							c0.25,0,0.47,0.21,0.47,0.47C250.93,251.44,250.71,251.64,250.46,251.64z"/>
					</g>
					<g>
						<path class="st6" d="M250.46,255.48h-11.12c-0.26,0-0.47-0.21-0.47-0.47c0-0.25,0.21-0.47,0.47-0.47h11.12
							c0.25,0,0.47,0.21,0.47,0.47C250.93,255.27,250.71,255.48,250.46,255.48z"/>
					</g>
					<g>
						<path class="st6" d="M246.82,259.12c-0.26,0-0.47-0.21-0.47-0.47l0-11.12c0-0.26,0.21-0.47,0.47-0.47
							c0.26,0,0.47,0.21,0.47,0.47l0,11.12C247.28,258.91,247.08,259.12,246.82,259.12z"/>
					</g>
					<g>
						<path class="st6" d="M242.98,259.12c-0.27,0-0.47-0.21-0.47-0.47l0-11.12c0-0.26,0.2-0.47,0.47-0.47
							c0.26,0,0.47,0.21,0.47,0.47l0,11.12C243.45,258.91,243.24,259.12,242.98,259.12z"/>
					</g>
				</g>
				<g>
					<g>
						<path class="st6" d="M250.45,228.35h-6.61c-0.26,0-0.47-0.2-0.47-0.47s0.21-0.47,0.47-0.47h6.61c0.26,0,0.47,0.21,0.47,0.47
							S250.71,228.35,250.45,228.35z"/>
					</g>
					<g>
						<path class="st6" d="M250.45,231.17h-6.61c-0.26,0-0.47-0.21-0.47-0.46c0-0.26,0.21-0.47,0.47-0.47h6.61
							c0.26,0,0.47,0.21,0.47,0.47C250.92,230.96,250.71,231.17,250.45,231.17z"/>
					</g>
					<g>
						<path class="st6" d="M250.45,234h-11.1c-0.26,0-0.47-0.21-0.47-0.47c0-0.27,0.21-0.47,0.47-0.47h11.1
							c0.26,0,0.47,0.21,0.47,0.47C250.92,233.79,250.71,234,250.45,234z"/>
					</g>
					<g>
						<path class="st6" d="M250.45,236.82h-11.1c-0.26,0-0.47-0.22-0.47-0.48c0-0.26,0.21-0.46,0.47-0.46h11.1
							c0.26,0,0.47,0.2,0.47,0.46C250.92,236.6,250.71,236.82,250.45,236.82z"/>
					</g>
					<g>
						<path class="st6" d="M250.45,239.63h-11.1c-0.26,0-0.47-0.21-0.47-0.47c0-0.27,0.21-0.47,0.47-0.47h11.1
							c0.26,0,0.47,0.21,0.47,0.47C250.92,239.42,250.71,239.63,250.45,239.63z"/>
					</g>
					<g>
						<g>
							<path class="st6" d="M242.21,231.87c-0.18,0-0.36-0.11-0.43-0.29l-1-2.46l-1,2.46c-0.1,0.23-0.37,0.35-0.61,0.25
								c-0.23-0.1-0.35-0.37-0.26-0.61l1.43-3.52c0.14-0.35,0.72-0.35,0.87,0l1.43,3.52c0.1,0.24-0.02,0.51-0.26,0.61
								C242.33,231.86,242.27,231.87,242.21,231.87z"/>
						</g>
						<g>
							<path class="st6" d="M241.63,231.17h-1.89c-0.26,0-0.47-0.21-0.47-0.47c0-0.26,0.21-0.46,0.47-0.46h1.89
								c0.26,0,0.47,0.21,0.47,0.46C242.1,230.96,241.89,231.17,241.63,231.17z"/>
						</g>
					</g>
				</g>
			</g>
			<g>
				<rect x="235.36" y="338.84" class="st6" width="13.43" height="13.43"/>
				<rect x="236.05" y="339.53" class="st11" width="12.05" height="12.05"/>
				<rect x="240.41" y="343.89" class="st6" width="13.42" height="13.43"/>
				<g>
					<path class="st6" d="M253.26,356.75h-12.28v-12.29h12.28L253.26,356.75z M242.53,355.19h9.18l0-9.18h-9.18L242.53,355.19z"/>
				</g>
				<rect x="243.05" y="346.53" class="st2" width="8.15" height="8.15"/>
			</g>
			<g>
				<g>
					<path class="st6" d="M248.48,376.47h-5.97c-0.27,0-0.48-0.22-0.48-0.48v-5.99c0-0.27,0.21-0.47,0.48-0.47h5.97
						c0.27,0,0.48,0.21,0.48,0.47V376C248.96,376.26,248.75,376.47,248.48,376.47z M242.98,375.52h5.03v-5.03h-5.03V375.52z"/>
				</g>
				<g>
					<g>
						<path class="st6" d="M240.11,377.14c-0.13,0-0.24-0.11-0.24-0.24v-7.8c0-0.12,0.11-0.24,0.24-0.24c0.14,0,0.24,0.11,0.24,0.24
							l0,7.8C240.35,377.03,240.25,377.14,240.11,377.14z"/>
					</g>
					<g>
						<path class="st6" d="M241.17,376.62c-0.12,0-0.24-0.11-0.24-0.24v-6.75c0-0.14,0.11-0.24,0.24-0.24c0.14,0,0.24,0.1,0.24,0.24
							v6.75C241.42,376.51,241.31,376.62,241.17,376.62z"/>
					</g>
					<g>
						<path class="st6" d="M250.88,377.14c-0.13,0-0.24-0.11-0.24-0.24l0-7.8c0-0.12,0.11-0.24,0.24-0.24
							c0.13,0,0.24,0.11,0.24,0.24l0,7.8C251.12,377.03,251.01,377.14,250.88,377.14z"/>
					</g>
					<g>
						<path class="st6" d="M249.81,376.62c-0.13,0-0.24-0.11-0.24-0.24l0-6.75c0-0.14,0.11-0.24,0.24-0.24
							c0.13,0,0.24,0.1,0.24,0.24l0,6.75C250.05,376.51,249.94,376.62,249.81,376.62z"/>
					</g>
				</g>
			</g>
		</g>
		<g>
			<g>
				
					<rect x="759.03" y="128.77" transform="matrix(0.9927 -0.1208 0.1208 0.9927 -17.3868 107.6314)" class="st2" width="240.21" height="136.93"/>
				
					<rect x="751.32" y="128.44" transform="matrix(0.9927 -0.1208 0.1208 0.9927 -9.7971 106.2371)" class="st3" width="240.21" height="10.99"/>
				
					<rect x="830.03" y="132.28" transform="matrix(0.9927 -0.1208 0.1208 0.9927 -10.1743 111.089)" class="st3" width="162.47" height="14.39"/>
				
					<rect x="802.25" y="163.89" transform="matrix(0.9927 -0.1208 0.1208 0.9927 -14.7023 101.8838)" class="st6" width="61.57" height="16.64"/>
				
					<rect x="785.42" y="173.84" transform="matrix(0.9927 -0.1207 0.1207 0.9927 -15.6705 96.5401)" class="st17" width="6.86" height="7.49"/>
				
					<rect x="784.48" y="250.09" transform="matrix(0.9927 -0.1208 0.1208 0.9927 -24.3257 100.967)" class="st6" width="72.48" height="2.11"/>
				
					<rect x="758.84" y="156.01" transform="matrix(0.9927 -0.1208 0.1208 0.9927 -13.2527 95.5004)" class="st6" width="44.52" height="2.11"/>
				
					<rect x="808.02" y="171" transform="matrix(0.9927 -0.1208 0.1208 0.9927 -14.7027 101.5351)" class="st2" width="44.52" height="2.11"/>
				
					<rect x="835.98" y="147.54" transform="matrix(0.9927 -0.1208 0.1208 0.9927 -11.7196 103.823)" class="st17" width="29.39" height="2.11"/>
				
					<rect x="881.16" y="142.04" transform="matrix(0.9927 -0.1208 0.1208 0.9927 -10.7255 109.258)" class="st17" width="29.4" height="2.11"/>
				
					<rect x="885.76" y="161.63" transform="matrix(0.9927 -0.1208 0.1208 0.9927 -13.4642 108.5969)" class="st17" width="6.87" height="7.49"/>
				<g>
					
						<rect x="761.85" y="179.79" transform="matrix(0.9927 -0.1208 0.1208 0.9927 -16.3525 93.5639)" class="st17" width="3.43" height="3.75"/>
					
						<rect x="767.61" y="179.09" transform="matrix(0.9927 -0.1208 0.1208 0.9927 -16.227 94.2635)" class="st17" width="3.43" height="3.75"/>
					
						<rect x="773.36" y="178.39" transform="matrix(0.9927 -0.121 0.121 0.9927 -16.116 95.0987)" class="st17" width="3.43" height="3.75"/>
				</g>
				<g>
					
						<rect x="763.22" y="190.98" transform="matrix(0.9926 -0.121 0.121 0.9926 -17.718 94.0033)" class="st17" width="3.43" height="3.74"/>
					
						<rect x="768.97" y="190.28" transform="matrix(0.9927 -0.1206 0.1206 0.9927 -17.5481 94.3476)" class="st17" width="3.43" height="3.74"/>
					
						<rect x="774.72" y="189.58" transform="matrix(0.9927 -0.1207 0.1207 0.9927 -17.4358 95.1517)" class="st17" width="3.43" height="3.74"/>
				</g>
				
					<rect x="768.27" y="184.53" transform="matrix(0.9927 -0.121 0.121 0.9927 -16.8943 94.52)" class="st6" width="3.43" height="3.73"/>
				
					<rect x="755.21" y="146.15" transform="matrix(0.9927 -0.1208 0.1208 0.9927 -12.3389 92.5383)" class="st17" width="3.43" height="3.74"/>
				
					<rect x="773.02" y="178.41" transform="matrix(0.9927 -0.1207 0.1207 0.9927 -16.0747 94.8394)" class="st17" width="3.74" height="3.42"/>
				
					<rect x="976.01" y="159.28" transform="matrix(0.9927 -0.1207 0.1207 0.9927 -12.2826 119.2088)" class="st17" width="3.74" height="3.42"/>
				
					<rect x="976.8" y="165.77" transform="matrix(0.9927 -0.1206 0.1206 0.9927 -13.0575 119.2802)" class="st17" width="3.74" height="3.43"/>
				
					<rect x="773.72" y="184.16" transform="matrix(0.9927 -0.1208 0.1208 0.9927 -16.7752 95.0722)" class="st17" width="3.74" height="3.42"/>
				
					<rect x="774.42" y="189.9" transform="matrix(0.9927 -0.1209 0.1209 0.9927 -17.4752 95.2825)" class="st17" width="3.74" height="3.43"/>
				<g>
					
						<rect x="761.83" y="179.77" transform="matrix(0.9927 -0.121 0.121 0.9927 -16.3474 93.7352)" class="st17" width="3.75" height="3.42"/>
					
						<rect x="762.53" y="185.52" transform="matrix(0.9927 -0.1206 0.1206 0.9927 -17.0003 93.5512)" class="st17" width="3.75" height="3.42"/>
					
						<rect x="763.23" y="191.27" transform="matrix(0.9927 -0.1207 0.1207 0.9927 -17.6965 93.7379)" class="st17" width="3.75" height="3.43"/>
				</g>
				
					<rect x="898.05" y="152.23" transform="matrix(0.9927 -0.1208 0.1208 0.9927 -12.5925 113.363)" class="st6" width="61.57" height="16.64"/>
				
					<rect x="805.2" y="188.11" transform="matrix(0.9927 -0.1208 0.1208 0.9927 -17.6043 102.3987)" class="st6" width="61.57" height="16.64"/>
				
					<rect x="788.37" y="198.06" transform="matrix(0.9927 -0.121 0.121 0.9927 -18.5975 97.2624)" class="st17" width="6.86" height="7.5"/>
				
					<rect x="888.71" y="185.85" transform="matrix(0.9927 -0.1209 0.1209 0.9927 -16.3786 109.2566)" class="st17" width="6.87" height="7.5"/>
				
					<rect x="901" y="176.46" transform="matrix(0.9927 -0.1208 0.1208 0.9927 -15.4977 113.9155)" class="st6" width="61.57" height="16.64"/>
				
					<rect x="808.15" y="212.33" transform="matrix(0.9927 -0.1208 0.1208 0.9927 -20.5108 102.9551)" class="st6" width="61.57" height="16.66"/>
				
					<rect x="854.98" y="209.49" transform="matrix(0.9927 -0.1207 0.1207 0.9927 -19.9898 105.6964)" class="st2" width="14.56" height="16.65"/>
				
					<rect x="791.31" y="222.28" transform="matrix(0.9927 -0.1208 0.1208 0.9927 -21.4792 97.6283)" class="st17" width="6.86" height="7.49"/>
				
					<rect x="771.51" y="252.97" transform="matrix(0.9927 -0.1207 0.1207 0.9927 -25.3218 95.4235)" class="st17" width="6.86" height="7.49"/>
				
					<rect x="771.51" y="252.97" transform="matrix(0.9927 -0.1207 0.1207 0.9927 -25.3218 95.4235)" class="st17" width="6.86" height="7.49"/>
				
					<rect x="773.46" y="255.08" transform="matrix(0.9927 -0.121 0.121 0.9927 -25.3651 95.6388)" class="st6" width="2.97" height="3.25"/>
				
					<rect x="785.88" y="261.61" transform="matrix(0.9927 -0.1208 0.1208 0.9927 -25.7074 101.2254)" class="st6" width="72.48" height="2.11"/>
				
					<rect x="772.91" y="264.49" transform="matrix(0.9927 -0.1206 0.1206 0.9927 -26.6855 95.5993)" class="st17" width="6.86" height="7.49"/>
				
					<rect x="891.66" y="210.07" transform="matrix(0.9927 -0.1208 0.1208 0.9927 -19.2715 109.6672)" class="st17" width="6.87" height="7.49"/>
				
					<rect x="903.95" y="200.67" transform="matrix(0.9927 -0.1208 0.1208 0.9927 -18.4025 114.4557)" class="st6" width="61.57" height="16.66"/>
				
					<rect x="950.79" y="197.83" transform="matrix(0.9927 -0.1209 0.1209 0.9927 -17.895 117.324)" class="st2" width="14.56" height="16.66"/>
				
					<rect x="811.02" y="195.66" transform="matrix(0.9927 -0.1208 0.1208 0.9927 -17.6611 102.1004)" class="st2" width="44.52" height="2.1"/>
				
					<rect x="813.66" y="221.91" transform="matrix(0.9927 -0.1208 0.1208 0.9927 -20.9178 100.9435)" class="st2" width="16.6" height="2.12"/>
				
					<rect x="909.35" y="210.27" transform="matrix(0.9927 -0.1208 0.1208 0.9927 -18.8065 112.3841)" class="st2" width="16.6" height="2.12"/>
				
					<rect x="906.71" y="184.02" transform="matrix(0.9927 -0.1208 0.1208 0.9927 -15.5546 113.5834)" class="st2" width="44.51" height="2.1"/>
				
					<rect x="903.71" y="159.36" transform="matrix(0.9927 -0.1208 0.1208 0.9927 -12.5959 113.0036)" class="st2" width="44.51" height="2.11"/>
			</g>
			<g>
				<path class="st2" d="M1049.72,272.01c0,0-8.79-4.27-9.52-9.01c-0.72-4.74,6.34,0.86,1.51,1.1c-4.83,0.24-10.11-8.5-5.74-11.14
					c4.37-2.64,8.61-2.36,10.4,1.77c1.8,4.13-1.54,3.88-1.4,0.97c0.13-2.91,8.11-5.46,7.57,4.61c-0.54,10.06-3.07,9.36-1.42,3.46
					c1.65-5.9,6.77-7.19,5.62,0.2c-1.16,7.39-6.59,8.15-5.92,4.93c0.67-3.22,11.84-4.19,9.41,1.26c-2.43,5.45-5.57,11.84-9.49,9.61
					c-3.92-2.23,13.06-10.2,10.11,2.82c-2.95,13.02-8.1,5.45-6.92,2.83c1.18-2.62,11.77,9.87-0.68,7.3
					c-12.45-2.57-5.98-4.62-5.36-7.62c0.61-3.01,6.27,9.24-2.06,11.45c-8.33,2.22-12.68-1.72-8.36-6.64
					c4.32-4.92,8.45,1.45,3.85,4.93c-4.6,3.48-3.35,7.92-2.53,9.06c0.82,1.14-9.43-0.36-8.38-5.74
					C1031.44,292.78,1042.2,269.68,1049.72,272.01z"/>
				<path class="st5" d="M1039.53,260.54l-8.42,3.33l-1.34,2.35l-7.46,3.14l-0.06,4.29l-6.67,9.26c0,0-3.84,4.83,2.23,5.84
					c6.07,1.01,6.07,1.01,6.07,1.01s-3.19,6.42-4.44,10.54c-3.64,12.01,2.31,14.86,2.31,14.86s7.77,3.57,10.38,4.5
					c1.75,0.63,0.72-8.98,1.54-12.76c1.58-7.28,3.68-14.97,3.68-14.97s0.67,0.87,2.2,1.07c1.53,0.2,9.52-0.75,9.13-4.26
					c-0.38-3.51-5.02-4.81-7.71-3.29c-2.69,1.52-3.65-2.38-0.07-7.06c3.57-4.68,15.36-1.65,4.83-10
					C1038.67,262.79,1039.53,260.54,1039.53,260.54z"/>
				<path class="st4" d="M974.17,262.03l8.73,21.82c0,0,3.68,6.21,4.85,7.95c1.16,1.75-2.33,7.76-6.21,3.69
					c-3.88-4.07-14.16-29.48-12.22-32.2C971.26,260.58,966.11,254.72,974.17,262.03z"/>
				<path class="st5" d="M982.71,292.97c0,0-7.4-16.73-9.12-22.3c-0.77-2.52-2.33-6.79-1.55-8.34c0.78-1.55,1.36-5.04,0.97-5.82
					c-1.3-2.6-3.69-7.37-3.88-8.92c-0.2-1.55-1.55-1.16-1.75,0.39c-0.2,1.55-0.88,6.57-2.24,6.96c-1.36,0.39-2.31,1.36-8.71,0.97
					c-6.4-0.39-6.87,1.16-5.32,1.94c1.55,0.78,5.58,0.9,6.93,2.26c1.36,1.36,5.46,5.33,6.62,7.85c1.16,2.52,2.91,7.95,4.07,12.22
					c1.16,4.27,3.49,27.16,8.54,26.38C982.32,305.77,982.71,296.85,982.71,292.97z"/>
				<path class="st2" d="M1007.86,601.7l-0.52,2.58c0,0,0,2.53-0.52,2.59c-28.45,3.36-45.26,3.62-45.26,3.62s-1.01-2.31-0.52-2.84
					c3.1-3.36,11.9-6.72,25.09-12.67C999.32,589.02,1007.08,599.89,1007.86,601.7z"/>
				<path class="st2" d="M1017.42,558.77c0,0,9.05,8.28,9.83,12.15c0.78,3.88,5.43,13.96,5.43,16.03c0,2.07,3.36,2.07,3.36-0.52
					c0-2.59-2.85-38.53-2.85-38.53l-2.59-0.26l-5.17-2.07L1017.42,558.77z"/>
				<path class="st18" d="M978.12,528.51l32.84,26.12c0,0,9.05,8.28,8.27,8.28c-0.77,0,3.63-10.48,5.43-12.93
					c1.33-1.81,4.65-3.88,4.65-3.88s-0.32-1.2-3.36-1.81c-1.29-0.26-3.88-1.29-2.33-1.81c1.55-0.52-2.47-3.08-5.43-4.14
					c-3.62-1.29-36.98-34.92-44.22-40.34C966.74,492.56,978.12,528.51,978.12,528.51z"/>
				<path class="st8" d="M979.41,402.82c0,0-31.03,75.52-32.07,83.01c-1.04,7.5,34.4,97.76,34.4,97.76s8.53,8.02,5.17,5.95
					c-3.36-2.07-3.36,1.03-3.36,1.03l0.78,4.91l25.09,7.24l-1.29-3.36l-0.26-1.81l-6.21-6.21l2.33-3.1l-30.26-98.79l15.77-35.43
					c0,0,7.5-9.31,12.93-19.4c5.43-10.09,15.77-14.74-0.78-25.86C985.1,397.65,981.73,395.32,979.41,402.82z"/>
				<path class="st6" d="M1015.36,302.48c0,0-8.28-6.98-11.38-7.24c-3.1-0.26-11.38-3.62-11.38-3.62s0-1.81-0.77-1.55
					c-0.78,0.26-6.47-3.62-6.47-3.62l-1.81,8.28c0,0,4.66,13.45,11.9,14.48C1002.68,310.23,1013.29,302.74,1015.36,302.48z"/>
				<path class="st6" d="M996.74,354.98c0,0-14.74,32.84-17.33,40.09c-2.59,7.24-3.36,10.09-3.36,10.09l4.4,3.1
					c0,0,4.14-5.17,4.65-7.76C985.61,397.9,996.74,354.98,996.74,354.98z"/>
				<path class="st6" d="M1011.48,305.06c0,0,1.81-3.88,4.4-3.62c2.59,0.26,1.03-1.04,3.62-0.77c2.59,0.26,12.67,3.88,14.22,4.65
					c1.55,0.77,2.59,1.55,2.59,4.4c0,2.84,3.62,9.83,3.36,15c-0.26,5.17-16.29,71.9-18.36,81.46c-2.07,9.57,1.03,18.1-6.47,16.29
					c-7.5-1.81-26.12-7.24-31.29-11.64c-5.17-4.4,1.03-31.81,4.39-43.19c3.36-11.38,6.47-48.62,6.21-49.4
					C993.89,317.48,1011.48,305.06,1011.48,305.06z"/>
				<path class="st6" d="M1023.2,305.26c0,0-5.78-0.97-12.76-2.01c-6.98-1.04-2.33-0.26-11.38-1.04c-9.05-0.77-9.83-1.81-10.86-4.4
					c-1.04-2.59-2.33-4.91-2.33-4.91s-5.43-8.53-6.21-8.79c-0.78-0.26,0.26,1.03-2.84,11.12c-3.1,10.09-3.62,10.09-3.1,12.41
					c0.52,2.33,7.5,9.05,7.5,9.05l0.77-1.55c0,0,4.97,7.92,9.89,7.92s20.69,7.18,20.69,7.18S1027.08,316.64,1023.2,305.26z"/>
				<path class="st6" d="M1023.2,305.26c0,0-5.78-0.97-12.76-2.01c-6.98-1.04-2.33-0.26-11.38-1.04c-9.05-0.77-9.83-1.81-10.86-4.4
					c-1.04-2.59-2.33-4.91-2.33-4.91s-3.04-4.78-4.9-7.3c0.2,2.62,0.26,5.61-0.3,7.29c-1.15,3.45-0.57,9.2,0.86,9.48
					c1.44,0.29,3.73-1.72,4.02-3.45c0.29-1.72,2.3-0.29,2.3,1.15c0,1.44-0.58,6.9,2.87,8.91c3.45,2.01,8.33,4.6,15.23,5.17
					c6.9,0.58,11.78,2.87,8.33,4.31c-3.45,1.44-7.76,3.74-4.31,3.45c3.45-0.29,4.31-0.29,2.3,1.44c-1.4,1.2,1.25,2.82,4.64,2.03
					C1020.84,320.4,1025.63,312.39,1023.2,305.26z"/>
			</g>
		</g>
		<g>
			<path class="st34" d="M320.91,418.36l-22.35-35.63c11.29-7.1,23.81-11.45,36.61-13.04l5.23,41.74
				C333.58,412.27,326.92,414.58,320.91,418.36z"/>
			<path class="st35" d="M371.78,499.46l22.34,35.64c-11.29,7.09-23.79,11.43-36.59,13.02l-5.23-41.73
				C359.11,505.54,365.77,503.24,371.78,499.46z"/>
			<path class="st36" d="M340.99,411.34l-4.71-41.78c12.61-1.41,25.46-0.16,37.65,3.76l-12.9,40.03
				C354.54,411.26,347.7,410.59,340.99,411.34z"/>
			<path class="st36" d="M340.4,411.43l-5.23-41.74c0.37-0.05,0.74-0.09,1.11-0.13l4.71,41.78
				C340.79,411.36,340.6,411.4,340.4,411.43z"/>
			<path class="st37" d="M331.67,504.47c6.49,2.09,13.32,2.76,20.04,2l4.71,41.78c-12.61,1.42-25.46,0.16-37.64-3.75L331.67,504.47z
				"/>
			<path class="st37" d="M352.3,506.39l5.23,41.73c-0.37,0.05-0.74,0.09-1.11,0.13l-4.71-41.78
				C351.91,506.45,352.1,506.41,352.3,506.39z"/>
			<path class="st38" d="M361.59,413.54l13.4-39.89c11.77,3.95,22.88,10.39,32.51,19.34l-28.62,30.84
				C373.76,419.08,367.86,415.64,361.59,413.54z"/>
			<path class="st38" d="M361.03,413.35l12.9-40.03c0.35,0.11,0.71,0.22,1.06,0.34l-13.4,39.89
				C361.4,413.48,361.22,413.41,361.03,413.35z"/>
			<path class="st39" d="M331.11,504.27l-13.4,39.89c-11.77-3.94-22.88-10.39-32.51-19.34l28.62-30.84
				C318.94,498.74,324.84,502.17,331.11,504.27z"/>
			<path class="st39" d="M331.67,504.47l-12.9,40.03c-0.35-0.11-0.71-0.23-1.07-0.34l13.4-39.89
				C331.29,504.33,331.48,504.41,331.67,504.47z"/>
			<path class="st40" d="M380.22,425.04c-0.28-0.28-0.59-0.52-0.89-0.8l28.99-30.47c0.54,0.52,1.1,1.01,1.62,1.54
				c8.76,8.76,15.34,18.89,19.73,29.69l-38.95,15.85C388.39,435.1,384.88,429.7,380.22,425.04z"/>
			<path class="st40" d="M378.89,423.84L407.51,393c0.27,0.25,0.54,0.52,0.81,0.77l-28.99,30.47
				C379.19,424.1,379.04,423.97,378.89,423.84z"/>
			
				<linearGradient id="SVGID_1_" gradientUnits="userSpaceOnUse" x1="-15495.2139" y1="-1292.4681" x2="-15384.0303" y2="-1292.4681" gradientTransform="matrix(-0.7071 0.7071 0.7071 0.7071 -9708.0928 12318.0117)">
				<stop  offset="0" style="stop-color:#F95830"/>
				<stop  offset="1" style="stop-color:#E04037"/>
			</linearGradient>
			<path class="st19" d="M312.48,492.78c0.29,0.29,0.6,0.52,0.89,0.8l-28.99,30.47c-0.54-0.51-1.09-1.01-1.62-1.54
				c-8.76-8.76-15.34-18.88-19.73-29.68l38.95-15.85C304.31,482.72,307.81,488.11,312.48,492.78z"/>
			<path class="st39" d="M313.81,493.98l-28.62,30.84c-0.27-0.25-0.54-0.51-0.82-0.77l28.99-30.47
				C313.51,493.72,313.66,493.84,313.81,493.98z"/>
			
				<linearGradient id="SVGID_2_" gradientUnits="userSpaceOnUse" x1="-15495.2148" y1="-1273.8406" x2="-15384.0283" y2="-1273.8406" gradientTransform="matrix(-0.7071 0.7071 0.7071 0.7071 -9708.0928 12318.0117)">
				<stop  offset="0" style="stop-color:#F95830"/>
				<stop  offset="1" style="stop-color:#E04037"/>
			</linearGradient>
			<path class="st25" d="M313.81,493.98l-28.62,30.84c-0.27-0.25-0.54-0.51-0.82-0.77l28.99-30.47
				C313.51,493.72,313.66,493.84,313.81,493.98z"/>
			<path class="st43" d="M312.48,425.04c-3.33,3.33-6.04,7.04-8.18,10.97l-36.93-20.12c4.03-7.38,9.14-14.33,15.39-20.58
				c4.87-4.87,10.16-9.03,15.75-12.55l22.38,35.61C317.9,420.25,315.07,422.44,312.48,425.04z"/>
			<path class="st43" d="M320.88,418.37l-22.38-35.61c0.02-0.01,0.03-0.02,0.05-0.03l22.35,35.63
				C320.9,418.36,320.89,418.37,320.88,418.37z"/>
			<path class="st44" d="M380.22,492.78c3.33-3.33,6.04-7.04,8.18-10.97l36.94,20.11c-4.02,7.39-9.14,14.33-15.39,20.58
				c-4.87,4.87-10.16,9.03-15.75,12.55l-22.38-35.61C374.79,497.56,377.62,495.37,380.22,492.78z"/>
			<path class="st44" d="M371.82,499.44l22.38,35.61c-0.03,0.02-0.05,0.03-0.08,0.05l-22.34-35.64
				C371.79,499.45,371.8,499.45,371.82,499.44z"/>
			<path class="st45" d="M390.92,441.41l39.15-15.37c4.68,11.95,6.73,24.7,6.1,37.34l-42.04-2.1
				C394.47,454.56,393.42,447.78,390.92,441.41z"/>
			<path class="st45" d="M390.72,440.85L429.67,425c0.14,0.35,0.26,0.7,0.4,1.05l-39.15,15.37
				C390.85,441.23,390.8,441.03,390.72,440.85z"/>
			<path class="st46" d="M301.77,476.4l-39.15,15.36c-4.68-11.95-6.73-24.69-6.1-37.33l42.04,2.1
				C298.23,463.26,299.28,470.04,301.77,476.4z"/>
			<path class="st46" d="M301.98,476.97l-38.95,15.85c-0.14-0.35-0.26-0.7-0.4-1.05l39.15-15.36
				C301.85,476.59,301.9,476.78,301.98,476.97z"/>
			<path class="st47" d="M394.11,461.89l41.98,2.62c-0.8,12.92-4.37,25.69-10.73,37.35l-36.95-20.09
				C391.8,475.56,393.68,468.77,394.11,461.89z"/>
			<path class="st47" d="M388.41,481.78l36.95,20.09c-0.01,0.02-0.02,0.04-0.03,0.06l-36.94-20.11
				C388.41,481.8,388.41,481.79,388.41,481.78z"/>
			<path class="st47" d="M394.13,461.29l42.04,2.1c-0.02,0.37-0.06,0.75-0.08,1.12l-41.98-2.62
				C394.12,461.69,394.12,461.49,394.13,461.29z"/>
			<path class="st48" d="M298.59,455.93l-41.99-2.62c0.8-12.86,4.34-25.58,10.64-37.2l36.98,20.01
				C300.88,442.31,299.02,449.08,298.59,455.93z"/>
			<path class="st48" d="M304.23,436.12l-36.98-20.01c0.04-0.07,0.08-0.14,0.12-0.21l36.93,20.12
				C304.28,436.05,304.25,436.08,304.23,436.12z"/>
			<path class="st48" d="M298.57,456.52l-42.04-2.1c0.02-0.38,0.06-0.75,0.08-1.12l41.99,2.62
				C298.58,456.13,298.57,456.32,298.57,456.52z"/>
		</g>
		<g>
			<g>
				<rect x="543.63" y="484.79" class="st2" width="289.16" height="84.51"/>
				<rect x="543.63" y="483.84" class="st2" width="289.16" height="13.22"/>
				<rect x="687.36" y="494.18" class="st2" width="145.43" height="17.35"/>
				<rect x="543.63" y="494.18" class="st2" width="72.31" height="17.35"/>
				<rect x="550.11" y="503.68" class="st17" width="53.59" height="2.54"/>
				<rect x="632.84" y="503.68" class="st6" width="35.38" height="2.54"/>
				<rect x="698.37" y="503.68" class="st17" width="35.38" height="2.54"/>
				<rect x="547.26" y="488.38" class="st17" width="4.13" height="4.5"/>
				<rect x="551.37" y="547.69" class="st9" width="4.51" height="4.15"/>
				<rect x="814.95" y="547.69" class="st17" width="4.5" height="4.15"/>
				<linearGradient id="SVGID_3_" gradientUnits="userSpaceOnUse" x1="551.1794" y1="531.6112" x2="820.9728" y2="531.6112">
					<stop  offset="0" style="stop-color:#FFFFFF"/>
					<stop  offset="1" style="stop-color:#282D33"/>
				</linearGradient>
				<rect x="551.18" y="521.59" class="st26" width="269.79" height="20.03"/>
			</g>
			<g>
				<g>
					<path class="st2" d="M832,349.28c-8.07-6.79-42.58-9.45-51.26-26.03c-4.83-9.23-13.85,15.04-11.03,24.51
						c-16.51,51.57-8.33,68.66,6.24,67.59C853.23,409.68,852.24,366.31,832,349.28z"/>
					<g>
						<g>
							<g>
								<path class="st4" d="M765.68,432.07c0,0,0.77,3.43-15.77,7.64c-16.53,4.2-41.85,6.27-41.85,6.27l37.25-13.25
									C745.31,432.72,759.79,428.33,765.68,432.07z"/>
								<path class="st4" d="M721.38,443.89c-7.8,2.23-10.02,7.1-12.77,9.2c-2.75,2.1-5.32,4.84-5.31,4.79
									c0.78-3.83,3.27-4.64,4.22-6.09c0.95-1.44,0.78-0.8-2.06-0.22c-1.6,0.34-3.58,3.92-5.14,6.03
									c-1.36,1.83-2.41,2.25-2.41,2.25s1.22-3.39,3.14-6.41c2.33-3.62,5.51-7,6.32-7.63c1.47-1.13,6.64-2.81,10.49-3.38
									C722.23,441.81,727,442.27,721.38,443.89z"/>
								<path class="st4" d="M707.84,445.86c0,0-5.54,3.23-6.36,4.32c-0.57,0.75-2.71,4.84-2.71,4.84s2.13-1,3.08-2.59
									C702.79,450.86,707.84,445.86,707.84,445.86z"/>
							</g>
							<path class="st11" d="M756.45,427.03c0,0,15.36-3.42,16.92,5.82c0.88,5.26-2.06,8.02-6.71,8.97
								c-8.67,1.78-18.63,3.33-18.63,3.33l-8.32-12.67L756.45,427.03z"/>
						</g>
						<path class="st11" d="M755.58,419.4l4.28-42c0,0-0.31-10.98,3.65-10.76c5.71,0.33,6.79,9.81,7.3,13.22
							c1,6.93,2.47,9.67,2.35,27.14c-0.07,10.77,0.7,22.94,0.02,30.2c-0.46,5.01-5.34-0.55-10.42-1.02
							C753.28,435.28,755.58,419.4,755.58,419.4z"/>
					</g>
					<polygon class="st5" points="663.42,537.03 649.39,567.45 629.94,567.88 620.12,565.89 641.27,560.86 652.6,532.62 					"/>
					<path class="st11" d="M647.25,572.25l-2.59-0.6l-1.44-3.14l-15.69,0.69l-12.64-2.35c0,0,0.25-0.95,0.84-1.28
						c2.24-1.2,12.05-1.78,12.05-1.78s-1.04,2.72,0.08,3.3c1.11,0.57,13.22-0.17,16.13-0.58c5-0.71,7.59-1.97,7.36-1.31
						C651.04,566.17,647.25,572.25,647.25,572.25z"/>
					<path class="st6" d="M741.09,475.2l-45.85-1.22l-34.17,74.79l-14.15-5.59l33.33-89.99c0,0,2.64-5.69,16.49-5.69
						c13.48,0,67.89-1.49,74.07,0.23C785.47,451.8,738.58,462.77,741.09,475.2z"/>
					<path class="st2" d="M752.33,344.27c3.81,7.82,13.24,11.07,21.06,7.27l0.27-8.46c7.82-3.81,11.06-13.24,7.25-21.05l-2.59-5.31
						c-3.81-7.82-13.23-11.07-21.06-7.26l-3.54,1.72c-7.82,3.82-11.07,13.24-7.26,21.07L752.33,344.27z"/>
					<path class="st5" d="M747.84,320.69c0.64,1.3,1.41,2.57,2.28,3.83c5.86,8.39,14.75,12.6,21.2,10.51
						c2.2,4.03,4.83,7.33,7.35,9.99c2.87,3.03,8.92,4.79,8.92,4.79c4.12,5.84,1.79,22.69-12.93,24.42
						c-8.86,1.04-7.04-8.29-3.95-14.1c1.44-2.73,2.83-5.87,2.52-7.41c-1.12-5.36-3.08-6.1-6.23-7.93
						c-5.32-2.33-10.18,0.11-10.18,0.11c-0.48,0.23-1,0.24-1.45,0.06c-0.75-0.8-1.38-1.71-1.89-2.74l-5.69-11.68
						C746.22,327.31,746.36,323.69,747.84,320.69z"/>
					<path class="st11" d="M794.03,460.38c0,0-6.73,1.39-8.59,2.09c-2.49,0.93-9.79-0.24-9.79-0.24s-0.93-36.04-2.7-48.61
						c-1.75-12.58-5.02-15.99-4.99-19.92c0.03-6.29,0.56-7.75,1.66-12.64c1.12-4.88-2.14-11.36-1.03-10.12
						c1.78,2,8.44,5.11,14.66-1.78C784.31,367.98,794.03,460.38,794.03,460.38z"/>
					<path class="st15" d="M770.18,356.34c0,0-9.15,9.21-8.78,12.24c0.36,3.03-0.56,15.75,1.53,29.29
						c2.1,13.54,3.79,16.9,4.14,26.78c0.35,9.89-1.94,12.09-1.12,24.23c0.65,9.51,2.15,17.9,2.15,17.9s4.31,1.21,7.57-2.33
						c3.26-3.52,2.08-36.58,0.88-44.72c-1.2-8.13-5.98-29.48-5.7-35.15c0.29-5.67,2.12-19.21,3.12-20.99
						C776.48,359.13,770.9,356.79,770.18,356.34z"/>
					<path class="st11" d="M770.15,355.48c0,0,0.5,0.8,1.13,1.23c1.19,0.83,2.68,2.44,2.68,2.44s-1.83-0.88-2.52,0.7
						c-0.86,1.94-1.38,6.32-1.38,6.32s-3.38-5.58-2.58-7.36C768.93,355.6,770.15,355.48,770.15,355.48z"/>
					<polygon class="st5" points="708.66,543.67 707.98,564.97 703.63,570.09 692.07,576.75 683.5,575.19 698.61,563.93 
						699.72,541.58 					"/>
					<path class="st11" d="M707.31,569.64l-3.89,2.77l-1.19-0.94l-12.88,7.06c0,0-6.8,3.42-8.68,1.21
						c-0.61-0.71,0.15-3.05,2.33-4.67c1.71-1.27,2.77-1.77,2.77-1.77s0.45,1.66,4.31,2.3c1.23,0.21,8.88-4.85,11.51-6.16
						c4.72-2.36,6.6-5.66,6.83-5.35C709.04,564.91,707.31,569.64,707.31,569.64z"/>
					<path class="st6" d="M799.43,431.35l-5.53,13.07l-9.51,1.17l-76.74,4.89c0,0-6.87-2.13-11.24,8.72
						c-6.23,15.45,1.91,92.75,1.91,92.75l11.37-0.18l6.13-72.89c0,0,73.76,12.91,95,6.38c8.15-2.5,14.38-16.9,13.22-31.44
						c-0.91-11.4-8.51-21.88-8.51-21.88L799.43,431.35z"/>
					<path class="st15" d="M788.99,458.8c0,0-3.56-32.17-5.58-47.4c-2.02-15.23-1.57-40.78-2.04-44.44
						c-0.46-3.66-2.39-8.94-2.39-8.94s3.71-8.31,8.55-8.04c4.26,0.24,13.43,6.46,19.94,9.09c4.49,1.83,6.4,51.4,6.81,54.11
						c1.45,9.73,6.24,20.89,9.34,28.6c2.46,6.13,4.37,15.28,4.37,15.28S803.43,454.19,788.99,458.8z"/>
					<path class="st11" d="M786.63,347.46l-3.61,4.07c0,0-5.05,6.97-3.4,5.99c2.08-1.24,4.47,6.03,4.47,6.03l6.71-13.76
						L786.63,347.46z"/>
					<g>
						<path class="st5" d="M816.05,425.63c0,0,5.61,3.99-15.6,6.17c-21.22,2.19-52.86,0.61-52.86,0.61l48.51-9.18
							C796.11,423.23,809.49,420.51,816.05,425.63z"/>
						<path class="st5" d="M764.43,432.11c-10.06,1.32-13.74,6.47-17.53,8.41c-3.79,1.93-7.49,4.63-7.47,4.6
							c1.7-4.2,4.93-4.75,6.39-6.22c1.44-1.48,1.11-0.79-2.5-0.57c-2.06,0.13-5.18,3.86-7.51,6c-2.01,1.85-3.4,2.17-3.4,2.17
							s2.15-3.63,5.11-6.72c3.57-3.73,8.15-7.06,9.26-7.64c2.04-1.04,8.74-2.13,13.61-2.18
							C765.87,429.91,771.67,431.17,764.43,432.11z"/>
						<path class="st5" d="M747.33,432.26c0,0-7.45,2.78-8.68,3.89c-0.85,0.76-4.26,5.03-4.26,5.03s2.81-0.8,4.28-2.45
							C740.14,437.11,747.33,432.26,747.33,432.26z"/>
					</g>
					<path class="st11" d="M803.5,419.62l-6.9-46.73c0,0,1.71-9.63,4.7-12.92c3.54-3.91,6.18-0.9,6.18-0.9s12.02,4.63,12.57,41.61
						c0.39,25.32,2.71,35.73-8.2,36.83c-10.18,1.03-28.57,1.96-28.57,1.96l-3.91-14.52L803.5,419.62z"/>
				</g>
				<g>
					<rect x="678.96" y="444.9" class="st2" width="66.96" height="1.38"/>
					<path class="st2" d="M716.36,444.82c-0.01,1.07-0.76,1.93-1.7,1.93h-34.34c-0.93,0-2.21-0.68-3.34-3.39l-16.98-31
						c0-1.35,1.06-2.15,1.98-1.94l35.23,1.06c0.94,0.22,1.7,0.94,2.23,2.34L716.36,444.82z"/>
					<path class="st2" d="M712.21,446.28h0.34h33.53c-1.2,0.64-3.21,1.06-5.49,1.06h-28.04h-0.34h-28.04
						c-2.28,0-4.28-0.43-5.49-1.06H712.21z"/>
				</g>
			</g>
		</g>
		<g>
			<g>
				<g>
					<g>
						<path class="st5" d="M238.64,268.48l-2.42-6.25c0,0-1.01-3.03-3.39-6.08c-2.37-3.05-5.74-2.95-9.08-1.23
							c-3.35,1.72-4.29,3.55-4.29,3.55s0.39,4.8,4.29,5.55c3.9,0.77,10.78,7.36,11.87,6.15
							C236.7,268.96,238.64,268.48,238.64,268.48z"/>
						<polygon class="st5" points="219.58,260.51 216.07,253.91 213.1,247.63 214.65,247.51 217.38,251.67 224.65,255.91 
							222.96,257.44 						"/>
						<polygon class="st5" points="219.88,250.68 218.97,244.59 220.43,244.05 222.41,249.9 226.5,255.07 222.96,257.44 						"/>
						<polygon class="st5" points="223.11,243.89 223.52,248.79 223.35,252.08 225.38,255.1 228.77,254.13 226.49,250.95 
							224.85,244.59 						"/>
						<polygon class="st5" points="227.99,244.54 227.25,253.38 228.83,255.42 231.2,254.89 230.06,250.81 229.14,245.59 						"/>
					</g>
					<path class="st5" d="M236.85,273.3c-1.75-3.55-5.91-4.36-5.91-4.36s-10.33-2.26-11.46-4.28c-1.13-2.03-5.05-4.41-5.05-4.41
						s-1.14-1.79,3.04-0.93c2.74,0.57,4.92,1.89,4.92,1.89s6.33-0.8,8.02,0.01c3.48,1.67,7.56,10.38,7.56,10.38
						S237.07,273.75,236.85,273.3z"/>
					<path class="st8" d="M165.03,324.58c0,0-0.83,12.2,35.73,15c36.57,2.8,35.78-5.55,35.78-5.55l2.97-8.75L226.71,301l-11.94,5.44
						l-0.07,2.05c0,0-1.99,1.85-4.3,1.22c-2.32-0.63-13.36-0.3-33.53-4.84C167.57,302.77,165.17,322.23,165.03,324.58z"/>
					<g>
						<path class="st18" d="M176.87,304.86c0.41,0.1,0.81,0.18,1.2,0.26c-3.08,4.95-4.79,11.65-5.04,12.97
							c0,0-2.42,11.97,33.59,19.17c6.5,1.3,11.79,2.08,16.13,2.49c-5.08,0.5-12.15,0.58-21.98-0.18c-36.56-2.8-35.73-15-35.73-15
							C165.17,322.23,167.57,302.77,176.87,304.86z"/>
					</g>
					<path class="st5" d="M226.04,303.45c0,0,20.73-16.34,4.96-38.33c-4.68-6.54,2-1.85,8.1,3.16c6.1,5.01,16.22,24.5,10.58,39.7
						c-5.63,15.19-9.07,20.47-15.69,21.06C227.36,329.62,226.04,303.45,226.04,303.45z"/>
					<path class="st8" d="M212.77,319.32l-1.2-6.76l-0.32-2.73c1.93,0.07,3.46-1.34,3.46-1.34l-0.09,5.19l1.06,6.14l4.04,7.54
						L212.77,319.32z"/>
				</g>
				<g>
					<path class="st8" d="M179.7,402l-42.74-0.93l-17.77-59.5c0,0-11.53-35.98,10.57-36.44c22.09-0.46,47.54-0.46,47.54-0.46
						S192.18,317.6,179.7,402z"/>
					<path class="st5" d="M140.81,260.03c0,0,22.47,20.9,19.68,28.14c-0.12,0.32-3.66,3.72-4.05,7.16
						c-0.37,3.23,1.17,5.14,1.17,6.43c0,0.42,1.13,3.19,1.25,4.02c0.53,3.72-1.37,6.79-2.95,6.41c-1.92-0.46-10.05-3.68-11.47-4.45
						c-0.98-0.54-1.89-0.62-2.14-2.17c-0.52-3.29-2.25-8.89-3.9-10.48c-4.85-4.66-18.45-9.14-14.66-22.51
						C124.84,268.67,138.89,259.11,140.81,260.03z"/>
					<polygon class="st15" points="155.27,312.15 154.22,319.53 140.65,308.25 142.22,305.5 					"/>
					<polygon class="st15" points="159.25,307.39 158.87,304.91 161.35,309.17 161.48,316.99 156.11,312.31 					"/>
					<path class="st4" d="M160.24,287.78c0,0-1.06,0.24-3.1,0.52c-0.68,0.09-2.65,0.39-3.54,0.79c-3.96,1.79-3.6,2.01-6.21,2.62
						c-2.97,0.7-9.52,0.92-9.52,0.92s3.3,1.25,4.61,1.77c2.45,0.98,4.56,0.63,6.22,0.06c7.25-2.44,7.25-1.74,8-2.35
						C156.75,292.07,156.96,291.52,160.24,287.78z"/>
					<path class="st5" d="M148.79,269.66c0.35,0.43,5.07,2.79,5.94,3.23c0.87,0.44,2.01,0.96,2.09,1.31c0.09,0.35,0,1.66-0.09,2.19
						c-0.09,0.52-0.35,2.62-2.09,1.05C152.9,275.86,148.79,269.66,148.79,269.66z"/>
					<path class="st2" d="M122.5,271.93c1.31-7.08,10.66-13.72,21.4-13.28c0,0,0.96,1.57-0.09,4.45c0,0-7.26-1.39-12.23,4.11
						c-5.22,5.77,1.24,5.06,1.13,7.67c-0.09,2.19-0.26,4.13-0.26,4.13l1.97,4l-1.38,1.51c0,0-3.86-2.76-3.73-1.05
						c0.16,2.06,2.86,4.3,3.21,4.65c0.36,0.35,0.94,0.92,0.86,1.18c-0.07,0.2,2.09,1.83,4.64,5.59c-0.71,0.63-2.46,0.43-4.77-1.33
						C128.04,289.6,120.9,280.57,122.5,271.93z"/>
					<path class="st5" d="M129.43,282.98c-1.35,1.09-1.57,3.07-0.47,4.42c1.09,1.35,3.07,1.57,4.42,0.48"/>
					<path class="st4" d="M152.58,277.83c0,0,2.16-3.1,2.51-3.27c0.36-0.18,1.14-0.71,1.4-0.44c0.27,0.26,0.46,1.35-0.24,3.32
						C156.07,277.91,155.66,277.04,152.58,277.83z"/>
					<rect x="167.58" y="585.68" class="st11" width="11.01" height="16.77"/>
					<rect x="89.47" y="585.68" class="st11" width="8.91" height="16.77"/>
					<path class="st2" d="M168.1,607.35h8.04v-2.45l3.49,2.45h20.27c0,0-0.34-3.32-13.97-3.84c-3.5-0.14-5.94-4.89-5.94-4.89
						s-1.74-1.57-4.36,2.1c-0.68,0.95-8.04-0.88-8.04-0.88S166.88,604.73,168.1,607.35z"/>
					<path class="st6" d="M178.26,400.62l0.96,90.86l-19.83,14.08c0,0-8.48-29.19-9.92-56.87
						C148.02,421.01,178.26,400.62,178.26,400.62z"/>
					<path class="st6" d="M178.26,400.62L136,500.24l-7.68,10.61L98.7,598.68l-11.07-4.58c0,0,2.67-46.56,9.54-67.56
						c7.01-21.42,14.12-34.73,14.12-34.73l27.11-93.97L178.26,400.62z"/>
					<path class="st6" d="M163.2,599.06c-3.48-17.83-5.85-52.28-6.11-63.74c-0.48-21.22,1-36.46,1-36.46l21.13-7.38l0.02,104.91
						L163.2,599.06z"/>
					<path class="st2" d="M99.58,610.41h-5.44l-1.72-1.71l-0.74-4.21l-1.73,1.73l-5.68-5.68c0.98-2.72,4.94-5.69,4.94-5.69
						s3.91,6.49,5.07,6.3c4.45-0.75,4.57,1.61,4.57,1.61S97.22,607.83,99.58,610.41z"/>
					<path class="st2" d="M93.93,604.25c1.04,1.17,2.49,2.33,4.19,2.4c13.63,0.52,13.98,3.84,13.98,3.84H93.93V604.25z"/>
				</g>
			</g>
			<path class="st15" d="M32.41,437.32l42.44-84.69c0,0,35.62,0,47.8-1.23c34.14-3.42,76.01-24.62,76.01-24.62l-33.54,91.34
				c0,0-66.83,15.33-83.1,15.23C55.38,433.16,32.41,437.32,32.41,437.32z"/>
			<path class="st8" d="M122.08,339.74L97.1,378.02l-3.36,0.47l0.96,3.23l-18.09-1.38l-4-15.68l35.05-51.65
				c0,0,10.92-9.93,28.81-7.38C149.45,307.45,124,336.51,122.08,339.74z"/>
			<path class="st5" d="M93.74,380.32l18.54,51.53c0,0-4.03,1.23-6.38-0.85c-6.35-5.65-17.43-21.03-21.28-29.46
				c-5.28-11.53-8.17-23.98-8.17-23.98L93.74,380.32z"/>
			<polygon class="st5" points="106.83,431.67 120.88,436.89 122.24,426.65 119.3,427.79 115.81,424.97 110.45,429.81 			"/>
		</g>
	</g>
	<g id="Elements_3_">
	</g>
	<g id="Text_3_">
	</g>
</g>
<g id="Share_your_story">
	<g id="Bg_2_">
	</g>
	<g id="Graphic_1_">
	</g>
	<g id="Elements_2_">
	</g>
	<g id="Text_2_">
	</g>
</g>
<g id="Engaging_Content">
	<g id="Bg_1_">
	</g>
	<g id="Graphics">
	</g>
	<g id="Elements_1_">
	</g>
	<g id="Text_1_">
	</g>
</g>
<g id="Always_stay_connected">
	<g id="BG">
	</g>
	<g id="Graphic">
	</g>
	<g id="Elements">
	</g>
	<g id="Text">
	</g>
</g>
<g id="Layer_22">
</g>
</svg>
