<?xml version="1.0" encoding="utf-8"?>
<!-- Generator: Adobe Illustrator 23.1.1, SVG Export Plug-In . SVG Version: 6.00 Build 0)  -->
<svg version="1.1" id="Layer_1" xmlns="http://www.w3.org/2000/svg" xmlns:xlink="http://www.w3.org/1999/xlink" x="0px" y="0px"
	 viewBox="0 0 432 72" style="enable-background:new 0 0 432 72;" xml:space="preserve">
<style type="text/css">
	.st0{enable-background:new    ;}
	.st1{fill:#111A5D;}
</style>
<g class="st0">
	<path class="st1" d="M37.86,29.75c-0.8-1.33-3-2.6-5.53-2.6c-3.26,0-4.83,1.37-4.83,3.1c0,2.03,2.4,2.6,5.19,2.93
		c4.86,0.6,9.39,1.86,9.39,7.42c0,5.19-4.59,7.42-9.79,7.42c-4.76,0-8.42-1.46-10.15-5.73l3.66-1.9c1.03,2.56,3.73,3.7,6.56,3.7
		c2.76,0,5.36-0.97,5.36-3.5c0-2.2-2.3-3.1-5.39-3.43c-4.76-0.57-9.16-1.83-9.16-7.06c0-4.79,4.73-6.76,9.02-6.79
		c3.63,0,7.39,1.03,9.16,4.63L37.86,29.75z"/>
</g>
<g class="st0">
	<path class="st1" d="M71.85,24.15V37.5c0,6.89-4.23,10.42-10.09,10.42c-5.59,0-10.35-3.4-10.35-10.42V24.15h4.36V37.5
		c0,4.2,2.4,6.43,6.03,6.43c3.63,0,5.69-2.43,5.69-6.43V24.15H71.85z"/>
</g>
<g class="st0">
	<path class="st1" d="M83.87,47.43V24.12h4.36v23.31H83.87z"/>
</g>
<g class="st0">
	<path class="st1" d="M106.7,28.12h-7.39v-4c6.73,0,12.42,0,19.18,0v4h-7.39v19.31h-4.4V28.12z"/>
</g>
<g class="st0">
	<path class="st1" d="M145.05,47.43h-17.45c0-7.76,0-15.55,0-23.31h17.45v4.26h-13.08v5.36h12.62v4.1h-12.62v5.26h13.08V47.43z"/>
	<path class="st1" d="M176.95,35.57c0.1,5.89-3.5,11.85-11.65,11.85c-2.86,0-6.29,0-9.16,0V24.12c2.86,0,6.29,0,9.16,0
		C173.29,24.12,176.85,29.81,176.95,35.57z M160.5,43.2h4.79c5.29,0,7.39-3.86,7.29-7.66c-0.1-3.63-2.23-7.26-7.29-7.26h-4.79V43.2z
		"/>
	<path class="st1" d="M202.55,47.43V24.15h16.75v4.23h-12.35v6.36h11.69v4.06h-11.69v8.62H202.55z"/>
</g>
<g class="st0">
	<path class="st1" d="M254.55,35.91c-0.07,6.03-3.76,12.05-11.95,12.05s-11.99-5.89-11.99-12.02c0-6.13,3.93-12.29,11.99-12.29
		C250.62,23.65,254.62,29.81,254.55,35.91z M234.94,36.01c0.1,3.83,2.16,7.92,7.66,7.92c5.49,0,7.56-4.13,7.62-7.96
		c0.07-3.93-2.13-8.32-7.62-8.32C237.11,27.65,234.84,32.08,234.94,36.01z"/>
</g>
<g class="st0">
	<path class="st1" d="M286.04,47.43h-5.23l-6.79-7.79h-4.23v7.79h-4.4V24.09c3.7,0,7.39,0.03,11.09,0.03
		c5.49,0.03,8.39,3.7,8.39,7.72c0,3.2-1.46,6.43-5.89,7.33l7.06,7.96V47.43z M269.79,28.21v7.46h6.69c2.8,0,4-1.86,4-3.73
		c0-1.86-1.23-3.73-4-3.73H269.79z"/>
</g>
<g class="st0">
	<path class="st1" d="M336.38,47.43h-3.73l-2.9-7.33l-2.46-7.36l-2.43,7.42l-2.83,7.26h-3.73l-8.56-23.31h4.93l5.49,16.81
		l5.66-16.81h2.86l5.83,16.81l5.33-16.81h4.93L336.38,47.43z"/>
</g>
<g class="st0">
	<path class="st1" d="M372.06,47.43h-17.45c0-7.76,0-15.55,0-23.31h17.45v4.26h-13.08v5.36h12.62v4.1h-12.62v5.26h13.08V47.43z"/>
</g>
<g class="st0">
	<path class="st1" d="M403.86,30.88c0,1.8-0.87,3.53-3.03,4.5c2.73,0.83,3.73,3.73,3.73,5.19c0,5.19-3.9,6.86-8.72,6.86
		c-3.7,0-7.36,0-11.05,0V24.12c3.66,0,7.36,0,11.05,0C400.43,24.12,403.86,26.18,403.86,30.88z M389.11,33.48h6.73
		c2.76,0,3.66-1.17,3.66-2.5c0-1.07-0.87-2.86-3.66-2.86h-6.73V33.48z M389.11,43.33h6.73c1.8,0,4.36-0.6,4.36-2.8
		c0-2.1-2.56-3.2-4.36-3.2h-6.73V43.33z"/>
</g>
</svg>
