<?xml version="1.0" encoding="utf-8"?>
<!-- Generator: Adobe Illustrator 23.1.1, SVG Export Plug-In . SVG Version: 6.00 Build 0)  -->
<svg version="1.1" id="Layer_1" xmlns="http://www.w3.org/2000/svg" xmlns:xlink="http://www.w3.org/1999/xlink" x="0px" y="0px"
	 viewBox="0 0 1111.2 662" style="enable-background:new 0 0 1111.2 662;" xml:space="preserve">
<style type="text/css">
	.st0{display:none;}
	.st1{display:inline;fill:#EAEBF3;}
	.st2{fill:#0D1342;}
	.st3{fill:#11175C;}
	.st4{fill:#E2C59C;}
	.st5{fill:#E9D6B8;}
	.st6{fill:#C6CEDB;}
	.st7{fill:#E4EEF3;}
	.st8{fill:#30363D;}
	.st9{fill:#15100C;}
	.st10{fill:#FBFBFD;}
	.st11{fill:none;stroke:#C6CEDB;stroke-width:9.0217;}
	.st12{fill:#1D7F0F;}
	.st13{fill:none;stroke:#C6CEDB;stroke-width:6.0145;}
	.st14{fill:none;stroke:#B6C2C9;stroke-width:6.0145;}
	.st15{fill:#F5B1AE;}
	.st16{fill:#FFFFFF;}
	.st17{fill:#4E99FF;}
	.st18{fill:none;stroke:#C6CEDB;stroke-width:5.1125;}
	.st19{fill:#EDEDF7;}
	.st20{fill:#B6C2C9;}
	.st21{fill:#163F59;}
	.st22{fill:#879BA6;}
	.st23{fill:#ECB60D;}
	.st24{fill:#C4D1E1;}
	.st25{fill:#D8E5ED;}
	.st26{fill:#D9E1E4;}
</style>
<g id="Bg" class="st0">
	<rect x="-6.5" y="-11.5" class="st1" width="1131.3" height="688.1"/>
</g>
<g id="dizajn">
	<g>
		<path class="st2" d="M118.9,257.4c-2.5-2.2-5.5-3.9-9-4.7C99,250,88,256.6,85.4,267.3c-2.6,10.7,4.2,21.6,15.1,24.2
			c10.7,2.6,21.4-3.6,24.3-14C120.1,272.1,117.7,264.8,118.9,257.4z"/>
		<g>
			<path class="st3" d="M106.8,281.1c-0.2-2.4,1.8-4.3,5.4-4.7c18.4-1.9,44.6,4.8,44.6,4.8s2.8,3.6,0.1,6.3
				c-3.2,3.2-15.6,7.1-41.2,4.7C108.4,291.4,107.2,285.2,106.8,281.1z"/>
			<g>
				<path class="st4" d="M183.1,239.3c0,0,2-3.5,3.8-4.4c1.3-0.6,7.8-2.5,7.8-2.5s-1.4,2.1-4,2.8
					C186.9,236.4,183.1,239.3,183.1,239.3z"/>
				<path class="st4" d="M186.9,236.7c1-2.3,3.6-3.7,7.1-4.7c3.3-0.9,4.1-2.9,4.1-2.9s-2.2,0.3-7.1,2.2c-1.4,0.5-2.8,1.2-4.1,1.7
					C182.5,235.2,184.3,242.7,186.9,236.7z"/>
				<path class="st5" d="M181,242.8c1.8-0.1,4.2-2.5,5.3-2.3c3.1,0.7,4.6,2.1,4.7,2c0.1-3.8-5.1-4.6-6.7-6.3
					C182.6,234.7,176.3,243.1,181,242.8z"/>
				<path class="st5" d="M169.2,260.3c2.7-6.2,5.6-13.3,8.4-16c4-3.9,7.8-4.1,9.3-7.6c0.2-0.4,0.4-0.7,0.6-1.1
					c0.6-1,1.1-2.2,1.4-2.5c0.3-0.4,1.4-1.5,0.8-1.3c-5.3,2.3-11,5.3-11.9,6.4c-1.7,2.3-10.9,15.3-13.3,20.8
					C161.8,265.4,165.5,268.6,169.2,260.3z"/>
				<path class="st5" d="M186.4,236.5c0,0-1.3-0.6-0.9-1.6c0.6-1.6,3.1-4.2,4.1-5c1.1-1,6.7-4.7,6.7-4.7s-0.7,2.4-3,3.9
					C190,231.3,186.4,236.5,186.4,236.5z"/>
				<path class="st5" d="M158.5,267.3c1,4.5-2.8,16.9-0.4,17.3c8.6-10.2,18.2-44.2,18.2-44.2L158.5,267.3z"/>
			</g>
			<path class="st3" d="M174.8,260.4c-2.3-3.6-4.8-3.7-8.4-5.3c-5.8,7.4-12.7,18.7-18.1,26.9c-2,3.1,1.5,6,3.8,6.9
				c3.8,1.6,9.6-5.9,13.7-12.2C169.4,271,173.9,265.4,174.8,260.4z"/>
		</g>
		<g>
			<path class="st3" d="M162.2,258.1c-6.1,2.2-12.2,4.5-18.3,6.7c-18.8-16.3-28-41.1-24.3-65.7c6.1-2.2,12.2-4.5,18.3-6.7
				C146,214.3,154.1,236.2,162.2,258.1z"/>
			<path class="st3" d="M151.9,230.4c-4.7-12.6-9.4-25.3-14.1-38c-6.1,2.2-12.2,4.5-18.3,6.7c-2.1,14.2,0,28.4,5.8,41
				C134.3,236.9,143.1,233.7,151.9,230.4z"/>
			<path class="st6" d="M280.7,319.7c0.8,1.4,0.4,3.1-0.9,4l-41.7,26.1c-1.4,0.8-3.1,0.4-4-0.9l-43.9-70.3c-0.8-1.4-0.4-3.1,0.9-4
				l41.7-26.1c1.4-0.8,3.1-0.4,4,0.9L280.7,319.7z"/>
			<path class="st7" d="M280.7,319.7l-43.9-70.3c-0.8-1.4-2.6-1.7-4-0.9l-41.7,26.1c-1.1,0.7-1.6,2-1.2,3.2l33.9-21.2
				c1.4-0.8,3.1-0.4,4,0.9l43.9,70.3c0.1,0.2,0.2,0.5,0.3,0.7l7.8-4.9C281.2,322.8,281.6,321,280.7,319.7z"/>
			<path class="st6" d="M202.6,276.3c-0.9-1.4-0.4-3.1,0.9-4l34.2-21.4l-1-1.6c-0.8-1.4-2.6-1.7-4-0.9l-41.7,26.1
				c-1.4,0.9-1.7,2.6-0.9,4l43.9,70.3c0.8,1.4,2.6,1.7,4,0.9l7.5-4.7L202.6,276.3z"/>
			<path class="st6" d="M262.9,217.8c2.6,2.7,2.5,7-0.2,9.5l-62.1,59c-2.7,2.6-7,2.5-9.5-0.2l-28.7-30.2c-2.6-2.7-2.5-7,0.2-9.5
				l62.1-59c2.7-2.6,7-2.5,9.5,0.2L262.9,217.8z"/>
			<path class="st6" d="M177.1,259.1c-7,2.6-14.1,5.2-21.1,7.8c-21.8-18.8-32.4-47.6-28.1-76.1c7-2.6,14.1-5.2,21.1-7.8
				C158.3,208.4,167.7,233.8,177.1,259.1z"/>
			<path class="st6" d="M174.3,266.2c-3.3,1.2-6.6,2.5-9.9,3.7c-16.1-24.7-28.1-57.4-32-86.7c3.3-1.2,6.6-2.5,9.9-3.7
				C152.9,208.4,163.6,237.3,174.3,266.2z"/>
			<g>
				<path class="st6" d="M263.6,233.1c-3.3,1.2-89.6,33.1-92.9,34.4c-16.1-24.7-28.1-57.4-32-86.6c3.3-1.2,89.6-33.1,92.9-34.4
					C242.2,175.4,252.9,204.3,263.6,233.1z"/>
				<path class="st3" d="M230.9,146.8c-0.2,0.1-0.6,0.2-1,0.3c-0.9,0.3-2.1,0.8-3.7,1.4c-0.5,0.2-1.1,0.4-1.7,0.6
					c-1.1,0.4-2.2,0.8-3.4,1.3c-0.6,0.2-1.3,0.5-1.9,0.7c-1.5,0.5-2.9,1.1-4.5,1.6c-2.9,1.1-6,2.2-9.2,3.4c-2.1,0.8-4.4,1.6-6.6,2.5
					c-9.8,3.6-20.5,7.6-30.2,11.1c-3.5,1.3-6.9,2.6-10,3.7c-1.6,0.6-3.1,1.1-4.5,1.6c-8.6,3.2-14.6,5.4-15.5,5.7
					c2.9,22,10.5,45.9,20.8,66.9l96.3-35.6c-8.1-21.9-16.2-43.8-24.3-65.7C231.4,146.6,231.2,146.7,230.9,146.8z"/>
			</g>
			<path class="st3" d="M258.5,271.5l-16.9-18l-5.6,3.8c-1.6,1.1-1.9,3.1-0.9,4.7l14.7,21.7l8.6-8.1
				C259.5,274.5,259.6,272.7,258.5,271.5z"/>
			<path class="st3" d="M241.6,253.6l-1.8,1.2c-0.5,1.1-0.5,2.3,0.2,3.3l14.4,21.2l4-3.8c1.2-1.1,1.2-2.9,0.1-4.1L241.6,253.6z"/>
			<path class="st6" d="M379.7,141c-12.1-32.8-26.6-63.1-42.3-89.9c-18.3,35.4-61.9,72.4-120,99.9l0,0.2c-0.8,2.3,2.5,22.6,11,45.7
				c8.6,23.2,19.3,40.7,21.4,41.9l0,0.1c0.1,0,0.1,0,0.2,0l0,0l0,0c61.8-16.9,118.9-17.1,155.8-2.1
				C400.6,206.2,391.9,173.8,379.7,141z"/>
			<path class="st7" d="M377.7,135.5c-2-5.4-4.1-10.7-6.3-15.9c-7-15.7-15.6-29.9-25.5-42.5c-22.5,25.5-68.8,55.8-127.7,82.5
				c1.5,8.5,4.7,22.2,10.3,37.3c2.5,6.6,5.1,12.8,7.7,18.3c62.8-20,118.5-28.7,152.7-24.6C387.8,172.6,384.2,154,377.7,135.5z"/>
			<path class="st3" d="M339.7,154.7c19.2,52.1,49.7,88.8,68.1,82c18.4-6.8,17.6-54.5-1.6-106.6c-19.2-52.1-49.7-88.8-68.1-82
				S320.4,102.7,339.7,154.7z"/>
			<path class="st8" d="M348.3,151.5c19.3,52.1,48.2,89.4,64.7,83.3c16.5-6.1,14.2-53.2-5-105.3c-19.2-52.1-48.2-89.4-64.7-83.3
				C326.8,52.3,329.1,99.5,348.3,151.5z"/>
			<path class="st6" d="M349.2,151.2c18.7,50.6,46.8,86.8,62.8,80.9c16-5.9,13.8-51.7-4.9-102.3c-18.7-50.5-46.8-86.8-62.8-80.9
				S330.5,100.6,349.2,151.2z"/>
		</g>
		<g>
			<path class="st4" d="M137.2,600.6c0,0-1.9-0.7-7.1-1.4c-3.1-0.4-5.3-0.2-6.4-1.3c-1.9-1.7-1.8-8.3-2.2-8.2
				c-4.2,1.1-4.4,14.5-2.4,14.4c2.8,0,16.4-1.4,17.6-1.5C137.8,602.5,137.5,600.3,137.2,600.6z"/>
			<path class="st5" d="M116.9,488.2c-1.4,1.7-6.7,6.5-7.8,12c-2.1,10.7-2.6,16.2-1.2,27.2c2.3,17.3,6.6,45,8.6,56.6
				c1.8,10.5,0.5,23.6,7.9,20.2c-4.8-13.9-3.1-36.6-2.5-48.8C125.7,472.6,119.4,485.2,116.9,488.2z"/>
			<path class="st3" d="M134.2,599.9c1,3.3-9.4,2.5-12,1.8c-2.6-0.7-4.2-0.9-4.2-0.9c-0.1,0-0.2,0-0.3,0c0,0.1,0,0.1,0,0.2
				c0.1,1.8-0.6,4.3,2.4,4.1l18.4-1.1C153.3,603.3,134.2,599.8,134.2,599.9z"/>
			<path class="st5" d="M114.7,376.4c-3.5-0.9-3.6,2.1-6.1,9.8c-5,15-7.8,37.3-6.1,61c2,27.8,6.3,55.7,12,71
				c4.7-11,8.5-21,11.1-45.3C131.5,419.1,125.5,379.2,114.7,376.4z"/>
			<path class="st5" d="M115.9,380.3c-3.2-0.7-3.2,1.9-5.3,8.4c-4.1,12.7-6.1,31.4-3.9,51.3c2.5,23.2,7.6,48.9,13.8,49.2
				c2.4,0.1,3.4-17.3,4.3-31.8C127.6,412,125.8,382.4,115.9,380.3z"/>
			<path class="st5" d="M87.8,606.1c0,0-2-0.6-6.6-1.6c-3.2-0.7-4.8-1.2-5.6-2.5c-1.3-2.1-0.7-8.3-1.6-8.3c-4.2,0-5.4,11-4.4,12.8
				c1.3,2.3,15,3.3,17.1,2.2C87.6,608.2,88.1,606,87.8,606.1z"/>
			<path class="st5" d="M91.2,495.6c-1.9-0.9,0-8.9-3.7-3.6c-6,8.6-11.1,28.2-12,38.9c-1.4,16.8-3.9,43.5-4.5,54.9
				c-0.5,10.2-4.4,22.4,3.2,20.6c-0.4-14.4,4.2-35.3,7.7-46.5C94.2,521.8,97.2,498.3,91.2,495.6z"/>
			<path class="st3" d="M87.7,606.1c-4.1,4.3-12,1.2-14.5,0.1c-4.4-1.7-4.1-3.1-4.1-3.1c-0.4,1.7-1.1,4.2,1.5,5.5
				c2.3,1.2,4.8,1.1,7.7,1.5c2.5,0.3,17.3,1.7,17.8-0.1C96.7,607.4,87.8,606.1,87.7,606.1z"/>
			<path class="st5" d="M98.7,384.8c-3.4-1-3.5,1.9-6.2,9.3c-5.2,14.3-8.6,35.8-7.7,58.7c1.1,26.9,4.9,50.4,10,65.3
				c4.9-10.5,8.3-16.5,11.5-39.8C113.6,426.5,109.1,387.9,98.7,384.8z"/>
			<path class="st5" d="M95.1,484c-1.8-1-5.2,3.5-7.7,7.9c-4.9,8.7-6.8,19.6-9.4,34.5c-3,17.6-4,33.3-3.1,43.5
				c3.9-7.6,7.1-17.5,11.5-27.7C113.5,480.7,100.6,487.2,95.1,484z"/>
			<path class="st5" d="M99.6,381.5c-3.3-0.8-3.4,1.9-5.9,8.6c-4.7,13.2-7.5,32.8-5.8,53.7c1.5,19.5,4.7,37.1,8.7,50.2
				c1,3.3,4.7,3.4,5.4,0.4c2-9.5,3.3-20.3,4.4-31.8C110.8,415.2,109.8,384.1,99.6,381.5z"/>
			<path class="st2" d="M88.8,249c-1.5-0.3-2.9-0.5-4.4-0.6c-0.1,1.5-0.2,2.9-0.6,4.4c-2.8,11.6-13.7,19.1-25.4,18.4
				c-0.6,11.4,7.2,22.1,19,25c13.3,3.2,26.6-4.7,29.7-17.8C110.3,265.4,102.1,252.2,88.8,249z"/>
			<path class="st2" d="M120.1,248.6c0.9,10.5-6.3,19.7-16.1,20.5c-9.8,0.8-18.5-7-19.4-17.4c-0.9-10.5,6.3-19.7,16.1-20.5
				C110.5,230.4,119.2,238.2,120.1,248.6z"/>
			<path class="st5" d="M82.2,282.8c0,0,9.8,15.6,19.9,17.1c10.1,1.4,14.6-1.1,15.6-5.2s0.8-11.9-1.6-13.7s-4.8-3.6-7.1-7.1
				c-1.9-2.9-1.8-8.4-1.1-12.7c0.8-4.3,4.1-4.9,0.6-6.6c-3.5-1.7-2.3-3.8-5.7-2.9s-5.4-0.2-5.1,3c0.5,5.9,1.7,14.2-1.3,18.3
				C93.1,277.6,89.6,279.2,82.2,282.8z"/>
			<path class="st5" d="M108,238.3c-0.3,0-0.6-0.1-0.9-0.1c-0.3,3.5-2.7,7.9-6.7,11.5c-1,0.9-2,1.6-3,2.3l0.3,3.3
				c0.4,4.8,4.8,8.4,9.9,8c5.1-0.4,8.8-4.7,8.4-9.5l-0.6-7.4C112.7,244.9,110,242.1,108,238.3z"/>
			<path class="st2" d="M131.5,472.6c0.3-2.2,0.4-4.3,0.4-6.3c-0.9-21.4,2.7-42.6-16.4-114.7c-1-3.9-3.2-9.8-4.5-13
				c-8.6-5.4-15.8,0-24.8-4c-3.1,3.8-10,11.3-13.1,18.8c-18.5,44.8-3.4,106-4,129.3C89.4,485.8,111,483.4,131.5,472.6z"/>
			<path class="st9" d="M111.5,338.9c0,0.3-1.6,0.7-3.7,0.7l-23,0.5c-2,0-3.7-0.2-3.7-0.5l0-1.3c0-0.3,1.6-0.7,3.7-0.7l23-0.5
				c2,0,3.7,0.2,3.7,0.5L111.5,338.9z"/>
			<path class="st10" d="M120,302.3c-1.9-6.8-3.9-13.7-5.8-20.5c-0.4-1.5-1-2.9-1.6-4c0.2,16.5-21.9,9.5-21.4,2.6
				c-3.3,3.7-12.9,7.8-12.9,8.5c0.3,7.5,1.4,15,1.8,22.5c0.1,3.2,2.1,6,4.4,7.9c-0.1,0.6-0.2,1.2-0.1,1.8l-0.1,3.7
				c0.1,3-5.1,13.8-3,13.8l30.3-1c2.1,0,4.3-6.4,4.1-9.4l1.8-15c0-0.2,0-0.5-0.1-0.8C119.4,309.7,121,305.7,120,302.3z"/>
			<path class="st3" d="M93.3,276.1c0,0-12.1-0.1-14.7,5.6c-3.5,7.6-1.8,15.2-0.6,20.3c1.4,5.9,1.7,13.7,3.7,21.3
				c2.4,9.3-4.7,18.2-3.2,16.5c0.3-0.3,11.8-1.3,17.6-4.5c5.9-3.2,1.4-13.5,0.7-16.9c-1.7-7.7,3.8-23.4,2.2-29.5
				C97.3,282.5,93.3,276.1,93.3,276.1z"/>
			<path class="st3" d="M121.4,288.7c-0.5-2.3-2-4.8-4.1-7.8c-1.7-2.5-7.9-5.2-6.9-5c0.1,0,6.8,2.9,6.3,25c-0.1,3.8-2.7,12.7-4,18.7
				c-1.3,5.9-2.7,16.8-2.7,16.8s6.3,1.4,6.5,2.3c0.3,0.9-1.5-7.9,0.6-16.2C122.1,302.5,123.7,299.1,121.4,288.7z"/>
			<g>
				<path class="st3" d="M79.6,290.2c-0.1-2.5,1.3-9.1,6.3-8.3c21.9,3.6,63,16.5,63,16.5s2.8,4.6-1.4,6.2
					c-5.2,2.1-20.9,4.8-56.2-1.7C81.1,300.9,79.8,294.4,79.6,290.2z"/>
				<g>
					<path class="st5" d="M168.2,296.5c0,0,10.3-1.4,11.2-1.8c0.9-0.4,1.1-1.1,2.6-2.8c1.5-1.6,1.9-1.8,3.1-3.1
						c1.3-1.2,1.5-1.3,1.5-1.3s0.6,0.8,0.2,1.4c-0.3,0.5-1.4,1.6-1.7,2c-0.3,0.4,0.9-0.8,3.1-2.2c2.2-1.4,4.6-2.4,5.6-2.8
						c0.7-0.2,0.8-0.2,0.8-0.2c0.2,0.2,0.3,0.5,0.1,0.7c-0.2,0.2-1,0.7-1,0.7c0.3,0,1.8-0.5,2.1-0.6c0.2-0.1,0.6-0.2,0.9-0.3
						c0.5-0.1,0.6,0.4,0.1,1.1c0,0,0.1,0.4,0,0.7c-0.1,0.1-0.1,0.2-0.2,0.3c-0.1,0.1-0.2,0.2-0.3,0.3c-0.4,0.4-0.8,0.8-1.2,1.2
						c-0.2,0.1-1.8,1.2-1.7,1.3c0,0,1.5-0.6,1.5-0.5c0.1,0.2,0,0.7-0.2,0.8c-0.4,0.2-1.1,0.6-2.9,1.6c-2,1.1-2.5,1.2-4.6,3.1
						c-1.8,1.7-2.8,1.8-4.7,1.9c-6.5,0.2-17,4.7-18.9,4.8C161.6,303.1,168.2,296.5,168.2,296.5z"/>
				</g>
				<path class="st3" d="M169.3,304c1.5-4,0-6.1-0.9-9.9c-9.4-0.1-23.6,0.3-33.4,1c-3.6,0.2-10.1,6.9-9.4,9.3
					c1.1,4,17.9,2.9,25.3,2.3C157.6,306.2,164.7,306.3,169.3,304z"/>
			</g>
		</g>
	</g>
	<g>
		<g>
			<g>
				<rect x="740.3" y="282.8" class="st10" width="285.1" height="295.5"/>
				<rect x="740.3" y="282.8" class="st3" width="285.1" height="23"/>
				<line class="st11" x1="747.8" y1="294" x2="754.4" y2="294"/>
				<line class="st11" x1="760.8" y1="294" x2="767.5" y2="294"/>
				<line class="st11" x1="773.8" y1="294" x2="780.5" y2="294"/>
			</g>
		</g>
		<g>
			<rect x="759" y="322.6" class="st12" width="30.3" height="30.3"/>
			<line class="st13" x1="801.5" y1="333.6" x2="911.4" y2="333.6"/>
			<line class="st13" x1="801.5" y1="344.8" x2="881.2" y2="344.8"/>
			<line class="st14" x1="772" y1="471.3" x2="796.5" y2="471.3"/>
			<line class="st14" x1="758.8" y1="471.3" x2="765.9" y2="471.3"/>
			<line class="st14" x1="820.1" y1="471.3" x2="844.5" y2="471.3"/>
			<line class="st14" x1="806.9" y1="471.3" x2="813.9" y2="471.3"/>
			<line class="st14" x1="869.5" y1="471.3" x2="893.9" y2="471.3"/>
			<line class="st14" x1="856.3" y1="471.3" x2="863.3" y2="471.3"/>
			<rect x="759" y="360.3" class="st6" width="249.5" height="100.7"/>
		</g>
		<g>
			<rect x="759" y="489.8" class="st15" width="30.3" height="30.3"/>
			<line class="st13" x1="801.5" y1="500.7" x2="911.4" y2="500.7"/>
			<line class="st14" x1="759" y1="530.2" x2="1005.1" y2="530.2"/>
			<line class="st14" x1="759" y1="541" x2="1005.1" y2="541"/>
			<line class="st14" x1="759" y1="551.8" x2="992.1" y2="551.8"/>
			<line class="st13" x1="801.5" y1="512" x2="881.2" y2="512"/>
		</g>
	</g>
	<g>
		<rect x="965.4" y="378.1" class="st12" width="83.4" height="40.2"/>
		<g>
			<path class="st16" d="M1008.5,395.4c1.7,0,3,0.5,4,1.4c1,0.9,1.5,2.2,1.5,3.9c0,1.9-0.6,3.4-1.8,4.5c-1.2,1.1-2.9,1.6-5.1,1.6
				c-1.9,0-3.5-0.3-4.7-0.9v-3.1c0.6,0.3,1.4,0.6,2.2,0.8c0.8,0.2,1.6,0.3,2.4,0.3c2.2,0,3.3-0.9,3.3-2.8c0-1.7-1.2-2.6-3.5-2.6
				c-0.4,0-0.9,0-1.4,0.1c-0.5,0.1-0.9,0.2-1.2,0.3l-1.5-0.8l0.6-8.8h9.4v3.1h-6.2l-0.3,3.4l0.4-0.1
				C1007.2,395.5,1007.8,395.4,1008.5,395.4z"/>
			<path class="st16" d="M1016,399.1c0-3.4,0.7-6,2.2-7.7c1.5-1.7,3.6-2.5,6.5-2.5c1,0,1.7,0,2.3,0.2v2.9c-0.7-0.1-1.4-0.2-2.1-0.2
				c-1.3,0-2.3,0.2-3.1,0.6c-0.8,0.4-1.4,0.9-1.8,1.7c-0.4,0.7-0.6,1.8-0.7,3.1h0.1c0.8-1.4,2-2,3.8-2c1.6,0,2.8,0.5,3.6,1.5
				c0.9,1,1.3,2.3,1.3,4c0,1.8-0.5,3.3-1.6,4.4c-1.1,1.1-2.5,1.6-4.4,1.6c-1.3,0-2.4-0.3-3.3-0.9c-1-0.6-1.7-1.5-2.2-2.6
				C1016.2,402.1,1016,400.7,1016,399.1z M1022.3,403.8c0.8,0,1.4-0.2,1.8-0.8c0.4-0.5,0.6-1.3,0.6-2.2c0-0.8-0.2-1.5-0.6-2
				c-0.4-0.5-1-0.7-1.8-0.7c-0.7,0-1.4,0.2-1.9,0.7c-0.5,0.5-0.8,1.1-0.8,1.7c0,0.9,0.2,1.7,0.7,2.4
				C1020.8,403.5,1021.5,403.8,1022.3,403.8z"/>
		</g>
		<path class="st16" d="M990.8,392.6c-1.6-1.6-4.2-1.6-5.8,0l-1,1l-1-1c-1.6-1.6-4.2-1.6-5.8,0c-1.6,1.6-1.6,4.2,0,5.8l1,1l0,0
			l5.8,5.8l5.8-5.8l0,0l1-1C992.4,396.8,992.4,394.2,990.8,392.6z"/>
	</g>
	<g>
		<polygon class="st17" points="779.7,574.6 690,574.6 699.2,540.2 788.9,540.2 		"/>
		<g>
			<path class="st16" d="M731.9,564.5h-3.1l2.3-8.6l0.4-1.4l0.5-1.6c-0.7,0.5-1.1,0.9-1.4,1l-2.1,1.4l-1-1.9l5.8-3.8h2.6
				L731.9,564.5z"/>
			<path class="st16" d="M746.4,564.5H736l0.6-2.2l4.7-3.8c1.4-1.1,2.3-1.9,2.8-2.3c0.4-0.4,0.8-0.8,1.1-1.2s0.4-0.8,0.5-1.2
				c0.1-0.6,0.1-1-0.1-1.3c-0.2-0.3-0.6-0.4-1.2-0.4c-0.6,0-1.2,0.1-1.8,0.4c-0.6,0.2-1.3,0.6-2,1.1l-1.2-2c0.9-0.6,1.6-1.1,2.2-1.3
				c0.5-0.2,1.1-0.4,1.7-0.6c0.6-0.1,1.3-0.2,1.9-0.2c0.9,0,1.7,0.1,2.3,0.5s1.1,0.8,1.3,1.4c0.2,0.6,0.2,1.3,0,2.1
				c-0.2,0.7-0.5,1.3-0.9,1.9c-0.4,0.6-0.9,1.2-1.6,1.8c-0.7,0.6-1.8,1.5-3.4,2.7l-2.4,1.8l0,0.1h6.4L746.4,564.5z"/>
			<path class="st16" d="M755.8,555c1.5,0,2.5,0.4,3.1,1.2c0.6,0.8,0.8,1.9,0.4,3.3c-0.4,1.6-1.3,2.9-2.6,3.8
				c-1.3,0.9-2.9,1.4-4.7,1.4c-1.6,0-2.9-0.2-3.8-0.8l0.7-2.7c0.4,0.3,1,0.5,1.7,0.7c0.7,0.2,1.3,0.3,1.9,0.3c1.9,0,3.1-0.8,3.5-2.4
				c0.4-1.5-0.4-2.2-2.4-2.2c-0.3,0-0.8,0-1.2,0.1c-0.4,0-0.8,0.1-1.1,0.2l-1.1-0.7l2.6-7.6h8l-0.7,2.7h-5.3l-1.1,2.9l0.4,0
				C754.7,555.1,755.2,555,755.8,555z"/>
			<path class="st16" d="M772.7,564.5h-3.6l-2.2-6.3l-1.6,1l-1.4,5.3h-3.1l4-14.8h3.1l-1.8,6.8l1.7-1.7l5.4-5h3.5l-6.9,6.5
				L772.7,564.5z"/>
		</g>
		<g>
			<path class="st16" d="M719.2,554.1h-5.8c0.4-0.6,1-1.5,1.2-1.8c0.2-0.4,0.4-1.4,0.4-1.4c0.2-0.7-0.2-1.4-1-1.4h-0.7l-0.6,2.1
				c0,0-3.1,2.8-3.4,3.9l-1.7,6.6c-0.2,0.7,0.2,1.4,1,1.4h4.7c0.7,0,1.7-0.6,2.2-1.4l4.2-6.6C720.2,554.7,720,554.1,719.2,554.1z"/>
			<polygon class="st16" points="708.3,562.5 706.5,562.5 708.5,555.1 710.3,555.1 			"/>
			<polygon class="st16" points="701,563.4 704.2,563.4 706.7,554.1 703.5,554.1 			"/>
		</g>
	</g>
	<g>
		<path class="st6" d="M712.9,415.4c0,3.2-2.6,5.9-5.9,5.9h-3.9V435l-13.7-13.7h-45c-3.2,0-5.9-2.6-5.9-5.9v-48.9
			c0-3.2,2.6-5.9,5.9-5.9H707c3.2,0,5.9,2.6,5.9,5.9L712.9,415.4L712.9,415.4z"/>
		<rect x="650.3" y="378.2" class="st16" width="50.9" height="3.9"/>
		<rect x="650.3" y="388" class="st16" width="50.9" height="3.9"/>
		<rect x="650.3" y="397.8" class="st16" width="50.9" height="3.9"/>
	</g>
	<g>
		<rect x="418.8" y="481.5" class="st6" width="192.1" height="102"/>
		<rect x="427.3" y="490" class="st16" width="175.1" height="85"/>
		<g>
			<rect x="418.8" y="469.5" class="st3" width="192.1" height="12.4"/>
			<line class="st18" x1="422.9" y1="475.6" x2="426.5" y2="475.6"/>
			<line class="st18" x1="429.8" y1="475.6" x2="433.5" y2="475.6"/>
			<line class="st18" x1="436.9" y1="475.6" x2="440.5" y2="475.6"/>
		</g>
		<path class="st3" d="M514.9,517c-7.7,0-14,6.3-14,14s6.3,14,14,14s14-6.3,14-14C528.8,523.2,522.6,517,514.9,517z M516.4,533.6
			l-4.6,2.6v-5.3v-5.3l4.6,2.6l4.6,2.6L516.4,533.6z"/>
	</g>
	<g>
		<g>
			
				<rect x="463.1" y="336.2" transform="matrix(0.7071 -0.7071 0.7071 0.7071 -107.1733 438.1944)" class="st3" width="24.5" height="24.5"/>
		</g>
		<g>
			<path class="st3" d="M613.5,342.2c0,3.7-3,6.7-6.7,6.7H427.4c-3.7,0-6.7-3-6.7-6.7v-50c0-3.7,3-6.7,6.7-6.7h179.5
				c3.7,0,6.7,3,6.7,6.7L613.5,342.2L613.5,342.2z"/>
		</g>
		<g>
			<path class="st16" d="M467.6,330.1c0,0,0-1.1,0-1.6c0-5.5-4.5-10-10-10c-1.8,0-8.2,0-10,0c-5.5,0-10,4.5-10,10c0,0.6,0,1.6,0,1.6
				H467.6z"/>
			<path class="st16" d="M459.3,306.8c0,3.7-3,6.7-6.7,6.7s-6.7-3-6.7-6.7s3-6.7,6.7-6.7C456.3,300.1,459.3,303.1,459.3,306.8z"/>
		</g>
		<path class="st12" d="M475.3,329.4c0,4.9-4,8.9-8.9,8.9c-4.9,0-8.9-4-8.9-8.9c0-4.9,4-8.9,8.9-8.9
			C471.4,320.5,475.3,324.5,475.3,329.4z"/>
		<path class="st12" d="M597.8,280.8c-1.9-1.9-5-1.9-6.9,0l-1.2,1.2l-1.2-1.2c-1.9-1.9-5-1.9-6.9,0c-1.9,1.9-1.9,5,0,6.9l1.2,1.2
			l0,0l6.9,6.9l6.9-6.9l0,0l1.2-1.2C599.7,285.7,599.7,282.7,597.8,280.8z"/>
		<g>
			<g>
				<path class="st16" d="M586.1,307.4h-12.9c0.6-1.5,1.4-3.2,1.6-4.2c0.2-0.9,0-3.1,0-3.1c0-1.7-1.4-3.1-3.1-3.1h-1.5v4.7
					c0,0-5.3,6.2-5.3,8.7v14.8c0,1.7,1.4,3.1,3.1,3.1h10.6c1.7,0,3.5-1.4,4.1-3.1l5.4-14.8C588.7,308.8,587.8,307.4,586.1,307.4z"/>
				<rect x="562.7" y="309.8" class="st16" width="4" height="16.6"/>
				<rect x="552.5" y="307.4" class="st16" width="7.2" height="20.9"/>
			</g>
		</g>
		<path class="st16" d="M526.9,298h-30.5c-1.6,0-2.9,1.3-2.9,2.9v23.8c0,1.6,1.3,2.9,2.9,2.9h1.9v6.6l6.7-6.6h21.9
			c1.6,0,2.9-1.3,2.9-2.9v-23.8C529.8,299.2,528.5,298,526.9,298z M524.1,317.9h-24.8V316h24.8V317.9z M524.1,313.2h-24.8v-1.9h24.8
			V313.2z M524.1,308.4h-24.8v-1.9h24.8V308.4z"/>
	</g>
	<g>
		<path class="st2" d="M524.2,477c0,0,46,0.1,63.8,0.4c12.3,0.2,13.4-17.3,8.6-20c-14.7-8-60.6-12.1-60.6-12.1L504.8,474
			C504.7,473.9,506.5,473.9,524.2,477z"/>
		<path class="st3" d="M567.6,383.1c0,0,11.8-3.3,17,12.1c7.9,23.7,7.2,45.4,6.1,50c-0.5,2.1-2,9.5-15.3,9.8
			c-5.3,0.1-3.2-11.4-3.2-11.4s-3.4-9.7-7.1-26.3C561.5,401,567.6,383.1,567.6,383.1z"/>
		<path class="st3" d="M576.9,384.4l-30.3-9.8l-23-1.6l-25.1,7.6c0,0-8.2,5.7-0.6,23.9c7.7,18.2,4.7,46.8,4.7,46.8l64.9,2.1
			c0,0,1.2-26.4,5.5-52.8C574,394.8,574.1,387.8,576.9,384.4z"/>
		<path class="st19" d="M532.5,452.2h3.3c3.4-25.5,3.3-51.8-0.5-77.2c-1,0.6-2,1.2-3,1.8C533.1,402.8,531.6,428.8,532.5,452.2z"/>
		<g>
			<path class="st5" d="M545.4,381.8c-0.4,3.5-3.3,6.5-6.3,6.7c-2.9,0-5.7,0-8.6,0c-3-0.1-5.9-3.2-6.3-6.7
				c-0.7-5.8-1.4-11.6-2.1-17.3c-0.5-3.5,1.6-10.4,6.2-12.5c4.2-1.8,9-1.8,13.1,0c4.6,2,6.6,9,6.2,12.5
				C546.8,370.3,546,376,545.4,381.8z"/>
		</g>
		<polygon class="st3" points="534.4,388.9 528.9,397.9 518.9,385.4 520.5,378.8 523.8,376.2 523.8,381.1 		"/>
		<polygon class="st3" points="535,388.9 540.5,397.9 549.8,386.2 548.3,379.1 545.9,376.1 545,381.9 		"/>
		<g>
			<path class="st20" d="M533.4,341c-2.4,0-4.5,1.2-5.7,3.1h-2.4c-3,0-5.3,2.4-5.3,5.3v13.1h3.7v-5.3c0-2.1,1.7-3.7,3.7-3.7h2.2
				h-3.4h2.3c3.8,0,6.9-3.1,6.9-6.9V341H533.4z"/>
			<path class="st5" d="M526.8,367.4c0,1.8-1.5,3.2-3.2,3.2h-0.3c-1.8,0-3.2-1.5-3.2-3.2v-4c0-1.8,1.5-3.2,3.2-3.2h0.3
				c1.3,0,2.5,0.8,3,1.9"/>
			<path class="st21" d="M530.5,346.2v-5.2h2.1h5.7h3.4c3.8,0,6.9,3.1,6.9,6.9v5.2h-2.2h-5.7h-3.4
				C533.6,353.1,530.5,350,530.5,346.2z"/>
			<path class="st5" d="M547.7,372.4c0,2.7-2.1,7.4-5.6,8.8c-4.7,1.9-10.3,1.9-14.9,0c-3.4-1.5-5.5-6.1-5.5-8.8c0-7.8,0-15.5,0-23.2
				c0-2.8,2.7-5,6.1-5.1c4.6,0,9.3,0,13.9,0c3.4,0,6.1,2.4,6.1,5.1C547.7,356.9,547.7,364.6,547.7,372.4z"/>
			<path class="st20" d="M537.3,341c2.4,0,4.5,1.2,5.7,3.1h2.4c3,0,5.3,2.4,5.3,5.3v13.1H547v-5.3c0-2.1-1.7-3.7-3.7-3.7h0h1.3h-6.1
				c-3.8,0-6.9-3.1-6.9-6.9V341H537.3z"/>
			<path class="st5" d="M544,363.5c0-1.8,1.5-3.2,3.2-3.2h0.3c1.8,0,3.2,1.5,3.2,3.2v4c0,1.8-1.5,3.2-3.2,3.2h-0.3
				c-1.3,0-2.5-0.8-3-1.9"/>
			<path class="st20" d="M531.6,347.5c0.1-0.4,0.1-0.9,0.1-1.4v-5.2h-2.1h-2.7c-3.8,0-6.9,3.1-6.9,6.9v5.2h1.4h0.7h2.7
				c0.5,0,1,0,1.4-0.1C526.8,350.2,528.9,348.1,531.6,347.5z"/>
		</g>
		<path class="st3" d="M471.4,564.9c-0.7,0.9-0.2,3.1-0.2,3.1s12.4,1.4,16.4,0.4c1-0.2,2.8-1.1,4.4-2.1c0.3-0.1,0.8-1.1,1-1.3
			c0.5-0.3,0.8,0.2,1.2,0c1.1-0.7,1.9-1.3,1.9-1.3c1.1-5.7-0.3-7.9-0.3-7.9s-10.6-3.5-12.5-1.1C478.6,560.5,472.9,563,471.4,564.9z"
			/>
		<path class="st3" d="M587.1,558.7l0.9,9.4l9.4,0.9c0,0,0.6-1.3,1.5-1.2c0.7,0,1.4,1.5,2.3,1.6c2,0.2,4.2,0.4,5,0.5
			c1.7,0.2,18.8,1.8,18.8,1.8s0.6-1.9,0.1-2.6c-0.2-0.4-1.7-1.1-2.8-1.5c-4.7-1.8-18.1-7.4-20.1-12.3
			C599.8,549.4,587.1,558.7,587.1,558.7z"/>
		<g>
			<path class="st5" d="M572.9,440.4l-31.6,12.9c0,0,22.4,3.2,36.5,0.3C587.3,451.7,573.4,439.9,572.9,440.4z"/>
		</g>
		<path class="st2" d="M501.1,460c0,0-3.1,28.9-2.6,44.2c0.3,11.5,0.4,33.6-2.4,52.4c-0.1,1.2-14.9,0.3-14.9,0.3s-5.3-71.7-6.9-83.4
			C472.8,461.7,477.3,453.2,501.1,460z"/>
		<path class="st2" d="M593.7,467c0,0-4.7,7.5-17.8,9.3c-4.7,0.6,7.6,83.9,7.6,83.9l19.2-6.2l-3.7-92.1L593.7,467z"/>
		<path class="st2" d="M540.7,476.3c0,0-25.1,3.6-41.9,5.3c-6.2,0.6-11.5-16.6-12.2-17.3c-4.5-4.7-8.9-4.1-8.8-4.3
			c3.6-3.9,22.5-7.6,42.2-12.2c19.7-4.6,22.7-1.7,22.7-1.7L540.7,476.3z"/>
		<path class="st2" d="M519.9,447.8c-19.7,4.6-38.5,8.3-42.2,12.2c-0.1,0.1,4.3-0.4,8.8,4.3c0.2,0.2,1.3,5.7,2.1,7.7
			c-3.2-5.8,43-22.1,53-26.3C539.8,445.1,534.4,444.4,519.9,447.8z"/>
		<polygon class="st2" points="498.3,476.1 496.4,532.3 494.4,545.4 494.2,532.3 494.7,524.2 490.2,511.6 487.8,482.3 491.2,483.5 
			490.8,470.7 		"/>
		<path class="st2" d="M593,460l4.7,1.3l1.7,67.6l-9.8,24.2l4.7-16.5l-1.9-34c0,0-6.8,16.5-6.8,15.6c0-0.9,5.8-35.7,5.8-35.7
			s-6.4,5.3-5.8,5.1C586.2,487.4,589.4,463.2,593,460z"/>
		<path class="st3" d="M512.4,381c0,0-10.1-7.9-20,6.8c-14.5,21.5-20.8,44.4-23.1,51.1c-1.7,5.1-0.8,19.5,5.1,25.4
			c1.4,1.4,10,0.3,10,0.3l5.6-3.9l-2.4-4.5l-0.1-3.6c0,0,7.2-17.3,16-33.7C512.4,402.5,512.4,381,512.4,381z"/>
		<g>
			<path class="st5" d="M487.7,446.9l32.8,1.7c0,0-31.6,14.5-32.7,12C482,446.4,487.7,446.9,487.7,446.9z"/>
			<g>
				<path class="st5" d="M505.8,445.8c1.9-0.9,1.7-0.9,1.7-0.9s1.7,2.1,4.3,2.5c1.3,0.2,5.3,0.2,5.3,0.2l6.1,0.1l2.8-0.1
					c0,0,1.6-0.2,2,0c1.2,0.8,0.2,1.4,0.2,1.4l-10.8,1.6l10.4,1.3c0,0,1.3,0.4,1.4,1.1c0,0.7-0.4,0.6-0.4,0.6l-12.1,1.3l5.3,1.3
					c0,0,1.3,0.4,1.4,1.1c0.1,0.7,0.1,1,0.1,1l-11.1-1.1C512.4,457.1,503.8,446.8,505.8,445.8z"/>
				<path class="st5" d="M517.8,452.5l7.3,1.3c0,0,1.6,0.1,2.4,0.6c0.8,0.6,0.3,1.4,0.3,1.4l-11.1-0.9L517.8,452.5z"/>
			</g>
		</g>
		<g>
			<path class="st20" d="M563.4,458.2C563.4,458.2,563.4,458.2,563.4,458.2v-2.1h-64.6v2.1v0l0.2,0.4c1.1,1.8,3.1,2.1,5.3,2.1h53.5
				c2.3,0,4.2-0.3,5.3-2.1L563.4,458.2z"/>
			<g>
				<rect x="509.7" y="456.6" class="st22" width="42.8" height="1.5"/>
			</g>
			<g>
				<path class="st7" d="M563.3,456.3l0.2-42.4c0-1.1-0.9-2-2-2H501c-1.1,0-2,0.9-2,2l-0.2,42.4H563.3z"/>
				<path class="st20" d="M535.1,434.1c0,2.2-1.8,3.9-3.9,3.9c-2.2,0-3.9-1.7-3.9-3.9s1.7-3.9,3.9-3.9
					C533.3,430.2,535.1,432,535.1,434.1z"/>
			</g>
		</g>
		<polygon class="st3" points="483.5,463.2 481.2,448.8 484.9,445 493.2,446.3 491.5,462.3 		"/>
		<polygon class="st3" points="584.1,452.9 584.9,447.6 574.4,438.2 568.8,440.7 576.2,454.9 		"/>
	</g>
	<g>
		<g>
			<path class="st3" d="M775.8,444.1c7.7,1.9,21.8,8.8,24.7,20.5c4.4,17.6-4.4,43.4,9.6,68.7c4.5,8-77.5,18.9-77.5,18.9l-15.8-88.9
				c0,0,19.8-19.3,23.8-20.6C748.9,440,760.5,440.3,775.8,444.1z"/>
			<g>
				<path class="st3" d="M716.6,463.4c-2.9,7.1-10,49.4-2,59.4c0.9,1.2-4.2,3-3.2,8.2c0.1,0.9,1.7,5.1,1.7,5.1l6.5,1.7l19.8-11.3
					l-3.8-4.6l-1.8,0c0,0-1.7-1.6-1.2-3.5c0.5-1.9-4.6-5.1-12.1-37.9C718.2,470.8,717.3,461.8,716.6,463.4z"/>
				<path class="st23" d="M724.3,520.7l5.9-1.3l2.4-0.4c0,1.6,1.3,2.8,1.3,2.8l-4.6,0.1l-5.3,1.2l-6.4,3.7L724.3,520.7z"/>
			</g>
			<path class="st24" d="M732.7,526.2c0,0-4.5,0-8.4,2.3c-3,1.8-5.6,5.7-3,7.8c2.7,2.1,6.8,4.1,6.8,4.1S738.5,540.7,732.7,526.2z"/>
			<path class="st7" d="M721.3,536.5l2.8-0.6c0,0,9.5-0.9,10.9-0.1c1.4,0.7,5.7,3.7,5.7,3.7l0.9,0.8c0,0-2.1,1.3-5-0.7
				c-2.9-2-3.1-0.5-3.1-0.5l0.5,2.5l0,3.2l0.4,1.4c0,0,0.4,0.7,0.1,1c-0.9,0.8-1.8,0.4-1.8,0.4l-2.9-5l-0.8,5.5c0,0-0.4,0.7-1.3,0.9
				c-0.9,0.2-0.9,0-0.9,0l-0.6-1.4c0,0.3-0.2,0.7-0.6,1c-0.7,0.6-1.7,0.5-1.7,0.5l0.3-5.8l-1.2,3c0,0-0.4,0.7-1.3,0.9
				c-1,0.2-1.2,0.3-1.2,0.3L721.3,536.5z"/>
			<g>
				<g>
					<path class="st5" d="M770.5,513.9c0,0-6.9,17.4-23.5,22.1c-2.9,0.8-4.7,3.9-3.2,4.9c1.8,1.3,4.2,1.6,8.3,1.6
						c8.7,0,20.4-2.7,28.6-10.6c12.1-11.7,15.8-17,14.6-22.9C794.2,503.1,770.5,513.9,770.5,513.9z"/>
					<path class="st3" d="M798.1,458.8c3.5,5.8,5.5,15,5.5,28.2c0,10.3-8.9,27-10.2,32.2c-0.2,0.9-0.8,4.6-0.8,4.6l-9.8,9.6
						l-19.7-13.3l6-9.2l1.8,0.2c0,0,1.1-5,0.8-7s5.4-28.4,8.3-45.3C781.7,448.9,794.6,453.1,798.1,458.8z"/>
					<path class="st3" d="M780.5,510.8l-5.7-1.8l-2.3-0.6c-0.1,1.6-1.6,2.7-1.6,2.7l4.5,0.5l5.2,1.6l6.1,4.2L780.5,510.8z"/>
				</g>
				<path class="st5" d="M748.3,536l-10-2.8c0,0-2.9,3.8-2.3,4.7c0.5,0.9,0,6.6,0,6.6l4.8,4.1l3.9-1.3c0,0,0.3-1.7-1.1-1.9
					c-1.4-0.2,0.9-1.2,1.6-1.6C746.1,543.5,751.8,540.5,748.3,536z"/>
			</g>
			<g>
				<path class="st7" d="M764.6,445.9c0.6,1.7-0.3,3.7-2.1,4.3l-10.9,3.8c-1.7,0.6-3.7-0.3-4.3-2.1l-6.9-19.6
					c-0.6-1.7,0.3-3.7,2.1-4.3l10.9-3.8c1.7-0.6,3.7,0.3,4.3,2.1L764.6,445.9z"/>
			</g>
			<g>
				<path class="st5" d="M738.9,456c0.6,2.1,2.8,3.3,4.8,2.8l17.2-4.7c2.1-0.6,3.3-2.8,2.8-4.8l-7-25.4c-0.6-2.1-2.8-3.3-4.8-2.8
					l-17.2,4.7c-2.1,0.6-3.3,2.8-2.8,4.8L738.9,456z"/>
				<path class="st21" d="M733.3,435.9c0,0-3-1.8-3.8-3.2c-0.4-0.7-0.5-3.8,1.1-5.4c1.6-1.6,3.7,0,3.7,0s-2.6,2.5-2.6,3.2
					C731.8,431.1,733.3,435.9,733.3,435.9z"/>
				<path class="st2" d="M761.5,434.7c0,0-0.1-10.5-1.4-13.2c-1.3-2.7-2.1-4.7-5.7-4c-5.4,1-5.1,2.1-8.1,1.2
					c-3-0.9-8.6-3.4-10.3-3.4c-2.8,0.1-6.6,2.1-5.5,7.1c0.9,3.7-1.2,5.2-1.1,5.3c0.3,0.4,1.4,0.5,3.3,0.9c5.4,1.1,8.4,0.8,11.8-1.2
					c3.4-1.9,9.6-5.9,11.1-3.4c1.6,2.5,3.5,10.8,4,11.4C760.3,435.9,761.1,435.4,761.5,434.7z"/>
				<path class="st5" d="M758.2,443.8c0.2,0.7,0.9,1.1,1.6,0.9l3.7-1c0.7-0.2,1.1-0.9,0.9-1.6l-1.8-6.8c-0.2-0.7-0.9-1.1-1.6-0.9
					l-3.7,1c-0.7,0.2-1.1,0.9-0.9,1.6L758.2,443.8z"/>
				<path class="st5" d="M736.2,449.9c0.2,0.7,0.9,1.1,1.6,0.9l3.7-1c0.7-0.2,1.1-0.9,0.9-1.6l-1.9-6.8c-0.2-0.7-0.9-1.1-1.6-0.9
					l-3.7,1c-0.7,0.2-1.1,0.9-0.9,1.6L736.2,449.9z"/>
				<path class="st2" d="M760.5,437.4c0,0,2.8,10,3.7,13.3c0.8,3,1.5,10-15.6,14.6c-10.1,2.8-11.8-4.7-12.4-7.2
					c-0.5-1.8,0-8,0.8-9.4c0,0,1.1,4.1,1.1,4.1s1-4.6,5.8-5.9c7.8-2.1,10.7,1.9,14.1,0.9C760.7,447.2,761.4,442.3,760.5,437.4z"/>
				<path class="st5" d="M748.9,452.8l-5.3,1.5c-0.7,0.2-1.4-0.2-1.6-0.9l-0.2-0.7l7.8-2.2l0.2,0.7
					C750.1,451.8,749.6,452.6,748.9,452.8z"/>
			</g>
		</g>
		<path class="st2" d="M665.3,554.2c2.4,6.7,45.2,31.6,59.5,30.1l43.2,2.1c36.7-4.5,54.1-61.6,54.1-61.6
			c-1.5-14.3-37.6,6.4-50.5,12.9c-20.4,10.2-33.3,10.7-33.3,10.7c-13.7,1.4-29.5-9.2-46.8-9.5C672.5,538.5,661.4,543.6,665.3,554.2z
			"/>
		<g>
			<path class="st20" d="M759.3,547.3C759.3,547.3,759.3,547.3,759.3,547.3l0-1.8l-74.4-1.4l0,1.8v0l0.2,0.3
				c0.9,1.6,2.6,1.9,4.6,1.9l64.7,1.2c1.9,0,3.7-0.2,4.7-1.7L759.3,547.3z"/>
			<path class="st25" d="M741.3,547.3L741.3,547.3l0.2,0.3c0.3,0.4,0.6,0.7,1.1,0.9l11.3,0.2c1.9,0,3.5-0.1,4.5-1.4l0.2-0.2
				c0,0,0,0,0,0v-0.9l-17.2-0.3V547.3z"/>
			<g>
				
					<rect x="712" y="527.2" transform="matrix(1.814585e-02 -0.9998 0.9998 1.814585e-02 154.0632 1248.4305)" class="st22" width="1.3" height="37.2"/>
			</g>
			<g>
				<path class="st26" d="M740.9,545.1l-9-36.7c-0.2-1-1.2-1.8-2.2-1.8l-52.2-1c-1,0-1.6,0.7-1.3,1.7l9,36.7L740.9,545.1z"/>
				<path class="st20" d="M711.8,525.4c0.5,1.9-0.7,3.3-2.6,3.3c-1.9,0-3.7-1.6-4.2-3.4c-0.4-1.9,0.7-3.4,2.6-3.3
					C709.5,522,711.3,523.5,711.8,525.4z"/>
			</g>
		</g>
		<g>
			<path class="st5" d="M774.6,595.9c-5.1,0.9-9.1-5.1-9.1-5.1l-13.3-10.5l2.8-7.1l25.9,11.6C781,584.9,779.8,595,774.6,595.9z"/>
			<path class="st3" d="M765.6,590.4c0,0,0,0.6,1,3.3c1,2.7,2.2,3.7,3.5,4.1c4.9,1.5,8.5,0.7,20.5,3c11.9,2.3,15.5,0.6,19-4.9
				c3.5-5.5-0.1-9.8-6-10.3c-8.4-0.6-13.1,0.3-17.5-0.3c-4.6-0.7-4.9-1.7-7.6-3.4c-2.5-1.6-4.8,7.7-2.5,9.8
				C778.1,593.6,767.4,593.9,765.6,590.4z"/>
			<path class="st7" d="M768.1,595.7c4.9,1.5,8.5,0.7,20.5,3c11.9,2.3,15.5,0.6,19-4.9c1.6-2.6,1.7-4.8,0.7-6.6
				c2.6,1.8,3.5,4.9,1.2,8.7c-3.5,5.5-7.1,7.2-19,4.9c-11.9-2.3-15.5-1.6-20.5-3c-1-0.3-1.9-0.9-2.8-2.5
				C767.5,595.5,767.8,595.6,768.1,595.7z"/>
			<path class="st5" d="M765.6,590.6c0-0.1,0-0.1,0-0.1C765.6,590.5,765.7,590.6,765.6,590.6C765.6,590.6,765.6,590.6,765.6,590.6z"
				/>
			<g>
				<path class="st16" d="M791.3,594.7c0.4,0.1,0.7-0.6,0.8-1.6c0.2-2.1,0.7-4.1,1.4-6.2c0.3-1,0.3-1.9-0.1-2
					c-0.4-0.1-1.1,0.6-1.4,1.6c-0.7,2-1.1,4.1-1.3,6.1C790.7,593.6,790.9,594.5,791.3,594.7z"/>
				<path class="st16" d="M787.7,594c0.4,0.1,0.8-0.6,0.9-1.6c0.2-1.9,0.7-3.9,1.4-5.8c0.3-1,0.3-1.7-0.1-1.8
					c-0.4,0-1.1,0.7-1.5,1.6c-0.7,1.9-1.1,3.8-1.3,5.7C786.9,593.1,787.3,593.9,787.7,594z"/>
				<path class="st16" d="M783.8,593.9c0.4,0,0.8-0.7,1-1.7c0.3-2,0.9-4,1.6-6c0.4-1,0.4-1.8-0.1-1.8c-0.4,0-1.2,0.7-1.6,1.7
					c-0.7,2-1.3,4-1.6,5.9C783.1,592.9,783.3,593.8,783.8,593.9z"/>
			</g>
		</g>
		<path class="st2" d="M773.7,578.8c0,0-91.4-37.5-96.6-37.6c-17.6-0.1-13.6,17.7-4.7,26.1c10.6,9.9,90.7,28.1,90.7,28.1
			L773.7,578.8z"/>
		<g>
			<polygon class="st5" points="737.5,585.3 762.4,561.7 751.8,551.1 724.6,579.8 			"/>
			<path class="st2" d="M732.3,566.7c0,0,63.5-58.2,67.8-59.9c14.5-5.9,23.5,10.1,23,15.6c-0.7,7.2-65.2,65.5-65.2,65.5L732.3,566.7
				z"/>
			<g>
				<path class="st3" d="M694.7,587.2c-1.5,1.4-1.7,5.4-1.7,5.4s21.2,8,28.6,8.1c1.9,0,5.4-0.7,8.7-1.6c0.6-0.1,1.8-1.6,2.4-1.7
					c1-0.3,1.3,0.7,2.1,0.4c2.3-0.7,3.9-1.3,3.9-1.5c4.5-9.5,3-14.2,3-14.2s-9.7,2.8-8,0.6c3.6-4.7-6.6-9.4-8.9-6.9
					C715.7,585.7,699,583.2,694.7,587.2z"/>
				<path class="st7" d="M693.5,589.2c6.5,2.6,20.2,7.9,22.9,8.1c11.1,0.8,18.9-3.1,24.1-5.5c-0.4,1.4-1.1,2.9-1.8,4.5
					c0,0.1-1.6,0.7-3.9,1.5c-0.9,0.3-1.1-0.7-2.1-0.4c-0.5,0.1-1.8,1.6-2.4,1.7c-3.3,0.9-6.8,1.7-8.7,1.6
					c-7.5-0.1-28.6-8.1-28.6-8.1S693,590.8,693.5,589.2z"/>
				<g>
					<path class="st16" d="M708.5,582.9c-0.2,0.4,0.6,0.8,1.8,1.1c2.4,0.5,4.8,1.2,7.2,2.2c1.2,0.5,2.2,0.6,2.4,0.2
						c0.1-0.4-0.6-1.2-1.8-1.6c-2.3-0.9-4.7-1.6-7.1-2.1C709.8,582.4,708.7,582.6,708.5,582.9z"/>
					<path class="st16" d="M713.2,581.3c-0.2,0.4,0.6,0.9,1.8,1.3c2.3,0.7,4.7,1.6,6.9,2.7c1.1,0.6,2.1,0.7,2.3,0.3
						c0.1-0.4-0.6-1.3-1.7-1.8c-2.2-1.1-4.6-2-6.8-2.6C714.5,580.8,713.4,580.9,713.2,581.3z"/>
					<path class="st16" d="M717.8,579.8c-0.1,0.4,0.6,1,1.7,1.5c2.3,0.9,4.5,1.9,6.7,3.2c1.1,0.6,2,0.9,2.2,0.4
						c0.1-0.4-0.6-1.4-1.6-2c-2.1-1.3-4.4-2.3-6.6-3.1C719,579.4,718,579.4,717.8,579.8z"/>
				</g>
			</g>
		</g>
	</g>
</g>
</svg>
