<?xml version="1.0" encoding="utf-8"?>
<!-- Generator: Adobe Illustrator 23.1.1, SVG Export Plug-In . SVG Version: 6.00 Build 0)  -->
<svg version="1.1" id="Layer_1" xmlns="http://www.w3.org/2000/svg" xmlns:xlink="http://www.w3.org/1999/xlink" x="0px" y="0px"
	 viewBox="0 0 500 100" style="enable-background:new 0 0 500 100;" xml:space="preserve">
<style type="text/css">
	.st0{fill:#C1272D;}
</style>
<g>
	<path d="M6.9,70.5l3.7-8.1c3.9,2.9,9.8,4.9,15.4,4.9c6.4,0,9-2.1,9-5c0-8.7-27.1-2.7-27.1-20c0-7.9,6.4-14.5,19.6-14.5
		c5.9,0,11.8,1.4,16.2,4.1L40.3,40c-4.3-2.5-8.8-3.7-12.9-3.7c-6.4,0-8.9,2.4-8.9,5.3c0,8.6,27.1,2.7,27.1,19.8
		c0,7.8-6.5,14.4-19.8,14.4C18.5,75.8,11,73.7,6.9,70.5z"/>
	<path d="M85.7,39.2V75h-9.8v-4.3c-2.7,3.1-6.7,4.8-11.1,4.8c-9,0-15.3-5.1-15.3-16.1V39.2h10.4v18.7c0,6,2.7,8.7,7.3,8.7
		c4.8,0,8.3-3.1,8.3-9.6V39.2H85.7z"/>
	<path d="M92.4,39.2h10.4V75H92.4V39.2z"/>
	<path d="M132.8,73.3c-2.1,1.5-5.3,2.3-8.5,2.3c-8.5,0-13.4-4.3-13.4-12.8V48h-5.5v-8h5.5v-8.7h10.4V40h8.9v8h-8.9v14.6
		c0,3.1,1.7,4.7,4.5,4.7c1.5,0,3.1-0.5,4.2-1.3L132.8,73.3z"/>
	<path d="M170.3,60.1h-27.1c1,4.5,4.8,7.2,10.2,7.2c3.8,0,6.5-1.1,9-3.5l5.5,6c-3.3,3.8-8.3,5.8-14.8,5.8
		c-12.4,0-20.4-7.8-20.4-18.4c0-10.7,8.2-18.4,19.1-18.4c10.5,0,18.6,7.1,18.6,18.6C170.5,58.1,170.3,59.2,170.3,60.1z M143.1,54
		h17.6c-0.7-4.5-4.1-7.5-8.8-7.5C147.2,46.6,143.8,49.4,143.1,54z"/>
	<path d="M212.8,25.7V75h-9.9v-4.1c-2.6,3.1-6.4,4.7-11.2,4.7c-10.1,0-17.9-7.2-17.9-18.4c0-11.2,7.8-18.4,17.9-18.4
		c4.4,0,8.1,1.4,10.7,4.3V25.7H212.8z M202.6,57.1c0-6.2-4-9.9-9.1-9.9c-5.2,0-9.2,3.7-9.2,9.9s4,9.9,9.2,9.9
		C198.6,67.1,202.6,63.3,202.6,57.1z"/>
	<path d="M249.9,40h9.2v8h-8.9v27h-10.4V48h-5.5v-8h5.5v-1.6c0-8.1,4.9-13.3,13.8-13.3c2.9,0,6,0.6,7.9,1.9l-2.7,7.5
		c-1.1-0.8-2.6-1.3-4.2-1.3c-3.1,0-4.7,1.7-4.7,5.2V40z"/>
	<path d="M259.3,57.1c0-10.8,8.3-18.4,19.7-18.4s19.6,7.7,19.6,18.4c0,10.8-8.3,18.4-19.6,18.4S259.3,67.9,259.3,57.1z M288.1,57.1
		c0-6.2-3.9-9.9-9.1-9.9s-9.2,3.7-9.2,9.9s4,9.9,9.2,9.9S288.1,63.3,288.1,57.1z"/>
	<path d="M323.8,38.7v9.6c-0.9-0.1-1.5-0.1-2.3-0.1c-5.7,0-9.5,3.1-9.5,10V75h-10.4V39.2h9.9V44C314,40.5,318.2,38.7,323.8,38.7z"/>
	<path d="M417.5,28.5L402.3,75h-11.6l-10.2-31.5L369.9,75h-11.5L343,28.5h11.2l10.5,32.7l11-32.7h10l10.6,33l10.8-33H417.5z"/>
	<path d="M452.1,60.1H425c1,4.5,4.8,7.2,10.2,7.2c3.8,0,6.5-1.1,9-3.5l5.5,6c-3.3,3.8-8.3,5.8-14.8,5.8c-12.4,0-20.4-7.8-20.4-18.4
		c0-10.7,8.2-18.4,19.1-18.4c10.5,0,18.6,7.1,18.6,18.6C452.3,58.1,452.2,59.2,452.1,60.1z M424.9,54h17.6c-0.7-4.5-4.1-7.5-8.8-7.5
		C429,46.6,425.6,49.4,424.9,54z"/>
	<path d="M495.5,57.1c0,11.2-7.8,18.4-17.8,18.4c-4.8,0-8.7-1.5-11.2-4.7V75h-9.9V25.7h10.4V43c2.7-2.9,6.3-4.3,10.8-4.3
		C487.8,38.7,495.5,45.9,495.5,57.1z M485,57.1c0-6.2-3.9-9.9-9.1-9.9s-9.1,3.7-9.1,9.9s3.9,9.9,9.1,9.9S485,63.3,485,57.1z"/>
</g>
<path class="st0" d="M91.2,28.5c0-3.3,2.6-5.8,6.5-5.8s6.5,2.4,6.5,5.6c0,3.5-2.6,6-6.5,6S91.2,31.7,91.2,28.5z"/>
</svg>
