<?xml version="1.0" encoding="utf-8"?>
<!-- Generator: Adobe Illustrator 24.2.1, SVG Export Plug-In . SVG Version: 6.00 Build 0)  -->
<svg version="1.1" id="Layer_1" focusable="false" xmlns="http://www.w3.org/2000/svg" xmlns:xlink="http://www.w3.org/1999/xlink"
	 x="0px" y="0px" viewBox="0 0 576 512" style="enable-background:new 0 0 576 512;" xml:space="preserve">
<style type="text/css">
	.st0{fill:#FFFFFF;}
</style>
<path class="st0" d="M552,64H129.3L121,19.6C118.8,8.2,108.9,0,97.4,0H12C5.4,0,0,5.4,0,12v8c0,6.6,5.4,12,12,12h78.7l69.9,372.9
	C150.3,416.3,144,431.4,144,448c0,35.3,28.7,64,64,64s64-28.7,64-64c0-11.2-2.9-22.3-8.6-32h145.2c-5.6,9.7-8.6,20.8-8.6,32
	c0,35.3,28.7,64,64,64s64-28.7,64-64c0-18-7.4-34.2-19.4-45.9c-2.6-10.2-11.9-18.1-23.3-18.1h-296l-12-64h331.4
	c11.4,0,21.2-8,23.5-19.1l43.3-208C578.6,78,567.2,64,552,64z M240,448c0,17.6-14.4,32-32,32s-32-14.4-32-32s14.4-32,32-32
	S240,430.4,240,448z M464,480c-17.6,0-32-14.4-32-32s14.4-32,32-32s32,14.4,32,32S481.6,480,464,480z M502.2,288H171.3l-36-192
	h406.9L502.2,288z"/>
</svg>
