<?xml version="1.0" encoding="utf-8"?>
<!-- Generator: Adobe Illustrator 23.1.1, SVG Export Plug-In . SVG Version: 6.00 Build 0)  -->
<svg version="1.1" id="Layer_1" focusable="false" xmlns="http://www.w3.org/2000/svg" xmlns:xlink="http://www.w3.org/1999/xlink"
	 x="0px" y="0px" viewBox="0 0 512 512" style="enable-background:new 0 0 512 512;" xml:space="preserve">
<style type="text/css">
	.st0{fill:#001161;}
	.st1{fill:#19A206;}
</style>
<g>
	<circle class="st0" cx="80" cy="432" r="24"/>
	<path class="st1" d="M496.7,285.7c9.9-12.9,15.3-29.7,15.3-50.2c0-37.7-32.1-72.6-72.7-72.6h-70.1c8.7-17.4,20.7-38.9,20.7-69.8
		C389.9,34.7,366.6,0,307,0c-30,0-41.1,37.9-46.8,67.2c-3.4,17.5-6.6,34.1-16.5,44C220,134.8,184,192,162.4,203.6
		c-2.2,0.9-5,1.6-8,2.2C148.6,197.4,139,192,128,192H32c-17.7,0-32,14.3-32,32v256c0,17.7,14.3,32,32,32h96c17.7,0,32-14.3,32-32
		v-8.7c32.5,0,100.7,40.7,177.5,40.7c5.5,0,37.6,0,41,0c59.3,0,92.3-35.9,90.3-89.8c15.1-17.7,22.5-43.3,18.2-67.1
		C499.5,335.6,502.2,308,496.7,285.7z M128,480H32V224h96V480z M456,276.4c16,11.6,16,59.6-5.6,70.7c13.5,22.8,1.4,53.2-15,62
		c8.3,52.5-19,70.6-57.2,71c-3.3,0-37.2,0-40.7,0c-72.9,0-134.7-40.7-177.5-40.7V235.6c37.7,0,72.3-67.9,106.2-101.8
		c30.5-30.5,20.4-81.5,40.7-101.8c50.9,0,50.9,35.5,50.9,61.1c0,42.2-30.5,61.1-30.5,101.8h112c22.7,0,40.6,20.4,40.7,40.7
		C480.1,256,472,272,456,276.4z"/>
</g>
<circle class="st0" cx="80" cy="432" r="24"/>
<path class="st0" d="M154.42,205.93l-0.02-0.13c-4.86-7.04-12.39-11.95-21.16-13.37c-0.22-0.04-0.43-0.07-0.65-0.1
	c-0.32-0.05-0.65-0.09-0.98-0.12c-0.34-0.04-0.69-0.07-1.03-0.1c-0.24-0.02-0.49-0.04-0.73-0.06c-0.61-0.03-1.23-0.06-1.85-0.06H32
	c-0.62,0-1.24,0.02-1.85,0.06c-0.25,0.01-0.49,0.04-0.73,0.06c-0.34,0.03-0.69,0.06-1.03,0.1c-0.33,0.04-0.65,0.08-0.98,0.12
	c-0.22,0.03-0.43,0.07-0.65,0.1c-8.78,1.42-16.31,6.33-21.16,13.37l-0.02,0.13C2.06,211.07,0,217.29,0,224v11.6v235.7v8.7
	c0,17.7,14.3,32,32,32h96c17.7,0,32-14.3,32-32v-8.7V235.6V224C160,217.29,157.94,211.07,154.42,205.93z M128,480H32V224h96V480z"/>
</svg>
