<?xml version="1.0" encoding="utf-8"?>
<!-- Generator: Adobe Illustrator 23.1.1, SVG Export Plug-In . SVG Version: 6.00 Build 0)  -->
<svg version="1.1" id="Layer_1" focusable="false" xmlns="http://www.w3.org/2000/svg" xmlns:xlink="http://www.w3.org/1999/xlink"
	 x="0px" y="0px" viewBox="0 0 640 512" style="enable-background:new 0 0 640 512;" xml:space="preserve">
<style type="text/css">
	.st0{fill:#11175C;}
	.st1{fill:#19A206;}
</style>
<g>
	<path class="st0" d="M544,256c44.18,0,80-35.82,80-80s-35.82-80-80-80s-80,35.82-80,80S499.82,256,544,256z M544,128
		c26.47,0,48,21.53,48,48c0,26.47-21.53,48-48,48s-48-21.53-48-48C496,149.53,517.53,128,544,128z"/>
	<path class="st1" d="M400.15,308.02L400.15,308.02c-11.88,0-23.87,1.73-35.49,5.26c-14.16,4.3-29.1,6.72-44.66,6.72
		s-30.5-2.42-44.66-6.71c-11.51-3.49-23.47-5.26-35.49-5.26c-36.29,0-71.58,16.18-92.28,46.93C135.21,373.3,128,395.41,128,419.2
		V432c0,26.51,21.49,48,48,48h288c26.51,0,48-21.49,48-48v-12.8c0-23.79-7.21-45.9-19.57-64.25
		C471.73,324.2,436.43,308.02,400.15,308.02z M480,432c0,8.82-7.18,16-16,16H176c-8.82,0-16-7.18-16-16v-12.8
		c0-16.63,4.88-32.67,14.11-46.38c13.83-20.54,38.4-32.8,65.74-32.8c8.9,0,17.71,1.31,26.19,3.88c17.69,5.37,35.84,8.1,53.96,8.1
		s36.27-2.72,53.96-8.1c8.49-2.58,17.32-3.89,26.19-3.88c27.34,0,51.91,12.26,65.74,32.8c9.23,13.71,14.11,29.75,14.11,46.38V432z"
		/>
	<path class="st0" d="M157.15,300.93C145.27,292.83,131.18,288,116,288H76c-41.91,0-76,35.89-76,80c0,8.84,7.16,16,16,16
		s16-7.16,16-16c0-26.47,19.75-48,44-48h40c5.55,0,10.81,1.25,15.7,3.3C139.22,314.8,147.77,307.3,157.15,300.93z"/>
	<path class="st0" d="M564,288h-40c-15.18,0-29.27,4.83-41.15,12.93c9.38,6.37,17.93,13.87,25.45,22.37
		c4.89-2.05,10.15-3.3,15.7-3.3h40c24.25,0,44,21.53,44,48c0,8.84,7.16,16,16,16s16-7.16,16-16C640,323.89,605.91,288,564,288z"/>
	<path class="st1" d="M320,288c61.86,0,112-50.14,112-112V32l-56,28l-56-28l-56,28l-56-28v144C208,237.86,258.14,288,320,288z
		 M240,83.78l24,12l56-28l56,28l24-12V128H240V83.78z M240,160h160v16c0,44.11-35.89,80-80,80s-80-35.89-80-80V160z"/>
	<path class="st0" d="M96,256c44.18,0,80-35.82,80-80s-35.82-80-80-80s-80,35.82-80,80S51.82,256,96,256z M96,128
		c26.47,0,48,21.53,48,48c0,26.47-21.53,48-48,48c-26.47,0-48-21.53-48-48C48,149.53,69.53,128,96,128z"/>
</g>
</svg>
